<mxfile host="app.diagrams.net" modified="2024-04-12T14:00:28.951Z" agent="Mozilla/5.0 (Macintosh; Intel Mac OS X 10_15_7) AppleWebKit/537.36 (KHTML, like Gecko) Chrome/123.0.0.0 Safari/537.36" etag="f6cd-cvD9RwOnSiI-XAa" version="24.2.3" type="device">
  <diagram name="Page-1" id="UdM81DYmcnPt1qPHDxce">
    <mxGraphModel dx="1834" dy="1270" grid="0" gridSize="10" guides="1" tooltips="1" connect="1" arrows="1" fold="1" page="0" pageScale="1" pageWidth="827" pageHeight="1169" math="0" shadow="0">
      <root>
        <mxCell id="0" />
        <mxCell id="1" parent="0" />
        <mxCell id="hZm13JORJEHZNlpUktbY-1" value="" style="rounded=0;whiteSpace=wrap;html=1;dashed=1;strokeWidth=2;strokeColor=#0000FF;" vertex="1" parent="1">
          <mxGeometry x="234" y="131" width="598" height="419" as="geometry" />
        </mxCell>
        <mxCell id="hZm13JORJEHZNlpUktbY-4" value="Region" style="shape=partialRectangle;whiteSpace=wrap;html=1;top=0;left=0;fillColor=none;dashed=1;" vertex="1" parent="1">
          <mxGeometry x="234" y="131" width="105" height="40" as="geometry" />
        </mxCell>
        <mxCell id="hZm13JORJEHZNlpUktbY-5" value="" style="rounded=0;whiteSpace=wrap;html=1;strokeColor=#009900;" vertex="1" parent="1">
          <mxGeometry x="271.5" y="192.25" width="523" height="296.5" as="geometry" />
        </mxCell>
        <mxCell id="hZm13JORJEHZNlpUktbY-6" value="VPC" style="shape=partialRectangle;whiteSpace=wrap;html=1;top=0;left=0;fillColor=none;dashed=1;" vertex="1" parent="1">
          <mxGeometry x="270.5" y="192.25" width="105" height="40" as="geometry" />
        </mxCell>
        <mxCell id="hZm13JORJEHZNlpUktbY-7" value="" style="rounded=0;whiteSpace=wrap;html=1;strokeColor=#ff0000;strokeWidth=2;" vertex="1" parent="1">
          <mxGeometry x="375.5" y="247.5" width="315" height="186" as="geometry" />
        </mxCell>
        <mxCell id="hZm13JORJEHZNlpUktbY-10" value="&lt;font color=&quot;#ff0000&quot;&gt;Security Groups&lt;/font&gt;" style="rounded=0;whiteSpace=wrap;html=1;strokeColor=none;" vertex="1" parent="1">
          <mxGeometry x="473" y="250" width="120" height="32" as="geometry" />
        </mxCell>
        <mxCell id="hZm13JORJEHZNlpUktbY-11" value="" style="shape=image;imageAspect=0;aspect=fixed;verticalLabelPosition=bottom;verticalAlign=top;image=data:image/png,iVBORw0KGgoAAAANSUhEUgAAASwAAAEsAgMAAAAEE2bmAAAADFBMVEX////whQrneQzdbBFCLaEhAAAcTElEQVR42pRZPY/jyhGkg11g9wHOnn+Pf8JLSIDZBSYB8tdcYAqYiS6wCXMIEC9wNAS0f+XFJDB0bAKSq3qGH9oVpbNwp+iuUd1dXV3Tilpz96N1Uas6zzOVJ0n8c5/Idc6N7U3EGnGKGoGUUqdMIRw+WVU9jdVaYzpj7C6QKWujCwRkjPSUJyn/ZfoTuIyzQ9fdZliqpm5qpZV8shODxk9Tjaxr224Y7LDEaUyhgUvneSm5nVKVMb2syp7n6Hx+/htRauDKSwRUukDBfDiVI8knXYhsZ8bOdnbc1b6u+bfQuS9Ymp2QYBafntZr7M1oBrOVvyxNqUutVe3Ln6pTSmzZ8z52xpl+I4VmNBS+LkzucSkEYhsTRKue4uqBqe02VqBoiIdy1TokqVSVIs7jYJG1HUOhXDu+Fo1WupRIYD4akMZ5lmbV03rZwQ3OdAsrNAumG1MjBhtJfgFYBUhPGBahgx2IP+xnqDEgalMblJ6gpPCpSk9xlqUPcwQjgAuw7JakJrRCYbqLhfos1ZMxino7jKjXYLolFCgBbAWpXyjtqXpKkwzFz57k2PddN7h2P5ENgOmmLholRUulYGmFJB9zYuykYoPBTHZL9TVqhu+cIiYfBKty/vtHQxn1wGWt6+2OE3UDZCYvDKoVeJGdkjh9wv3IDsPYkV3dnmBGCS7UvpaCEZd6JoYBVw9cS8VqMALMR7F0CU6IIjJeDPHJqiecGCmFmMhhWFlWGuBqyAmZokp5urJg1QNcHXCNwEVgbWgjh9JgikpPsH8q0R1EOz3kqgNRCQywdqKPPBWKViPJWqQiB67kKb/QQjva3oIbu+LrktFythElA1mBS0F1sip5hMshyW6A5reLHjZkfl6avDGkGHCBqpmK1dM+AtXIYK2xK/nZyTo3ua9XnXG+kzyWdj6KhSwxRaQ+gA27QYKMQcKC6gNanD/X+1bq5aCJWyitdZ3rmgImWxLqClwptSx5xFVsNVTL7JckUaH6DXLVYXujZPlz3vctu+hQrC6IotZUfQVwtAIFGUZyxTLkD/voHJIELvfJ85SApf10Y9nSpPB/HLMsckyRcwRctu22JVmWjRbDIyIm6ztm1OyRrhLYYMfWyOreVlvNBSLiKj5MrRN5pIiS48iZhORbquJWfFgLsKJYhIItpA87FNdoYiPBi661t46Oxgns11RXkkJGkj4se1T7kRKGFWktdacLMo3NBoqZstDeIFL1K/qw+GhPRj7U2HctTcWq1JojCQ3Ludi8HoKoEugQmPALwQawAnbA7OjK4tfA5dmK6ntcD/o4ndlGagVwyXDbtfjIMucYMRpChVXE8a4OcdnJopfAZYZuB0yX0ENSLOwiajU+8ZGp87UHJjv0bOWujwXXEWwFKSbiSqMZx8f2MPo4z0DmQAqUDAZ9GDd+NTVsRVkovTDM44K6PphHGaSejmLoVuYDEW2FqutQMKp+HB/7gGiWPmK4HTTHYby3YOSrrktdbI2ksfNW+F6s8zxBWR1sPgaJYjisKxdlB2H9dNdew04e10GOs6RIpYZ5whet8P6NRVxIUXlxFVywFgecOLuZWgHm917yN6WGL290LQyTkaQPY3rZ/ddRdEHBnF9scIe9DWbfW02ZJWqF9mYz5UJK1QEtoulj8lPE1wd2pN22t6xv4losiuBKKTrZASfOnhTsZY9i7Z0wbDkHEpkWa8GqVCXJ3fJH8+TmsxdES+PqzM02gnMyf4+OPr9+wjWfQ5Iir45KbdfnjFievx7G+tOn2rtJAgkudHHkYutWa85FGx1/PtceGc7CLzp9J2KxFp9f/3oQ69dPOU6YbhfWpPjD9uYcoP/207HA+3nRfBSsp+hvyFCv+seDWC9fcpRd5DhBIFhr7dDufcW3n441O0TznYSGQRPtNkTYRpD8/weXr5WjoxvgKRDN7u4VJXC9HAjWb59x/XdG9QUY6EVcXG3bW9LoHz8d68JAIEUn0LBq2xsxxEh+j16M7LXs9CRWf53O63SPbcc9acx2YShRr5da/I7OS//SOop17fsp8AK40Enwnl9LtUyJWHwDchlRCjHZ3gl8jeVmROuF+LR0IAY20S7P2vyIXuWFu/odBY0QH/YF15nMD73kM8tKnO1lVLNeTQNcYhDxN0mZZnKnjxDD8yxL0jtEqP7Q7SgBXC8oVRMe3zAVgounoi99hEgDF/6MnQh1L08GuyBrGtYL+loEq493keACsM+xpnm+nqePXrwmn1kINoztzumjXgiy3gTonbKED8F7/MI8OtEdP998d9sdxYAL+kov4DUfaZ6yu32cULDztRd17dhHOAG61kX0ZYY0VogK75mUB56Y3Mi+4Lp+AFKgqxVeQPLX4mtqzgtClWWee0N9yjLBVd2r18fs10fQsNagYpvTJ7/k7NRIwXQWLohpGt/DRdXxrKBUO3Sy3Tn974KrgKX21MfDiETN4uo+LnfxZB3kOTNSLbpFDIkLRiwv83D5oEfBFFV3cV3muafm+wFvMZB7zZc+wp0rcn85RsYxvNNXXBfqlxO1IFupibzUDYvoA5cRXOFUkfpD3X1cqBWghSRHTiQ6uYkYNQfBYDhzf4wUU5dkUvvqE67r9PHBuvsJh4rZtl+PFeTEqynAMDH63u7IPez0JcfrB+vlt6QXatRrIC02i3iSM4oEk3cpPQqc01fNAa7+EhYu1xo7CVNt9u94eeXS1HkfhhkCrpy4khvNQb0u0yRa4Rcb62Vpx3YOuGzwyl1MsDQyVVVyBxcowYIFipEXXib2F0ldm1wOktq/QICL8/j6pY8cyekcygW30xHaeofXPE43JucNZTlWcIq8Fqb7Pl5RL1D/zDWJkRwZTQ4yq7rKMRJcNYXcgsMbt4rV53qBEMQ1BUY4Wbl4g8iJdLUoNIhGLd5crqSC6zbH6/VCStBqzj4eGD+IOd/92sCjfmOK9SSTSPWBK73p4zxNV5AM+8OvI28G3GD/iN5J+vBVfI/ea/0teqvDXjvFgmv3ziKuKyC5y+SWp1FnZUUiwsAvg+3xrhHwTRf48sc1Gckv/JquDjbg2rsFmB15YXBmj+vNaOBqsCtftX+Xelwv+8cRcH0A2eSuyBLUH/kKGUhUhzDjmmMjuMpv0XuhwhOEuN7S9Kb2YOoEXrjFmgsuDNFtvWp+Kcx5rpdfQYRfu5sf3kPspMc1+Xi8KoOsP6Jf2nbJkbbiTUGv3/z2pu4oybG6rb3HFYyAWH1IRft79G53feRXjj6G6y1fpKx9ujEfXBUFAy7I9DnsIznU8T/bJRb7+JqL9gtf5Xc2cCJDqGzDdWUkzNF8vgSjL4c6pPfLrl6glsdVK//4Pnm9P93U/uPjcp17mAoITx/cOU8CqH23EpZ9fM+laMt8n1L0UcXbiZq4ZszkFe6wp6kIVwHoxI+bPgrJcnIi/NCDJKWP22UA9ZrJMKjYxB0i72Uny+iP6Bc73uQozUTl/YOZuF5UfEr3uBBpYukllJ8jDNI/Dp4HiVcxwKo4j9WtTswiYQDIgoX57uz3g1ivsozktkadSLYblszQx5W4YFwv9NOjN0+H75ZGfjVSMkOvcqMOvxpJjvMEyUcLxJrPPPl1Y3MYK8/975LCCfRxLVgkoECxK3EFpeBw//sw1l+WMx1xJdnNDKFaV2gOxRpKMYUN/p/DWG86VIz1ytIkXd42IUfgAuuxIp1/flsw4ujz53z5hRlcTW5nW6YItMCHvAiu4vdjXI2cz0+cxxclrsePZMRSka7YbfN8mYT7vQR6vfuTvFDl1Tt94JLfZZI9LkrrmQ7sfJEUJcF3/iQvD9O9r/hNoPkbluBK1hN1JD1EMJIClO3Fh/lY/El+2DlETGL5P06uWDdy5IiuEx1uBpjJz7m/55ITMJfPAMOv8CdsIgHDaBMTYBMgFJMA+Qv7CYo5MPuCc2LapOu96iabK3JEeKSVFBVeV1dXV716vdE3F6+IfNnHE+dFmlydvyRZYB+1m+l0jYcWhX7TzHAl7OR32mfJGs8nFATP4T7aAdlLvtHNlLqJOwlZ0+bZ7MZ1uDTvyBpfn5U6fw5wddwDSRUS+lZx7QUUObpsHA3IP/p+x1SBOud0BkANDLXVS7hKQSfALHfA4cJM3oSFmHEMw5MWPMjRt4nS97gkWdR17QPsXXGRXzPBtDpBLtN9BDDcj6RcVRXhY3XgRiLAKk1ib18OYLuzKSikyDcRriNWKDHj6+nsZzNn73sxBmtSHUrRww5QoO3AC6Bymsi1GIyMlBVGTxFjQi+4cI24b2tUKHKvyXdxB647xnV5yKJceY+wlUlo6/n0MgJTWx2cj7wvTUinvZHgQiXWSjFwH1sjdoBPUhumSaL+upHzZgU14ZJcgcvWOnfBX+D8AmJNFylXSJS4yTf89TJekC9BfOlJYtdAXHvM4lvwAtk0H4ixxviqmg/EKlkGVIkBLvTKaLJQopSVrhHOJ1lRTHQYbrWUhWtywRrp9ucwfzG5dtWArq1lI881YmoUTOwSt8Y4vqaw9isOOXFhYhrEl6xwaGU3y7rqdY0FRUC5QTvfTAzDLkkJLNaYwGD/+Tz3l2xjhZM0KOX3DlxSpED3EdDKqHSiGM4Xh+k+Xp6lPMdGTvuIL1sDV4lD+UZ/cZRVBBNmxr3YMXAYfX9+uf32fJn5a7B0WSnFIYgn7iNqHvnbBPMBxCokEWiYiYsEj1iTIznZkvKwkzoMsxTrcuFdx9TSHU1tA3PhU8TBN+JLp0a32RlSYOiKJFfwctyjkQcujoQLF6vMEzu2M7LGn19lG88QO0lsBLZ42co12ftciKoOWbUIJQyac9BmJVeNiZMcSU7GxvzVM/TrDh/7rmsk312Cdxqdr7lwl7LHBS5EF/pSCf0Ql5wgSTugUBQXR68YpuTT/E9xPXFid5Mu5KL98mnuL9ABNCeR/4fD1XJwZND/NaEtSYdoJLFGqNZOGDaczwGufmC01mXba44mi4KYJ0+X+/NIf5ElZUxckCouOJOzNSK9lmgd3kZ/IcIwaRvbUodL8g7u8J/JyZwwkX+Z2RJHDWxASrpsj1AF3SfhlQUsyg4ahiS6urMNwQ2a79P5B1y95bGUvMM8YTlgpnbE0zvss0wSQaeha9QJ1CnEpbctoh+3bfnONTreKR8zWMo+64Yr6ZZ+1cKCk57zDFeH8hB0GOKifuM+giXlhMB4ERxr/RAXCJlXqSheZ/7qhj9ZrO2l3cLZJonS4ubWq7vxtqQYuJn4pvsoNd1NolXSztxff9ciEjXwH8TVyRrBHmaZH+SiZ4vAVaQx9jG5aDv5ImlnZuufWkQe0cbDXxKnYElLjoXDfYyk5ImTq/oL23iSjbzNbP1Hbe3ruh3EX51SRXcdNThtBXJhIndulMayxp2Xh52kaZjZ+tPharu6ZHxxIA+dBic9hccVYcQfEdckFXie+8vV9Mfaor4/uL5UlgklUDbFlzgfpuh71U6dXyQoFm1JY8Q1kkOBGKIF4a21k8ZqjBBT3zsx42keE97WQWpqXSMr/Yy4cldWEFdsOBPGGUKVcsIiP+D6SQ/mlHPQmnJk5yPf5xyM939Fl8vO6AW830dbctFqzjmgQnTsGpR5OYtEtRVhvG+4Rkb+Jbi3va2nDglRcR3LdhKQNE3u4545OpWAZS68Jo4VeL0srNFWg+Yv3zA3DQacjeYwlwvF/xfj1qgd8+lHXD/hCuk6vdPYTcJhHH1Tp9E4XEBFXLFW5zyWH3DJGut6hitDqdNykNj4NeIYJfDXzdEo4rGXhTXWLjiOlU6goJ6SGxJSLIkNt48J6Omv0jSwcD2Bgv/gL5TTrbvTSk7GlHeizu+eT7iM4vKT79clXOJ5VGOylYgJ64bVRZ6VU/6SFbphqeCKncMW/KVNCNqYY6WwIMPCLYmizpFYDt4XZZ24lc+nhVi1QDbIVu5tOc6XJeFgZicbObe1u6aODUvOrx9soaqQPlK28ugL9IJlBZuGxudCx6r8IpV5zMbht9eF89hrKSb+UqVAocEvORqTxGyO629S7/yDG3m9nZf8VaF2lRwtGVGdr7rUjApjtRU7Wxf2War0O32MewuyohRcR9eC5DrjZLBmc9//RUIixQohEl/EZdFMIhd2becH1szUyBQzW7/EqXYgnBkt2OpZ0xFX35LgIauMI9T4NY6i2ThmhBHZci6UVvKN/uo8EU9aWdLO3dtiZRhBuQZTFB5+tNVxjfL3sfZcsJwiCuGRxNRW6pWWUYwpJzWgl4X4kvpkwJE8dBzkklxDjHFskU1rlLbIRJSwizEInxfXqLnwaJUOu7toLSC8bdzZTp1IhmLlmHTk4j4OmgsPoCI7R1G3Dpd5H/MEGAsV6SsZ+bocq5q/pHhC91fpxSY3EZL1lHNSCIwNWzadJS6vUXH1PZgBFmF6hRj6S22lvCSp1/RE8HJMqL9KsmFOvIMrBO83JlwmihKUm14Z+foA1x4sYucYV8hbc9A7ob9QBEukGoqUHq7xWDp6gUGR39EylIG/DO5uCLMdW7F0Pw51r7Z6W5fifw8MDK4pR1sp4wK4VOK6hot/H8BTtyQ20SnjcUpWzM+jxCpLxCvJyGVbeoZI0XXulsRczLH6Y5ObcO4NZQW8f120VUuzAFyYjIFyVZ8ZhEUW4kKzLD8ueFey4i/39xFCgZpUEQO/KuD+b18OwZBTTmN64/XxwF/oYQbQV170QdmBXJNvs/ylqptIX7us2OqBq6s7smFkzqUOQG/KwYzjNqHhBS5NrcmKrVr3UZKhmOpH0Q2amW/gJGfyW1TCpOFXcCHExF99z+FkOa6y5D6OApKEjyMk7STXVVxaT4BtrZ20Ah0D9WHfMM364QM1hHw/3EdMJsHHTJcRuayRC+ZUGOEQU/25Zgtr7JXVF1x2HDEbTLNGJVCqFtOEwtQVWx1xtQOsYDTmJ6a51P27LBBPxZImbohVOZOP8gRuXcHmRQeq0/gW5pwIOsuboYTh8jCvDqCUIdTANDEvbIa7TfNXwEhSb3NLV9eouLoOswYVCng5/F1xZZO4W5aIkI0vn6yxtTiQtZNDsJ15U1wmIJYNlGHXx7jkaPecoqu2Ig9wuWZS9/Eiv6EKfowLw56KuhYtgstcxwSH4MkenpVIZ7qac9SWVX85XUupY7bZPvKti5QCKQS4j/z1BEoTwVpXnQ98N/7beRV1wmwhq8TzuAdnaO2zo0wjEP1DXHGLH+bVVVsCMDAWGWr15fpetfXnqq1fzFzXcsVMBYf7/7D1V4rERlh4d4k3BNd01dZ/V239nmmLO1LUOESXR7iGVVsZBcbho1Ds5yN/Dd/XZr8cW4QCV7k8YOq6butfa66HhsFw1Da9vkzi9EF8MbMyVaPkPID022MKcvw3tBXtLOfLwcYLqHVbg7cF/n3PwtpNLlA6mXwcjaXQyEAY+dhWBXBdjzvJcmCEH1giBjQuWmNV3Ai4z3Ht6+4ddBHAuWkWtPCB2AzVzuWSfLZGy1JAzNTVu67xoETK7FVJlG7A1WON7Eu78g/1/T6X0JJe+QcVdfw5LpYo0oYcy9bh2vH9X5tPtwcO9xVjzi3+AiQ04PtKDbKdyc307DjR9u+xLSu7p7iqzuHao3QCrz9psiM8w4m24PL+crF6QJUCZjMLns5EG3Cpv8AvWItmXiryfclxQzML/FRS2GULLvIeFeMeQVbwiXbGSc+4SFy3j3DpbIBTYY7AcRlB86Evl8r566zIXM0ntvhhU9SVHMBqGVZyJDlpXPn4LPnUVuXmKlKktCMfZsT/fFOSj8NX+fE5Llv1rZVKpx57XHxR2R2M96MoumxZI6YgfAai9Q6nRtJKNuVMdWA+w0UNlhii7MCP0QvtS7NA44qHwhtwWYqnIFCy7iUIZDIg2ExYaxqzwV/gsFAdQsPQU3sLHh5vqcrxQW5K3mODv6y1/Xcyfl05SpRKjMYCjWu6BRcH3/b7lz3UTqzpCvfcBcYC2XkUb1gjPt9RJXrZgb52kRs3fBgnG/mZrU5/fcWtxhV6cWSWA5c/ktRDbPOXrPFoMTGVECscdY58OHu/n2yJiRGX9apBSlxb0AwmuCU34BJ3DcDVy4Gs/TEqGoyEi/GRBP6jiS1nSLAJLqgGeYjuSq41LSbf4S25xZYkMcGF/hYh5h6Y6sQoeIpu4m24xNYBmg9bl2MvKemwBCE2XW5bzpD0ycDF4OolKigklSXiIgoeNmz0F/aRzDITrH5Mg1djxr9bSsymfRzoL0sFovVyeFBYDUbf45FMNu4j/cXED7qiLCwONzJiE5SHm31/lIZZUk7ne0lw3ffgYdwm35Ou+Kq4VLzmKP2W92Tw/G9bvnf+6jn69mM2Kp+LoA7bhqtTf9kaKkv3pgfeL/keuli2tX/krwqXGoczBaE1oPQL//zvw/24/uJL6k1w3pUjSaX1Jq4yCPylWebi5/i/Ts4ox20YBqKLXmSP0vvGgA9gA1bP4wDSfwVY5RtKzi6aDUIH+SZImqKo0YzEll1LSli763IM0OOLyO59W7AZQZ3+lpN2jpoTp7pn79tqaW0Aa+m8NDLHEEyeH/LZnfTT3yf8VrgV6j2WKoEyec4PNduzu/Knv98JWqq2jodfs14rWvrW9p0P8MIWTN4stvhQJYrtZNvRPsr1u60/P5r6ZWNKdr+YLLoxYP3bOSB+t/Vzwj4PJ/FAthyXRvLr5jPK/p+tVz+CKy7NYnaaBZNOC+3wWe5f/7RRwgke3Fvet7GxAirQErJVLTrr9dA0zvtSguQjLo76BfxiNDe/rFZr7X0H9d+SBz/pfVvCrwrMqdR3j7lP5zkaY99EEsy8MtQbed8hpi7OU/p4P0BEEuIyll5fGs/1kI93sPf9SqlCrW/6ioerVQUtw+hSymK5P4q2yKHCkV/3m579smqN2OI8k5oYrqOHCfKWcn8P+VX5ltby/Saxqios8/dJF4AWZcSvKtcebjkaqRcFhId9RCxtkKeSBuoRJAnj2ihaX/2UVamJwfr3i+9JmMVHrFRhWG4Cg7tXujCFYTxPQb+KTn/FpV7jQotGvUfXtp3/YLDD767e+SHw6luKwx7zq4mwuSnzSlcR8rF7aw3GWDrPsozlLQ1a5jC5xPySeGNtQ8DsO9ukN9LsvwRroqKAqtuXGRhqHuolK9ZoX4ULlHRepl9oQTpOtEf9SnQxG+jaVsc6klR4YkSPfkd2kEojgw7Rb9En5mlwzWhNUGJcDpzIhwTk/kBgyFYS6QOueKpbPrkV1qdhpkb9OlyOoC5GjOBOPAOgx9aCtoR6tHVr1WUqTvngHQZbRNF8OSDW1qSu79y8VZfC8xysCZdvFIRxJZ8Y1izybXhtOweuaZoey0j68dscjlFUoKPq0kiwwNIfT8jxWnUirzV9yV0G5sfhe85Rv0QHPpoU8r1aNz3PcS1fGpwcEetMgYnKn+/xfFXmJjGfszrP4qTgeN0PfvfKqMKtvOAd+PBWsddipCtmwLpzqCP/cVvwnu1UBCF7HRmjI063azFaP2x2ZjhqT5grQa7U/SFTLgVxtELgWjzG5DDpalsIEmYxWwqb5HypvjS6ogQZcIz09vf1iq2Kpr0SZDrLFc5g3FZRnIVVmesJfXBmvpJ7NF5oaLfqlC4H6q7UV19JjGNbreO1g/s1v2z5WJxbj3DAdPlKvnyTZPMm8wrUsdv1Yow6SKIIGTRLRqd/+Q92CsLgqoEAAAAASUVORK5CYII=;" vertex="1" parent="1">
          <mxGeometry x="408" y="282" width="65" height="65" as="geometry" />
        </mxCell>
        <mxCell id="hZm13JORJEHZNlpUktbY-12" value="" style="shape=image;imageAspect=0;aspect=fixed;verticalLabelPosition=bottom;verticalAlign=top;image=data:image/png,iVBORw0KGgoAAAANSUhEUgAAAZAAAAGQCAMAAAC3Ycb+AAACvlBMVEX////9/vzY68263KeXyXeGwWJzt0hts0Bssz5utEJ3uU+JwmedzIDA367f7tXY68yl0Yt7u1OEwF+w1pnh79j5/PfB4K+HwWORxnDN5sDC4LB8u1SKw2jT6cbX68vl8d36/fms1ZRutEG63Kbk8dyEwGD0+fC93qrV6si12aDc7dFxtkbs9efz+fBxtUWVyHax15vQ6MPr9Ob+//56u1KUyHO32qLX68ry+O9ttEB/vVmezYK+3qv1+vOHwWSl0YrK5Lvm8t52uE2LxGqw15rS6MXu9umXyXi22qLb7dDx+O6Dv174+/ap04/J5Lvp8+J1uEyTx3Kv1pjU6cjv9ura7M/1+vJvtUOAvluiz4bC4LHk8duAvlqPxW2VyHWo0o7O58G22qH9/v3c7tKr1JLq9ON5ulG12Z/s9eWPxW602Z/W6sq93arw9+t8vFWczH6Zy3yFwGH0+fFwtUTO5sChz4bG4rV2uEz7/fp0t0qYynh4uU+u1paNxGvM5b6326N5ulCay33Z7M7y+O6by36ay3ut1ZR9vFek0Im/3qy426Sm0Yz2+vOIwmXV6smDv19ytkbL5b2t1ZXG4rbo8+BytkeOxWygzoTT6MX2+vT+/v6dzYHt9eh7u1TH47fx9+2UyHTd7tK526SfzoPN5r/i8Nn3+/X5/PjK5bzP58Pj8Nqu1Zf8/ft3uU602J6x15qp05DP58Lv9+uq05F1uEuczH+j0IiCv12Mw2miz4eSx3HE4bOz2J3r9OSn0o3J5Ll+vVj6/PiZynq83and7dN/vVrD4bLn8t+QxW7B36/n8uDp9OLg7tbo8+Ht9unZ7M2+3qy73Ke526V6ulHw9+y73aiWyXbe7dSBvlzS6MSq1JGYynmQxm+Tx3N+vFeezYHF4rTU6cey2J2Cvl3I47jg79es1JOhzoWy2Jy/363mr9GjAAASp0lEQVR4nO3d+aNW0xoH8BN12qdJpTTcVKKUJgkNpEQTRcaoTGkihYqGi0o0pzKLuEKRSpK4l0zdUpQ04Jpn7v0v7jmdc3LO2c/a71rPWms/a5++n1+9e+29nqXzvnvvZz1PXh4AAAAAAAAAAAAAAAAAAAAAAAAAAAAAAAAAAAAAAAAAAAAAAAAAAAAAAAAAAAAAAAAAAAAAAAAAAAAAAAAAeFDlmGOrVsuvHqWooEbNWrXrSE88TMfVrZfmUpRV//gG0rMPTcMTGkmtRrHGTaRDEJSmf5NdjiLNTpSOQjCaN5NejGJVW0hHIggtT5JeiCNanSwdjACc0lp6Gcqq2kY6HtKatJJeg/LqHeW/gU+VXoCY6m2lYyKpnXT4KUfxitSWjj3tNOm4SGkuHXmF9h2kIyOjYyfpyKvUlw6NjM7ScVc7XTo2ErpIRz3JGdLRSV/XM6WDnuQs6fCk72zpmCfrJh2ftHXvIR3yZD2lA5S2c6Qjnsu50hFKVwPpeOfUqZd0jFJ1nnS8c+stHaM09ZGOto7zpaOUnip9pYOt4wLpMKXnQulY6+knHae09JeOtKYzu0pHKiUDpCOta6B0pNIxSDrO2lpdJB2rVFwsHWd9taRjlYam0lE2cRSkmA7Olw6yiUbS4fJviHSMzVwiHS/fLpWOsKGhLaUj5tll0hE2dbl0xPy6Qjq+5q6UjplXAWw7MFVVOmY+hZc5quEq6aj5c/Uw6eByXCMdNn+ulY4tz3DpuPkyQjqyTPkNpSPnib+dayOvu76ZxzyvG6Qj58eNnsI18qYGowqHH3zz6PaezhCNkY6dD6PG+gnWuCpHTjG+lp9TRLcIxs2bW72EqvqEcie5zctJKuUmnol+SmYMqnAaT3c6kyrf29zbvQSqduw8d3g5T1TpNkzX8RKmO+MnmuxnG9CUq9OPmVd3egnTVOJMN3g5U3RX6iHz6m4vQZo2nTiVn3+LUTQi9aB51HKGlxjNpM41/e9ezhU1SztoPt3jJ0b3kCe718/JovtSDppHHTyFaBZ5Nk+/s6LZo1IOmz++9tvSmYVzPJ0tGpdy2Ly531eEbiJP5+tfSNRjbsqB86WnrwilvCDRAykHzhObVMVJD86bN2e+6r+aLcj8BWcvXLR4pMXVRJWidtMS/kPxOc0Pf4+O6qZ4imuyIEtvLPlOfsjiV9iy1KLm0WLu7JeXyRpcQa6qwYI8XOYD47hXFEWP+I1VGh7lzn3ppWWHafEY8RH9BVlU7hNth3IvqhIkMj7OnPoTFX71U7tKtBdkToWP9Ge/TT7JT5TS8yRz4u1iI/WOf0h3Qdo/VfEzK59mXlf0jPsYpanrKt60n40P9Vy8XKbugswjPvUw78KyXpZmEWvS1Z+kxvpH7HO6C0L+WuVWvznOYXhS14aVqljwPDnY6tgHNRek72Dyc8yKj5lOZHyBM+Me9HrkvRj7pOaCEO8VDxvOubpMl6V5iTPfAlVR0HgJOssFYa5I+zUuYiOC1YJCmWwefwSjuSCz16qGjP8V1JHZsjQvc2b7inK4+Mty3S/1dcoxX+VcYlbL0qzfwJhrwh/o+GYf3QXZqB70AcY1ZjWR8TXGVDeph7sk/mndBamR8K6PVbnrdcvQiNjMmOi96uFWEreY2o9O3lCP22YL4zrPtIyNiJnm8xy6RD3cm8Tn9R8u9lEPfJr5dUbRarvYSODMU3EDUmQr9XmDx+8L1UMfy7jSVtlr/PKW+SzPVg7W4W3yAJMXVP9crxz9X+aXGj1tHaCUvWM+R/UXyBWK+ihGr3AbKcuHs95pvmQfozQNNv+qLFDu0F+oOsTsnfoWZV8QThn6jJWlecN8hsq9ru8qDzHNOlH+WuWkcr3sIEyp2WY+v7dVY72nPsY4Deh9xTl6MfYwbKAyvUPF+Jp8VDFU0t5287ysFYqzcB4zZqgszQTz2alu0UcnHcRIlOuiOA9n/8pmJ8FKwwfGc5vxIT3SxsSjOJmLinsdzq6SjxyFy7vt5nOL7xU8LMc+H86CtB9Pn4pTu7bijtNALZliPLOx9Ej/znEYK7d3B32HyPgdEl3sKmR+kU85ktGVDSfnqpfJS7Z+kL7sJ8wvO9rpKmY+fWw+r1X0SLtyHcfMft9NHjbe/LqjfMVXX1AYSYH0/2i583S42xE+IY/j5M4lvL8Jxevms+pbhRpIIymYuyD0335W9ahP3UXOj5WMEjPxtNEi9XMfyN6wQ7/O4OxTaOwscp5wUv27UwOdq3EgfwcV+SDzFca1h16W5iJGv/rbqYEm6+Q88heELjXKqYE2yV3wfOAkcTSnBiJy3eMs9hiSj+LVz5UTbHcYPuf2MCZE/ubdq3WoxYKQrzP0zlrBsJDL0nByasiHpnrFnGx24R5DHUq/Kc5hq8MAOvYsZz5UUZcxeofaLMhS6lDlu8lEp7iMoUstOd3wRlIjaW4UtdqnTj0Z/IwxgYR3a9JYibLUpr0lmttKrBaELCXE60DaxGUU3bmSNZl9xEifax5rV8mBer/Eq9Q5NsyyNFU5c9nSkhhpmebBdgtCPSBgpTEGWpaGV2KGukPTbiVttyBUy3TW12ChEPvrXcOayX5ipJN0D7YsPkPlujEykosE2F9vN28m1G8d7fowlgtyOnHwAd40oj1Og+nA4OWseeQT+/XO1z7ackHqEwc3Z00jilq7Dae9hHS2JI8TQ+kXp7atl0W8zOjO7TlDlDqQxHoKFNGNID7SPtp2QajaPhqvYUhbwkpk3MWcBvF6e/1B7aNtF+Ra4uhzONMo8qrbiNo5kTsLok6FwZtU2wWh/vDzi2l1cBtTK8oifLlsi4/1vv7RtgtScCh+NOsB6WHXOw6qhS+4c+hLJK1dqH+4dRFM4hm8Rbf3mx2Hla0hVe1NC1X0wiCe1gtCfIVZFH0O5qkvs6xOoS+J0QzqcVgvyMPxo5/ibJMu8ZXbuLK1Zs+A+Jmz1iCPyHpBiPyKlf8xn0apQN4dMnJHS42Oj3aoh/7h1gtC7TPlFoksNDSMzFLu45+ILN7ewuBw6wV5izg8XrhOXxhJWhYz+Dw+mskbCesFqUHcXts0yzrecWhZ1nCK/pQ4NT7c1waHWy/IUKKSlk3D3iASS21aDBH7QkySta0XZBiRUsrZJ1KKuq9KHVE2SRuRHWCyiZ9u6GLwN6c68aTAZkGCSIafZXH9lgtCv8o+S38A5wsSQg3Zbyyu/+74cFMNDqeLHxqUvWlPvAu3WhBVZYI02UyASFR+yODwatT1HDJ4xTSNuHGw+VIPYtMhK/unBPEry+g3AtVW+xGD4w8SX8JWDXpC6ND6rcX1E9Upje77qS1+Sw2Opx5ucqpnHXGh6+gyfGlx/cSjk7kmL7VbxbMPV5ic/ztiPuxOFkUWEQOmjd34odAL8eGqGNXliLXfvMioGBlx/lE7zKZQ3gk+Imxok8X1f0+MZ7b1skKpvavNnjwTf2GW5KpWkCiElki8/ORiVGaU4a+2zmV/uX71g9nB78RPr7k1RSGEp4smv2oqyicaSZi2HKlx6uSSI8cY74cgXrruMx2jnBD27jATxot9HB+vn/EgG37c3e/+FV90LjA9sNPk+Ol/Mj59GUGU2mCVhi71c3y8zdzcQXPUtjaDHIu4MN6q32IxA+KFCDt30Nx7xNmt7gsTSpqn6BeLGSwgxmN3ojRGVWC0eKUeRS/6jrWWryxmELuPKNTEJiQmehB5clcavNKPGdbLe7C1TOJPYTlRQ30yozwHC/V/Q1ubAUMpwjjQYg7diPGsniYZoGrNt7MZkPiJIqK78e/Nv1DvmGz6fZvYS5z7e4vxPvAcZ33z+JO4jBiOU1KIgfrRO9jmwUkfz2HWZzENsgcdqzGUMar0YluL8cjXZUKYLRqLUF1Wj7MIi7ZOsY7FefwOuUWC2vfJaN9SgtrUlmf1CFwTdQuU9yt/vB/9RtjQVex51KOGs/gXp43K2NHfABzTY67nEBviVOouRhVjr1KDHxlN5H4ni5QmupKnHF7lmSKLqeH4W050kS2L+H95D670G19zl3OnQqZfjvL9T+QOag6sZsrFwms1uX6a07n8xo+NFiJlkeq2qyuhI6YYdo4vnTJejR0cHVTZtLwP+bdTxIs2ebxqbIXIjh6/s4OjgS67wGj1V4L8CS1Ou8xVRUPI4fh/P3LrR57xYu5wnRJaxkqi2tXqmELdM+dVIboRO0Lfw/HTG6j3niHozn25Q+/zsNkJlGgDsW8qj1+vJfrBZ1Ct5O74QctvSQ7HLzuSjK64kKu/khpZKz0IXesxp0T/E8m7nh2jJIrW29dxx6PSL0PBavhQ6DEiYa5QS4uXw0pv0pfOzwwIYRubEqcnShHyviAvbxujJWoO1Iv0Iuz7HiKDPyDsx6X96fGs0iIpk8hfdIa7GMrKp38hBGMBc15UGZoijJZWSQ4qeoTzHy+HsIktyRruH5kJigHv40aK0vdSxVm0SwVXFH5vyduYM1PWTzfZlptDvTMU5zApsFIe2aknLD2ZU/tGNeA+V9nX1SaqTsFOJ1Z0DQ0KtxRxdJVqxBGG23AUBii/fvl3oEQyangMKimUM1tZKKSjTfpaqT+UF8x+Khq95iWArrGrFpL984pZ7dooMky9+2869/lCtIFsURqeN7gTbKoeswunx+Bf7qXb3x5Wiz0qtZ0hRA3Zb95+Vw/a5gV23MjKdUfotBSlkX3FgnQ3d4obknoC/szdSzOzRcKoFps817mOmz/sdJqaSaNOP5aznbF+YoWe/rw2G0XOcRszr/iPTp9OHPe5Tab3JCOTH20M5v+iLiD2GoVLv+VERURt47LGv6vfPCGKln2eo+beBezrjA64i1YKJlZnT/TWHEOvGa77jP/BnNlr/ARYuoVvwFiNl4vlThnYc3nuBJHG26liWuXx/x2rElfCtd4iF5TaSVNRnVmd1S0AVj2wM+G+4whmR7bDbrENUOrYb3wi3T6Ncwed3Pu82eUzXTqtajy69rqGWsdblQjQWfDA1LSYbo5v9jKmjxl0308nb393yE37t7//dZ3N2kno0y+zWQ9ym1Hg1tlM+E/fV/ecQVeMuE50Ukbg/rSZ8q6ke3Z7e0x+PMct9HpxvrSx2L4eRZMSnmtZ62O1HNEOj5fm02q7aRNVlh1hNX4vg2o5ngmW6dKL/ZS2H8NNHiulypAJH7u9YYll1IZQW4+wW5iVUuSQZQE7X7aU872th/ivo0rNc31NKfrUevaN3PYbGM5sYF/GtLCa3hpyUB3uBkWyIUMDbv5FWYG1hTa0hv/+54jH9rv5cu/f2/5a6HLxWeKk9tXI3fbpHR3HWZWsPqKOg6CIGukkDL/+ZFcpof8v7G305SWkKmWERbPfcnbs52cJrhsyxdFVtCJa8mRNZ0exiPLrsjKbW061ee9RQa7XmVkw3l04opoHHjU8+/PzXO6unq1K0c+U4x1GJIp2LSLr+FDW7pt3p9NzR1N9xik104e6jUrUenGfnO/Lq/y+83bnW0bDKO1uz0Nln+o9/xx44jaqgGZeXvcWl5w+0y4VWOH8lAPnja/KPmMvmLNp9c4buw0asW7dupeO6fbi7o11v13q5n6DQHR/zyhvRTJSNUyxgTeL7B+xBoDogplZc6WD6cB86SA65auOTIpU+7Yzaqx0PG0F0bveIW5ZmmDkzhTOGIvE/xBQXXez7RTpkFqZkclUxWRbpYNqI/QSMxy93Ne+Sk34JWY4+PuPxWWgxAyHj4J9qRggHTlPHpIOLJe7RKTApNUPzzGi63olYZ/IKGGon5zvIIyWDi5HH+moebTWOvM8fSF1w3Nvp3R4zWWoxAwHv8uTkOTiK9nnvDKyZwWBdcNz71vpEJtZJB0v7zZLh9hIva7S8fLvv9JBNkF16q1sRm2QjrK+ELvhuWe5az9NScUaK5Gl0nHWVVc6UinhV5JO1/JAu+G594R0qPX8TzpOqeloVZYmLT2lw5SiRdLB1hFuNzwP2PXv03OWdIxS1UU63LmRLZMrr8el452LopFfpbVXOuA5zMh0iRmOutIhT5btEjMcg4NOZGwtHR4BC6WDniTzJWY4lklHXS1LrUHc+UQ67ErT9GqVVzq7pQOv4qP2Ziaw27n55a9gcPCcFN1zbbV0VCQtkI5+3BfSMZF1q3T8K+ojHRFpKxzULXXnV58tADJizHfSq/CXrcqG0keV2t4KKpl5K2uNvryZ+Ecr6cWIohoDj7oHvAn2bhL+VzL/gN+WPtnTvfYusdXoNGBFJd62xteiaa30HzgWNLvr5WekZx6uzyb8Nmtju9RsXL1iX0fpOQMAAAAAAAAAAAAAAAAAAAAAAAAAAAAAAAAAAAAAAAAAAAAAAAAAAAAAAAAAAAAAAAAAAAAAAAAAAAAAAABUWv8HF/WkH1Nv95EAAAAASUVORK5CYII=;" vertex="1" parent="1">
          <mxGeometry x="500.5" y="282" width="65" height="65" as="geometry" />
        </mxCell>
        <mxCell id="hZm13JORJEHZNlpUktbY-13" value="" style="shape=image;imageAspect=0;aspect=fixed;verticalLabelPosition=bottom;verticalAlign=top;image=data:image/png,iVBORw0KGgoAAAANSUhEUgAAARgAAAEYCAIAAAAI7H7bAAA4zUlEQVR4nOy9CZgcV3nv/b6nep3p2VeNpJGsfbMW25Il28JgA16C+QgxZnEghHwk+cBAQhISzJPwJXlyySW5ZCFwE5Y8XJJLwLlZIOwYDNhGNvKixdqX0UgjzaLZeqan16rz3qfqVFVXd1f3dM/UzHRrzu8Zy71UnTrdff513vOe97zHR0QgkUjmB1vqCkgkNwJSSBKJB0ghSSQeIIUkkXiAFJJE4gFSSBKJB0ghSSQeIIUkkXiAFJJE4gFSSBKJB0ghSSQeIIUkkXiAFJJE4gFSSBKJB0ghSSQeIIUkkXiAFJJE4gFSSBKJB0ghSSQeIIUkkXiAFJJE4gFSSBKJB0ghSSQeIIUkkXiAFJJE4gFSSBKJB0ghSSQeIIUkkXiAFJJE4gFSSBKJB0ghSSQeIIUkkXiAFJJE4gFSSBKJB0ghSSQeIIUkkXiAFJJE4gFSSBKJB0ghSSQeIIUkkXiAFJJE4gFSSBKJB0ghSSQeIIUkkXiAFJJE4gFSSBKJB0ghSSQeIIUkkXiAFJJE4gFSSBKJB0ghSSQeIIUkkXiAFJJE4gFSSBKJB0ghSSQeIIUkkXiAFJJE4gFSSBKJB0ghSSQeIIUkkXiAFJJE4gFSSBKJB0ghSSQeIIUkkXiAFJJE4gFSSBKJB0ghSSQeIIUkkXiAFJJE4gFSSBKJB0ghSSQeIIUkkXiAFJJE4gFSSBKJB0ghSSQe4FvqCkjy6bs29fNXhq5Pxo1nWPA+GS9SwVvmKwjQu6Lh4O6VzQ3BxaqyRAqpmtA4/ekXDz/x5DkAIs51cRAhCtkYEJAhHyQEJPtEQ0PGG6S/iIrPp8CH37Hn3W/YtkQfZdkhTbtqgRMdPz+qq4hrhooMSaDodtD4Y8Zz1P9h9osI4hWB8T5xjXP69NeOTUwlOdGSfqzlghRStcAQnzp8BYiT3q3o/xBDYszxZzxF68/5lv0UEAwRqhpPpLWfnxzOakyykEjTrioQ45u+a1NERheCoN18G7V25o6DHDZe0YIIr1xULp4x7EHqH5ySMlocpJCqCEMliAwoEKKOFeKZ3j+hpSKy3A9oPEbrRVsuRLRyLfSdK/RFSBYUadpVEWbTJwSmWC+IIQ7myCXrtNNFRuZLSIS65gzDTxwqx0eLhhRSlaG3fbKcCEanMzHG+s5iPG4ewDUcuISDl+3eCaMT2HcWZqYRSfZCS4UUUpUiOhMCxOuDrO8sTEfNNzSVXTrHLvcZLgldOTg2zC6dw+iE8+ylqfQyRo6Rqgjh8Iac2VZCVQVNQ66Z4iCO6TQ5TmGqahyjWrNM9oytlNPiIXukasJUD1pzrYhZH0P23ezB6PAoiBkmcr4mDb3FQwqpirD0Q9Z/ZGlITCyJXsY6yPlEHEIE1muyM1pkpJCqDTcJGD2THeMA9oNs72NbhY53JYuIFFK1IaaJhE6EaZedh0XI00ieFZcrLskiIoVUZWRNOecTdMwIZR8SUTaa1fIukDTrlgIppKokp1tBQHI12xBzPQ8ke6QlQwqpmkBLJS79ku3PdujEsbrCMbiSzoYlQAqpiqC8x2i9RtZCI2HZEdkGHukdEaHpwcsWIHulRUZOyFYThkayVpwxs0pdK7VgiJpazBf8fm3DFkBmGXbEO1eQ4qOWttySJIuKFFIVgbYLW6x2Nfof3t4FHd3AOYoXmEJrNkJ2SomotQPauohrTqsQZae0uEghVQWiI8p2I7psDMQyCiI7Etx4nVtyMWIg9AM0c0W6OWsrO6TFRgrJGthzymh86SpBPp/CuSWAZAKvDxoL+/JX9s1WDleuXkLSCJhcGruYLHchiXv80y9f/duvHZmaSVsTM+gwkajI0lTni7OuXc0r0H4xG2PKGLs+HrffUI69QHX1+lgIzN7K6Jyo4ERH7hMCVNOQTIKiSBEtMstdSJPTqT//0uHvPz+QSqvZV3Na+GxF5AQekMtbYnbHXOjqJijrYNK4KRv9X4aJeN78aoE80Fy8lC0WQWG5Qa6SxWC5C+mv/+XIN5/t55pm+ciICm74UPA05y3MPdwazuT1O4Xkt3ZEMhbCWjFCRCKU2+383OWy+QWVpX+JpyxfIYmUcc+fGEESQyMEVYVAUCxisEPc0GHc5TROO11CJi2WMGQL1jgGgk7VgSMLnWt+RzJWGaHPl33VKCTPvgSrSkg5dcjqiHPQVGBMdkeLzPIVEiKqKo/F0yLzG/n8fOdeamwBlt8GSyUSIYB0ip0+ipPjaAxieFMr37aL/MHKxvqccGocTx3T5WS47/iOW6i9Cyr1GHDOLl/ES+eX1tewDFOvLF8hWUt4ROgAUecK6lgBmmbO5pAzSsDNVLI7CL+fVq9jE2OmN2D1TVQXQXIbLBU+tlGId/QooyN4tR+AQShE3auK1ruE5aYQ712vXL6IS2TbEcB4NPnxzz3/lns33H3LyuWjqGUtJHAs4iFhDtlzooxlo3Bc77AOe4uYkj2CMbSLdQoSHadhXilWTlXGzNeQOeuWJ2zAQq8Ggr0IUNiZSzGVRASc6Pc//cxzr4z88IWB1+1d9bH37O1srVsOWlr2sXbkyLxjCodgYhSvXASumeObRAIvX4DJcWsNA8HINRzoB00lKwTOxRzUVBy4hMNXs41+chwvn4dE3DyCazjQh+PXzSnX7JKInPBT/ax+x1mahtcu4+BA9rDohG7LxWN2Oq+F+aZmQXwRX/v+mWePDWuaClz94QtX3/nxHzz/yuBycHwseyE5vWdWMjil7xw7dQzSabN5TI4pp46ygUt2Z6CcP62cPAKppGXfFTYVglRSOXmEnT9thxqwgT7l9DGcuG5eNZ1WTh9lF8+C5e3IydQgEtwBWmeNmmdl0kaxJ8215oBs8Ipy5hiOjeR+jCXgxZPDf/3VY0gamDcK9cpQ9L1/9tRjn/xx/+DUjS2n5S4kMzV23kpThoiY61BmOeN+hoYZhoVrVnPKQZbjukCjHOeacXEAFZRDuYWYV8dsIWi62imv2CVqrQQwPZP+yKeficXTZrYJRTGykIOmqj86fPmxv3w6mVI1fsOqabkLyXI2WN1GzkKgQhwpEuwBVHYBkOOk/PNztZZ3cJ4QXbc+co2sqKYJo2890zc4liKjd6VwvXb73dqa9WL0CAAXBiYe/+yhmUTmRpXScheSDRZLHlJCHfmeOPfkIy4tp7ALo9wnBUEP2bVJua9Xw3pYAkim1C9+4ySCCsZOGNrGbRCuo43btb0HeSis3640/v3n+t/w4W8ePjG0dBGNC8iyF1LudIszyYj12OkHd+9GsKCcnPLIXgbufDlXGWiWTpAbQFELENHLZ0aujc7ovRHn1N4ObZ3me3X1fNc+UnzGFBcfm5z5+OcPqxntxtu1adkLyXTD5cYHmEu60flaweNi/Vb+AeYozHkE5knGXCqOebZaaS9cjjFa9JCFhhsjyu8e6gdurNZVfHzDdmPywHgbEeoatNvv5g2NAMQ1ujwY/cy/HrvxQtOXvZBcndeYHfvkQk4neV4hjpw+eaMaU5fZx9knlPXAF0byZU08N0WgIyVrQSUBYHH8dwhweWjqe4cuixyWvKsHmlqs0FvriFCY7znAwxEjmJF//j9P/OkXn0+mtYWv3eIhheQeKp1/xywY/hSahOjcHK9QnU6rMTsn62IVomPJRWFEal6B+WMkdHltofnq989OJ4zYeVWlrp7s+sNsrRD8fr51J6mquE199cn+n740sKi1XGCWvZDyhy7mg3wb3t1IoqJvUkHHgLledmcvVdj/YbEqFn8ZHVVZrAGIERCU+ObTfcS53iNHGqCxOf+7s/yi0NTKd+whQE5EWvLv//2VVObG6ZSWvZDcjCdSFCOA2vIHMGb+Wfab2LDV7kqsvR9yjTmGpDBiihXTh8AYofEvWYYZMv1ajvZPYh7WWZK4EDK7SzOqZ+xEJtIJWQcs/JeVDwIcPjk8OqWiPlYCvn4L+ANmzKE9reCYqaOVa/n6zfq7HE5fmvja98/eMD6H5R5r55yJJTPWjvEtOyGdAn/QtLPau7R9r6JQ2J7A5TffhsQhVGeJzW4sdnACQqhO23e33cQRiK/fgivXUH0DiosFgtq+gxAIAlNstwYWmIV8/RYSZ4nr+IPa3oPGNU3l0NqNWtdKqo/kfKpFaaEEcPz8KJBGgBTwU3sXZD8/5FuZusA4rVpLl86jpgHw//NU37t+YatYz7IY1V1IlnuPlG/Oi/YXCEKkMdsMFIUam/UXberqKdLo6JFcnQEIkQjU1WdfCQT1cowuyJy3ijRaxRZv+IEgNYmzrMiG+gjUOWTjCxgH+PI/xaJwpj8qOh6qi5A/MNu1kRQf7+kFY8/pC1fGv/ztUzeAim4EIc23zdhh2iIqtPwdHayRgG6tJWay5yTiWSurgsoZnUgyIdx/kEmD5hg/5M3QllqjgZBOItfAUYM5z9mUPk+vZkY7d2XStDBb2t3dK7kgEa3dwMN1QMSJf+orx85dnrwBDLwaNu3sdawzSZXzuUyXqxq3WxkbG4FL53hnj7mWoexKYCLG+i+YZzFkly/yxiZy9hjlwDmOXGOjw6Zxl06z/vN89Vrn6ovyytGUC6ftZ6k0T6bUjMrn4McL+JWgXylxAAFFY+mJqSQIVdU35Pnr3K+Juk1LG7bCsReQMK3yZ49e29jbXHH9qgykmp1jjiUyX//Jhe8eujIwEnOuuKZcD1YJiOj6xIy1nZfhEtDHypaQkKx4BOFiw3xDUHgG1Azk5R5CJJ/fjit1TBCRtVLIWpVE1jiC8+ySdbuv0y0lEdFqXZoczj5nWhX76pyjplq7oEOkLhipDxqOjpz2TUUeOI9hCm6/qeUd923at72bFawaNtbC09n+8Td/5Ftg3AjUvQehsbks57uxZkR5/seYiDOEO3av+tzj99S6eVerPZLG6bf/6ulDx4a5lhGvuE4HiebmfMsQh2MeUzRuc/oFjVY4Cy6r/NBs73a4gq6ukme6FCKWEpK9jA9FIVjs+GKVc8wlzSRS8XiaHLNRVHCvcd508i4xODL15OGB9z988/vfsrPwUggwGk0yxcc1Va9zMORSRDEUhXevVC6eJcAXTw5PTiebIiE3tdYMNTlG0jj1XY0+e3RQ0zIciNtxPuJeZ/herX/M/4TjmhOZyebthXSY51Yia09J6wBrx0l7CSrmvCUeOJx/aK+bzSvEmloSu5Hb72Z3NnJmUDHzetuFYE41Cv+s1/MmgsnYEMZaEGV9L9aXZH9Q60KU/b95EiP+rz88n85ohYYLY5hIqmbJTAFFKVdFiMA5tHaAEXKXysCla9M1E1lYhJrskRDwTP+EyNerf/8+P2/v1K0pR+BArgmWbencvuFnMhibxpkpywYjqqvnTa1irbilBqSccFO0Rv5oJqojwsQMToyZDV1vtIxa2gxnXdYUs4RlpyQq6Bg4x+g4zsTs5F4UjvCWNkBmG4iU7fVceinzXS2DYyOYyYB9Z6mLUFOLuXrKrWdz6Yv0DxWDiTG9wQONjM8MjcVXdUUKjbZkWrP9/QDZhVXlQOEIKYrxNfLzVyZ2b+qwNxDITozn3usq65wXl5oUEmOQjdQi0nbeqt/eHK4t5+74WdMFc0IICJC0jO9nP4JMWh+ktLTzWw4AQGF4AHfmrrPI/tiIePGMcvG0Prgiztdt5uu2Wim+IC/JJDkHNYWf6+VDbGIMjJRG2m13ghgjOT5SqZu2mbUBcWrCd/hpYa/y1k6++/acL6XI1fNfQ8QLp5W+s2IkN5Nws1Sd2fuEiMpv4EbQENTVQTxOXHvx9Midu3qujc6MjMfHp5KT06nJ6VQqrWU0/S7m97G6sK+tKdTRXNfaFOztbmxrCjXUBVwTmy0VNSmkvLsU1TcgN2f1KG+O1XiQ7QtyIFR8EArrQxHOIdKgC1TTCp0EtpFVZKkEQUNTVjGRJltF7kOGYmpARvUNMD4q/FpgdLDFzypoP6YbgkO4npiChsFL9ZHshyJwiYLL+yD2J9Q/VKN5fHF9+Hy2o5+c8bNlzbEyRsEwJuLA4ZtP9339JxeR+dFI0Ww4xrXsZxbLlVFBphDnCmq93ZF927veft/mTb0t+k2QCnOoLTa1KiQTR+Am2kMRK12j3go4Bzspj/iBicwgf5d2CLZBpB+WexaiY/zBeW5SyCI/Iyczxsc0zshsYjnVE546/Y7uPmDN/VCiWP1w2+gDR7GFM0wOOymnfedWBgoNqeKBhPZ3EA74zEEh50auGJ84vYSKsl88EQRD4pvUNEPlPAPuYRkkfgKiDBCoAH3XpvsGY9/46aX1q1v2bWt/+J6Na3oaK5gkWABqXEimwWMNY8ZGfCdf5t2radN2Mb5hR3+OsSnttoMQCum/b3RcOfYC37aL2rvB4RQQEuHiAefszHEcG9H23Q1+v97URkeUUy/znl6+YZsYlrGjz2M8rt16BwVDxlCtoLWRkfzkxZ9RuI7v2S9aFl44xa5d1rbugo4Ven+YTiuHn6aWdr5lZ27Tyw1Z1c+6YpzVLeZqlZcOkc/Hb73DSN4A2HeOXenTNm0H11R4plHK2YmXMBrV9h7UbSpEvD7ETh/lK9fS+i2iwuzlQ5hKabcegEBo9nuE0fBbGoNibTloHDLpnOCP4r9YtgTh6HPECHOmgE8Bxaf/2dGMnIBrpKmQyQBXdeuD6XeWeFJ75dzw8fMj//ydszs3dLz1desfuOsmWKLeqcaFlGfLqSqmUphOcmu3IUwnMZkAkdcGxQFJ/Sd3JBG2rb5sOamEfph+ll8XgJbRi02lUZxFgCmjWGsXI5chtq5LTT/Gnt5FwLRRiJqxrDCuXyUZh4L4OkdtUD8rnRJniW5NN4cCAfvTY8Y4IJOZJTgnEYdUAmyzM5PGdBrTyex8ViqJiQS4JFUoMrPKWFtTmCFx4ehIJijSWLIKLkWAqlIgSO2t0NDEI43Q2KzbtLqcfFZyP+NOxzVQM6CqEI/h6DCbGIXpKRThxUTpdOal04MvnB5JpNSH7924JJZezQrJ4RBwmvbZvVYd/nDrTbIPcN9oAh2FU65jgcjhv3CUVqJ6hStYyRkjbrnCnR/HfuLw7jk+gmW6OV4xDyJybe2UX6XcClNuV0qFq0fyrMN82pv1QX80ltKfxKahvVu4Zoodn1+9rh61tR3CdeQPoMJyfhXiYEWrCGNRF5jfD6EwtXRoXBVbSOHoCE5HgXNjayv1E//r5dOXJn7jzTd3tITLrINX1OQ8EtiN3jK3Hf9mXykYMeRHr+SNBvILL4AK51PLbjOzvIu59SRnRbCsQtzedO/kSlB4BBVLR6Hf9etC/o1rWkWOWBy/To6bU1kRM/URaG6BQBDtpenkqAo6/sDxLgIoCtRHaO0mvvegduAebcVq8U4imfzKDy49/8rg7Jf2mpoVUhbMadR5EZwlyWmuBQ9LnZErVYL87sqtkrO9WxilMztU4fHFTy8GljqMALaubSajFWEsqluqdkR8yS+f8gRTcQ0xO8ANhmjrLgiFgRsTylry1q1ds34sz6l5IWGed8m0iKxv2aJQMy53zFny2lFBe8/O8dhGlrNmOUe6zkG5vVtwbybXEkWNyg0HoPyquxbo/p0U1ygC3La1C1BBI9AWhwbK64nKn3Eq5f3LMn4dp6eAITLfg3es7W6vL7N0D6llIbn+YrnG0CynFnQCdht2M6dKGnNU8rqF3vac4zHX2UC5RmeRnSUo18tRKBXKMZSK4ziq8m7twM4VG1bWk2GAKedPQTy2OBthZH3oAOzcSX34BNDdGv6j996+CFcvpJaF5MQ9NiV/UOR8ikYYmo09nM87uGTTyrUJqfhpBXsqu1g+JQY5rpVw/cC5VS9vjFTwLcxaLQd1If973rjd9AdwjsPXsvNvpc/0BESYGGXTUfHk9ftXNUVmd8EvBDUvJHvDysJOxt1OyT7Jb9xFjyx6VAWas/aIodzns1xvNgrnryo5ulwjrOTgD+H+O9ZuXtOKRrACGxyAVNJ8q4zi5wURaBo7f1psPh0K+h957SY+l7VXHlDLQnI4F9Bt9IP2TF92hGRFghf8znntOtdksv3mztFN1pdNhW5DWzaWgLIN0rHfEjmjwp3dZ76Jlr9E1nrFCtuFwkIKyRtRkTEnluedL/wmZollQ2MJ4G/84nbhbMREXHn5EKRTC98hESRmlOd+zKYnjRkp36+9cetNPU0VLcv0kFoWkgE581+LuTx/wHyKCP4A+QJmmgQAUnzk84M/WCgiRzM2lnAqPkJr67G8Yo0LkT+gv+g0BXO7OGAKBQLWWYbzK2DUxO831c+YXk4wVLKjIzDqTz6fJRWkQNBI1mM+I71ABRQ/FKrAKk3XWTCsH2lvL2t8KL1KSNnvKhCwDqDstzEbCHDP3tU9HRHGUB/xT0/hQN/Cd0ionDqG6QQgMqb0dIR+9aFtSxgjVLMTsgIy14Ka4d6tHXTXa/UmYk1Qarv2EScMBEwTpalVu+u1YOXocLjyHHd2RG3zTtiwDfXDjFbW1qkefJ1oqUbUG2q79+lHGgdkS8jb3zIY0g68xq4nAPB1W2jNejJkrBfjD+gHiFgYctTH6mZE0dr6LXztelOQRnPX9t0NdhYhAlqzQV25xop1cPOk6BdjfPse0DQjFtYQSke3an5X5lHanv36/7IfSpxbLFYXnEIdiyY7mkNXR6b0J4yxK5e07tXOxC9u/dpc47bFb3DpLE6OibHm6q76z3/s3nDIv3Q6qnUhiUUBRtiLEY1qrNNEx4/k82P2tqrfL8W+5UI06Nwi0rl1n89nLFMz3drGWSHzguIgu58xV487MkbYxqQI4nY0F/Qp4FMQ7BohBIPOaWG0lwly29WOqCh2ZcwaBHIDw41icxul1cc6h2SKT/9c9mGMmWtabQJ25+kIMbCT+1kRjfbtIpPRLg9N/+SlgWeODh87NxJPqtm5HfPO5fyh3H68uTEdVc4cx6lJ4bJpb4587vF7V3U2LG0yohoQUt7OBeJ+5Nyalc3EKFSXfe6k8NvNOuYYqBkr1A1xOirupm4nFvoEHc2aMZiazO76Oh2FFashm8entDsCnZfD2JTZc6ZToKpmy3ZpIMW9cUZKIzuonMWmNYAi6VxKuAJRt1r1D4W2k92ZtqF/cOp7hy79+MWrJ/smMhogaWQvktdUamnXdtwCIa+DdETYfjymvPyckSbJWFzBgo+/+5bV3Q1LKiKA6k9+omp8PJocHJuJxXPWlj179NqXvnXayJQLPBymnl7nAh73RaR5ZDI4NcFGh+1VDLpl2NpRWRYhAIjH2OAVFNmziMjno+7VVF8POT3jbHCO46M4PoJWkhPe2kHtXcXMqqLFappemZlp+0Te1kkt7WV+KLLDk2am2eCAndbrA2/d7WM4PBHvuzY9MpEcGZuJJTKIyHl2eSUhQkMTX7mGulbag1IPIKte6RQODbDLfZhKCIuuqz3y+K/ceu/ta5Z8MVJVC4mIEin1E186/O1nL8WTGorBtLXsjpNmbZZstCnOLfdXnoVT+B3bq8jRXCDtmP3U9ZBVYe7woFjZjj0w7arDLOnBcqd8xQpt0fic9wA+h9TYCEqBZuwUeeWPSuwPJew7/csnIg2JGENuGwki+4KqUX0937yDOlYUTKjND/ETMAWmJ5VjhzE2Lb4lhSEy5Z//5HW7NnbIFbKzcOj40F995eUTF8fN3RS1NOa4jk3MUcU8vZ7CXjRcbTm6cj/Y+BfBZShuT+uy/EwgZjYjLIibcLrF8wwut/u6eZR9sGtpmFugXZlyDs47TBzDMyQyeuuqtJIBKj4KhXlbB7V1QIOdibaC6G8X8hYXaiqMXWcj1/TuWs2YGc8BN/S2feAtO3Zu7CjpCllUqrFHIoDPPHHss/92HLhqruM0PQNg/crWw4JMIsU7EbJsLcptOVndWKk7XBspuDW6wvxahWpwnk9YhslZrOYVurlK9sYVnGjYbIrhffH5KVwHoTqqr6fGFgjXkc+f87OUeZlizV/v3DL6X3wGJ0ZxahJnpjGdtu1SxpTu9rrfecfuB++8iVfZ1E019khjk4l/+I9juvlmpJ6ntg7e0wvBMKBbG3a+4qTEK8WySJbOmFgYAeR6TJ4T3PUV12JLJG7MK6cc66mig0vUB/XuHvx+8Af0UaiYW+P5m3TmCaeUihDYxbOQjBtTfMa8Fud6b5NOYSoJsRgmE3rhzNgQxFiozxCJ0O9X7j+w+sOP3tLZWkdE1bbnXzUK6Rs/vahpIjEB8C03U88aMu5JtrOuhI7ybo+lb42luo88sNjaOfeDKxwmuFiIhf1R0ZMr72UqP9t+qOUrqDIIVI5XLqGadsRMOMpHNFz5WcOZIba3hG/f0f3OBzbfvKE9e1iVUY1C+u5zA2Tst0NtnXzVTZi7sNSch7FdBm533jItoQp+jfJVNOswwa1aJVZgzHrdcipW8hh7/rccUc2zBSOMDWMm5fDQZH9AtDKxIPDu9oY1Kxp3rm95zd7Vm9e0BEpmIa8GqlFI/dcmjVEtp7ZOMeqxR3LZRKaFQ5uCH3nJkp55Jt/Fw55cW0CIwOdjw4PmmEfve5hupDGmMAwElLbG0KY1LRtWNe/a2H7L1s76kD+br2lha+YB1SikmWQajOSj5POBHZGaDXzBXHeXizPMpsIfoEpcqUvCwn12x3xDIoGTY0Z4E96zd/VH3nmrqnFdRX4lHPT5fSwc9Ik0Y2ZSJ6x4Vm+pqEYh+RhTNSPjmuFvsDZTcEbHgTUDn/9KTg/l5iAoSSnP9wJ5WqtGuwtXC/tbJXb2OCaTqDBA37se3LKqICLB+bQaplnLpxr17lOYnfXdWH7n3N27YH0M5a8ryhtg2H8V4Hb0Ao1va6q1zAMiSMywwQHQVaRsXt2we1MHy/2BavqrqEYh+Y38nWhMyZOZj8ZKVFq4PgbtrsjDGXXJPCn4KRCNxbNohATj+96y01/1/oOKqEYhiVEmMYRMRtyqxBIFcw9jizzn9VxuaVJ5c6Gcbw3zT+GcXe0XI55927ted3tvTfc/hVSlkMLGeiFkoKlWp2/sDkZ5Dhzb/0BzFIUXP+byE2Pl3xoBTEeNmVZg6HvgwJoFqdeSUo1CqgsHzHGRSMOL2f8oNyGaM2Koop83mzd13hbhrLOls1dmloO8lOriyD5/3Yui4OAVEc0YDLI7dq5wyYtc41Sj164pEjCi8hlm0maEPohF1SA2F3POt86tU0GXRwtCWbOlRaIDKynDy/p4fBVEmJpgQ1cNc4Ldv793xVLknVtoqrFHigTFImoCNSMmvEXfI+KPHYOiudzWyj9nSW6aN9jIAYTX+/wpVFVDR4EH7lxzw/VGUKVCam4w8wpAJmMm/bH2UEUsGj1DUFbjL7+lLkqbrpVG5VzpUdF5BNEJvD4MTJfRzesit27pvAFvFtUppJWdETNeIZ0SMeCOvbDyxzS5E7KVRzJ4dFAlFy1nlrjoRWerjev7c5NBYT0rX7SHyC6eQWNhVVtj6K8+fHddyF9hNWqDahRSe1MYxRIuriHnSNmg/UK1zOv2Vmbgt7daqnhmt2g8q9uRru/j7KcWPaucF/PqYD8kSCVxckw8O7hnxYr2+lrpgiulKoXUHDb7IE0DNU0FAfd5P0ah16vw16IS75XNnHqDuYHFSqS5XK6iis3zU1g1N3KV4OAVsfQFGXvzazZUTTyU91SjkFZ01BPXUOx5mEygMY1kL+K23Axi0GSHreZQuEnDbG4699ZDznPyYpFcKJiFnDfFljaQy+VKdBcVtd7Cg0vKuVgpiDAzzfovCG/R/h3dt27tulFVVKVCam8KB/xGyCJDTMQB0W2LsJz4rAIlVXpN9xNcY5HmWeY8C5mbleZtHcq6PhE7cxzVDCKgEnzktRtmnS+raapRSJE6f0tj2FzlFZ8hsRwJwblXI+Uu9UPnHGvpO+a8f80y3YOFx5R95flU0fPGWm6B+ZOwo8Ns9LqYO9raW3/nzp7SW4/VOtUoJM5hY6+xoSIynJp05CbMDpTQcuVR7qq+nCeujWDev2bZ7sH8xRyL0I4KFvLOX1fl1jpnVpk4O39KJAbraa//nx+9N1IfmHdNqppqFBIgdLcEVCP3CSbjoGnGyli0woKwmP94QWMC5sGC2ISuEinyDSyyTYUwMcZmpoX3+6G71nY0L/bWyItPNQqJIWzsbWaKX7+1pZKYTpG5xtx5ay/dOMj5gNzfKlYEOdyDFSYxcSu1mClYsnBPZpbzFz2Wffw8EFvo9V8QdkRd2P/mezbwijJe1CbVKCROsGN9G6Ki1y+TweuDgHYv5No4CluAc3VF3q9oT+4W+3XRYSjOYUGgq3vAZTIKXZyLWRyft9h06qzTrJ71hMWvkT8TAUTs5BE2MQpGts13PrBpdVdDba11nRvVKCRE6O1u9EFaPMHRYTQzAGMRx8+cfqhZTqrg9owAIYSw8VfwhZbqFrD4tRzDwtKOusVopMWvkfcO4sQoG7gk0kHXB9nbXr/5RnbVOahKIQE0NwT3bO5EphAijo1SJmNYdnbeXJdJWfv+PPuUpaudlf+grAbKAFIEKYDWCFvVqnQ0MpVBlBPLm4MqUZn8a1HZVy8suXBNyELF6Lp9hQScsO+csXkM1AUDn3jszq7WumXQG0GVLqMwJsLx3Q9t+/nJH+s9UjqFUxPQ1ikMPHS9QSOiSxssYbsVe6mC3x0BwmH83Z2h+9b5Vzb6FAYc4HpMO3xV/dTLif5xXrFpWFCB2UIBnEtJSqdRmnV7gTkYsc7yjO1cjx9m0XFj3o+956Etr93XW1GZNU019kiiWvt3dLc2hvUfzO/HyXFra67CcKDs/diDBBplzP3Ycp0k+KcHIu+9Jbyq0SeGAQygs155w+bgV97QEApgYN5RgViyJrkOzNLll1bRvEHEoQE2OgKIDLEu5HvH/Zv5DT0Dm0eVCokThIK+jb3Nwp7DyXFrRhYhuwWyARbtTNzdYqV/XfdAgryX9EpEOb3v5uDNXX4CUDXtuaMD//Ld06f7xkR1uiPKxw6EhzLk3fdbRuyFV1TS/kl8pZkM6z8vts8gZO+4b1NLY6ja0nMvKFUqJHGDf9WeFYiK3s9MTWLGyBaN2c0oHJOuBI4VFo5RTsEPWSo5XfnNB9NEa5qV37otzAHGJxOP/skP3v7xJ9/xiWcmp5J2KW/ZEvrQ9uCk5lrsnEcynlBhzKBFkT6RAJmRsC4hJo4eOLD6N3/pZg+qWVNUqZCMyG++c0M7MkZEqKkQmzK9yHm/p+3eQnSkBC8Cuk5Qlj++N0lyeGxLoCnMuEaf+ZcXfnZ0qD7IghE2OBa3S/Er8PCOoF9xFe68xidLhXstGcNr/WIlucJw/eqWT37w4I266KgEVepsEP6GLWtb6oJshiMBw7Fh3tpupIIW75udi4iDdjPvimnKdZztcnCJHRyI4bYuHxCMTcY/+6P+tiBygvX1vj/+30fSGe3iSPxNd/RuXd/eFVHaQ5hIznGsML9tJhYFIhgfZaePiWec2Psf3s6Ww7RRAdXbIzHEcMh/566VRmNBNjKInKOzBxL/A3ANVaWi0TEuPzO5Te+6+a3NvouAfMbbmsaTqvk+J0hPJT76uecf//yL0VhSVHG277fQ7V6youUe41rsLHKuXO0E6aRy4iXDC4SNkfDf/d6r7j+wdjnKqJqFJEZKB3d3gy+ICBifwbFhcsup7robBULha0VxD31weW4+ZATnxzQAaGupe/utneOZrJIbfAiRQO+KJk4wmeDT6TKdG942P9diZ7lEZTUgAuZjF85gJiWGRm+5d909e1cvIz9dLlUtJAK4ZUuXn1mbz/ed1QdLVGypREU/4qyheqUOCAJ87kw6rlLQr/z+e/b3djcmVc4AVM4zpHzzD+7s7mgggG+fSUczNGskT4kqLc6iiIqvYvwe+s8xfFUMTrvb6n71oW2cz7r28YalGveQdWLsJ3vks/92gmsqqqq6Zz90dAuzrmBbvmJ7HRcruPwfPf9gBjCp0Uf3h3/rtjoAmIqlvv6TC0euRNe0hh5+9YaezgYO8OSF1Ju+E+tVsGBr8hpbcO1aXXb2BLtsRKYitjXXf+Yjr9ppb6e3LKl2IQFAIqXe+77/mJhKACJv7+Q795Wx1nLWifz5oiCkEZ5+W9PKJoXz7DY+YuPbmQzc89XJRJwSVML/MbdaLZQOyy6XYDrqe/5pYCJzqv8f//De3ZtvzCRb5VPVpp3YRTIc9N21u0fMFOH4mEh2V2zBQhGFYeH4u9JcxXkuB5VA0eDt34k9eSEVS3NOIP5SKh25pr7nu9MjMW6oiAouVenqhrxaLFSLLbfcRIKdOGLO9CF+8JGde5a9imqjR+IEx89ff/vHvkfEgUjbuJ3WrBdbInq9+VdlPQYZswcTnBqCuKdVCYdYOkOnx7WhGd5kWHRYWbGzX25p2qvDhsbr19iJl5G4kRfI9+j9mx7/1duWpFLVRvXOI9kwhF0bO9asaLoyNKlxYIOXtbUbzOAGj1tWZfOkCKABNDJUMnB+ROOgiWDwhhwVlV+sp141DzFVZMQBnToqvnim+PZtbf/wO3bX2IBvwah2005AAA/esVoTkWuxabx8MSdCaKnRAGIEcdL/Vcs8pxrqXT4EuopeeRFVVQQ/3r17xad/79WBoE+qSFAbQgKAX35wy8qOOiO2GNmpozA5LlwODg9dSSN1zg2XDONXUyuygWdvXjXUAA2LTjn0QzYxCoiMKbfv6P6LD91VFw7UTOtZeGrjq0CApkjo/3/v7aI1o88nfK95R5WMsiv/avYqbzP8SLlwUjn0lHLx9Fyq7g3leCkXjGScnTiCxqAUmdLZEvzE++8Ih/zLMhKoKLUhJDFSumt3j3Df6dbF6DDEZ8Ax2+mp08Eolmt4fYi9dIj1n8d0Ei+dh2S80sBtjxp46Q+3MOMU8SVMRdmxn6Ph5kHEfds6v/pnD3a21ksV5VEDzgYbTvSRd97y81MjmVQGgNipo/yWA2ZicPfftWDOtjRk7lULyTgOX2NXLmIqacw5MgVhTMMIMsovC90v6PJ2pc29/OPLmYCu8GIiGdC5E+zyRdHTM8V3956ev/jgnbIvcqVmeiQRxrp+dcsdN/cwhkDIxq7jlQuArHjjKTuSTdx9FR+oKjt7zPfsk8r5k5hJA9MlNJnmr0Tpl9+0dzIQMvztxVMjeGRczul4KMx5XsESq7zzFB9euSgydxtLJXz7trb/9w9Ii64otdQjCQPv/33jlmePXtN4Bhiysye1SBM0t5lBQ+VOKznWzooTMmkcG8HREYyOQzIhRl8+BuMpHgn6H/ulHe+8b2Nra+TQE9GJaZ4ktFa8F06t5tzZvTa53Mor1T/O6epEkE6xC0dxaMDojYEAH71/0+88uscfUGrpvru41MCEbB4EcPjE0Af/8ploLK4/9Qe0/XeDP+S26K/wXKNhcA5qBmam9WH06HWMRSERtyd3fQxUlSYzdOvWrne9dv2rb1vV2VInmuvx4cwbvz7t0yqbByYouqmEh1rzoCBjrSuMjSgnXkI1I9ZKBgPKh966690PbZfzRaWpPSFx0vulP//S4S9/+7QRFk68oQnaOykYproIhMLg8+tdivDpibXnxEFVIZnAxAxGxzE6CbFp3XJDBJ/PEBcZEkIf0JHh1K51zX/46K43vnqjX8kPnnjmUvrN3441l79/ba00QLHT9UAfO3vCXOiFYESj3n3zhvaa+ARLS+0JSfzoo5OJhz/6ndGJGc65yKgmNj4AhrrlpfhFBndjOMOBc3P9hUg0idmwCJ+RgS6W4UkVVnfWbVnX8d4HNu7c3NlUPOn7f/vZzBdeTjLvUnsUaq1C9c1PrOJWkUmzU0fZyJAIokNkPR31f/3hg9vWteNckootO2pSSKLtvHBi6P/75E/jiRQnbv/WzHjEcwctzNgRXYAEKqeJJNcf+tnWnobeVS37t3fcd+vKlZ2NQf/so4C0Br/+nakfX84EsFTO4SK1np9kvEV015k0Xu1nV/rMLhqgubHukXvX/8obtrY2hpasbrVGrQpJ3El/duzae//sh5D9DHR6LAMM19azsIIKAidKcxhM8ZmU4WBQCfy+zTc1Pryz9a69a9f2NK5b1RLQeyVRRrlb+AxNa7c/MRVMORScVzePFkLN8YyySiXd+k2nlRefwdi0sISFq/8Lj79m/80rhAktKZNaFpLx7xf+85VPfeWIbr8BxDm898FNO9a2XBpNRtM8muFhBVtCSk+Dv70p5Av6WxtDK9rqAkF/Y918PVD9k9pbvzM9Mcm1nGWFS8DclEmZNBu6yq5cNPdENOy5mzd2vv+Xth+8ZVVtxTBVAzUsJNu8f/SPfnDk9CAnUABOXEv95LO/8KpdPcVPISi/6ynJ+VF1/9emOhVI19C2JUSgKJBMKC8dwumoSOmoMOSgPHrfho+9Z5/siOZGbQtJ0D849ZG/e+74uREi7meQYf4vfuw1+7d14cKn+vziscRHnkm0AbjaeDRbZEMZnUmFwRmlSjLuOokZvHaFDV7BVNLqiFh3e+SdD2x89IGtwsqVzIEbQUiiiX36iWOf/dejaOzsN63BPbet/eP37FnT1bDQV78yqX3gqdjRQdWHxfLjkbEVkkgMklXFQtiCbpc3uktOEJvCgUtsaEB49BEAFV9bU/C337broVetUxTZD82LG0FI9t32sb/48Y9euAakAkAdg7Q/9IO/fairJbyg5goRTCb5PV+NYoqmC0LxSpy3EMMQl5A5RYF0mp18mQ0OmJNmRrAVoW//9vY/+c0DPR0R9H6J5LLjBhGSaEPR6dQ/fuPE1568MBVLAIBG1Ngcef+bt7/p4E0tDcEF9QacG1P/4KczhwbVBnQ63wvriHYftRDVsBJYGjEKQDA5zoav4vVhTMaFX87YckXZuKrpg2/d+erbVss5Iq+4cYQk4ASXrkV/92+eOXN5irQMIqRUHggF3/fIzkdeva6jObyg7ebJi6nf+tFMKg1YfuiDZ5A1Z0YwPYnXB9noMExPodCPEb8d9LOHDt70prvX7djQ7vcx51wb5KV+llTIjSYkoaVYPP3xfzj0veevIqmcQGEwFlOHwP/PH9j7ttdvURhwogXyRJwayfzif8WiCd6gVDpdO1fELyhCoqYm2eULePUyKor+irHHoT5CY/71PXV/+Gv79m3v1jg5B0QLnrhseXADCkkk8WIA3zvU/8l/emloPMm1DDPScI8mtN2bOt94cO29t/ZsWNWyQAOniQT/wpHk3x9J+o12ycs6qawGTM7MRObuhQhaBhIzOHYdh67izDRaWfaMXsinML5324p3v2HL/h3dfp9S2O1MTqe+8r3TGZWI84ZI8G2v21QfXnZ7ScyfG1NIAgKIJzLPHLn2xA/PHzo+SEQIpCCkMhTL0Pb1bb0rm9/9+vXbb2ptioTM0Dzv8nv1jaufOp566nxqJkUhxHKTohTF2l7N2OcYVRViUzg5jhNjGB3DtGFNGvtAGPadT0G+a1PXW+5df3B3T3NjqNhYiAP8jy+/cO++3p++NODzsc1rWs/0jz/2yO75Vnb5UWPrkSoCAerC/tft773vwJovf+vU33z15URG4Tzl82GTgqPDk+NDE6/65mmoDz3+hnW/8sYda1c2ic0qyUh4Ms9pqJtafJ++2zewO/jIN2KHxrWbg5h030KwNFbPg0y3UDUNpybY9SEYHmTTUf0VxSdcc2hshEOgIOKD+1f++pt3bupt5sbop1THSxCNp3dt6vjcf7zS3hx67JHdTx+5Kudk58CN3CPZiE84OZ36yQtXnvjRxaNnhwkV0lQEI0acYDyu+YPKys7ITSua77mtZ8+65s62hq7WsE9hzj5qbv1VNMkP9af/8XTqJwNqEDGCkHGto+lxs6NrETgHrkEijvEYTE9hbEp/EJ9B0dLF6MdYZKUofh/jt21bcWBH597tXdvXtTNmrr4qDQf4088/92v/z45/f+p8Kq3df2DNd3926XffdZvUUaUsCyEJ7FTFY9HEC6eG/+vp/v6h2MWBCWSMayqicTMnmsrwTIxrYaWnvW5VY7i9s+HWzS1rVzSubK/rbA6H6kINYcVvBeqVShjhuK6wuC6Nq0/1Z77bl35llKeFj9xMvUygqqCpoKZxZgZSCV0tM9OYSkIqiaoGYqLHDIizItoR/Qps7G27a1fnrVu6tq1rM7ZthUr7kyvD03/3xNGVHfWcaGQ8+aG37+5qrZv7t7xcWUZCsuH6YAkRQdPo+8/3P/GDsy+dHVO5wtWUcOiJr8THMOjTG+ZQXL0a12BMhVBgxYbInZ3+9Ws7165uWdMRWtkaDoTDwVAgUh+oDypBn7HlrRsEMJOmjMoTKfXfj0T/5rkJlkxSbBoTM5iIQyIBqRRqKjAGiiIGPGApTfQ9aIgElSAAdTYpv/zA1l+4a213Wz0AaFz/RG57R5VLNJZSGEbqiq7CkpRmOQpJIOw04QcfHJ154dTwsXOjFwdnTl4cjcbSiIy4RsTFMJ2h3o6RSNVoSqWMSkwjzAAqqNX7AgHWEmCkYJBhgCEqet9mx8US19E0nuJ6kfEM93NOmmbuJmT6AdBabuiMHUL9AojEMx0tkd4Vjet6GvZu7dzY27y6KxIK+BjDcrrEWbE7MTk6mjPLV0hOOJmN2UhwrV2fTFwemj7VN3bx6tT1aOb8lYnodDKZziDzG34IDsTJGNWYBpeRDgWtJetu7RrtuHMj7kA/hbJLoBCNlUBEmsIgEg52tdWvWdHY0xZcu6JxU2/Lys563WwTS4bQWg28BN+TpChSSPkQADe8Xc5Zy8np1Lkrk0fPXr9wNXpxIHppcCqeVDVC5gvrCuGcSDP2seMEPBspYIJ2nDXqYxu9zwJErmWQ0nVBX3NDcOtNrRtWNa9b2bhjfdvanqbSlZFUIVJIpdDbMFHhNt3xZCYWz8QSmWgsFU+q8aQai6dTGS2d4cm0qmlGt2V1ToyhT2F+HwsGlFBACYd8kbC/LuSvD/sb6wMNdfrjvEuQ5aOQ6qkVpJAkEg+QC7kkEg+QQpJIPEAKSSLxACkkicQDpJAkEg+QQpJIPEAKSSLxACkkicQDpJAkEg+QQpJIPEAKSSLxACkkicQDpJAkEg+QQpJIPEAKSSLxACkkicQDpJAkEg+QQpJIPEAKSSLxACkkicQDpJAkEg+QQpJIPEAKSSLxACkkicQDpJAkEg+QQpJIPEAKSSLxACkkicQDpJAkEg+QQpJIPEAKSSLxACkkicQDpJAkEg+QQpJIPEAKSSLxACkkicQDpJAkEg+QQpJIPEAKSSLxACkkicQDpJAkEg+QQpJIPEAKSSLxACkkicQDpJAkEg+QQpJIPEAKSSLxACkkicQDpJAkEg+QQpJIPEAKSSLxACkkicQDpJAkEg+QQpJIPEAKSSLxACkkicQDpJAkEg+QQpJIPEAKSSLxACkkicQDpJAkEg+QQpJIPEAKSSLxACkkicQD/m8AAAD//zEg13hcCcygAAAAAElFTkSuQmCC;" vertex="1" parent="1">
          <mxGeometry x="593" y="282" width="65" height="65" as="geometry" />
        </mxCell>
        <mxCell id="hZm13JORJEHZNlpUktbY-14" value="&lt;font style=&quot;font-size: 14px;&quot;&gt;EC2&lt;/font&gt;" style="text;strokeColor=none;fillColor=none;html=1;align=center;verticalAlign=middle;whiteSpace=wrap;rounded=0;fontSize=16;" vertex="1" parent="1">
          <mxGeometry x="410.5" y="347" width="60" height="30" as="geometry" />
        </mxCell>
        <mxCell id="hZm13JORJEHZNlpUktbY-15" value="&lt;span style=&quot;font-size: 14px;&quot;&gt;Spring Boot&lt;/span&gt;" style="text;strokeColor=none;fillColor=none;html=1;align=center;verticalAlign=middle;whiteSpace=wrap;rounded=0;fontSize=16;" vertex="1" parent="1">
          <mxGeometry x="503" y="347" width="60" height="30" as="geometry" />
        </mxCell>
        <mxCell id="hZm13JORJEHZNlpUktbY-16" value="&lt;font style=&quot;font-size: 14px;&quot;&gt;Docker&lt;/font&gt;" style="text;strokeColor=none;fillColor=none;html=1;align=center;verticalAlign=middle;whiteSpace=wrap;rounded=0;fontSize=16;" vertex="1" parent="1">
          <mxGeometry x="595.5" y="347" width="60" height="30" as="geometry" />
        </mxCell>
        <mxCell id="hZm13JORJEHZNlpUktbY-17" value="" style="shape=image;imageAspect=0;aspect=fixed;verticalLabelPosition=bottom;verticalAlign=top;image=data:image/png,iVBORw0KGgoAAAANSUhEUgAAAt4AAAE0CAYAAAAbozQmAAAACXBIWXMAAAsTAAALEwEAmpwYAAAAeGVYSWZNTQAqAAAACAAFARIAAwAAAAEAAQAAARoABQAAAAEAAABKARsABQAAAAEAAABSASgAAwAAAAEAAgAAh2kABAAAAAEAAABaAAAAAAAAAEgAAAABAAAASAAAAAEAAqACAAQAAAABAAAC3qADAAQAAAABAAABNAAAAADUgPMrAAAgAElEQVR4nO3df3Bc5X3v8Y/2x9HK2pWNF4hkXEuJkWywO0V2qA0ZA46dhrHrxJA2GeLmFm56LyQpqadT0/ZyoXdCaHpNpyVJSeJOUpibSxmgtR0cu/QG1xEMxC7YSqcYHMsOsmOQQixZllbW6qx2df9Y1si2fpyze/Y5Z6X3a6YTkgrp7J5nz36e73nO96lKfPf0qAAAAACUVcjvAwAAAABmAoI3AAAAYADBGwAAADCA4A0AAAAYQPAGAAAADCB4AwAAAAYQvAEAAAADCN4AAACAAQRvAAAAwACCNwAAAGAAwRsAAAAwgOANAAAAGEDwBgAAAAwgeAMAAAAGELwBAAAAAwjeAAAAgAEEbwAAAMAAgjcAAABgAMEbAAAAMIDgDQAAABhA8AYAAAAMIHgDAAAABhC8AQAAAAMI3gAAAIABBG8AAADAAII3AAAAYADBGwAAADCA4A0AAAAYQPAGAAAADCB4AwAAAAYQvAEAAAADCN4AAACAAQRvAAAAwACCNwAAAGAAwRsAAAAwgOANAAAAGEDwBgAAAAwgeAMAAAAGELwBAAAAAwjeAAAAgAEEbwAAAMAAgjcAAABgAMEbAAAAMIDgDQAAABhA8AYAAAAMIHgDAAAABhC8AQAAAAMI3gAAAIABBG8AAADAAII3AAAAYADBGwAAADCA4A0AAAAYQPAGAAAADCB4AwAAAAYQvAEAAAADCN4AAACAAQRvAAAAwACCNwAAAGAAwRsAAAAwgOANAAAAGEDwBgAAAAwgeAMAAAAGELwBAAAAAwjeAAAAgAEEbwAAAMAAgjcAAABgAMEbAAAAMIDgDQAAABhA8AYAAAAMIHgDAAAABhC8AQAAAAMI3gAAAIABBG8AAADAAII3AAAAYADBGwAAADCA4A0AAAAYQPAGAAAADCB4AwAAAAYQvAEAAAADCN4AAACAAQRvAAAAwACCNwAAAGAAwRsAAAAwgOANAAAAGEDwBgAAAAwgeAMAAAAGELwBAAAAAwjeAAAAgAEEbwAAAMAAgjcAAABgQMTvA0DxlsXDWpDwZu60syvjye8BAADA+AjeFeyOlpjubo158rvqvtfjye8BAADA+FhqAgAAABhA8AYAAAAMIHgDAAAABhC8AQAAAAMI3gAAAIABBG8AAADAAII3AAAAYADBGwAAADCA4A0AAAAYQPAGAAAADCB4AwAAAAYQvAEAAAADCN4AAACAAQRvAAAAwACCNwAAAGBAVeK7p0f9PggAAABguqPiDQAAABhA8AYAAAAMiPh9AEGzuSWmebXhkn/P/m5b27sy5//71tbakn+nJD11LK32gawk6faGqFbWW5783vvaBz35PQAAABgfwfsin2yu1vL60t+WqnZdELzvWRYr+XdK+UBfCN43NFi6u9Wb30vwBgAAKC+WmgAAAAAGELwBAAAAAwjeqBitidLX3gMAAPiF4I2KsLklpt0b5+iBpTV+HwoAAEBRCN4IvNZEWPetqFXckrasmKV962dT/QYAABWH4I3A+5ub4oqP6Zq4vD6i3RvnaHOLNx1dAAAATCB4I9A2t8TGbe8Yt6SvrKr1rD86AABAuRG8EVhNVkj3rZg8WN+zLKYnb0oYOiIAAIDiEbwRWH++rOaCJSYT2dBsEb4BAEDgEbwRSK2JsO5Y4nwNN+EbAAAEHcEbgfTZZvcPThK+AQBAkBG8EUibXFS7x9rQbNHrGwAABBLBG4FzV1O1o7XdE9myYpbWJKPeHRAAAIAHCN4InLWNJaTu9/zVTbQZBAAAwXJpg2TAZ6sXlB68F80N65FltdpyaNCDI5pZ1iSjWpLM7wx6uCervT0Zn48IXmiyQlqWDGtlvaX93bYO9WTVaef8PiwAmFGqEt89Per3QQAFa5JR7dhY58nvStnSjU+fIVw41GSF9I2b4rql8cJlOj8+kdGXX0zxPlawu5qq9fCqC3eAfSeV0/94MaXtXUysUF6La0KaFa5Srz3KdWQaWhbPF2pODOXUkyVSToWKNwLl19+rtHohbklfWlpD1duhxz+WGHeX0Fsao3r8Ywmt3n3Wh6NCqW5viOrra+KX/O/z4iE9sa5OZ3f2c1cDZbHuyohuaLBUPWZR6+l0Ts912joyRACvZMlwlT7eENV1V1z4nXG8P6d/6hwmgE+CNd4IlKvi3gVvKd8dpclimE/lrqbqcUN3wfL6CN1iKtTfrZ38DtLmZZxXeG/dlRHdctWFoVuSLo+FtKmF63Kl+52m6ktCtyQtrAvp8y3VPhxR5ajYivfmlpg+2ezNyR1bydu2slYtydLflh90DOvRo+nz/33f+tkl/05J+ur+c+erU5X2Hjjx4QZvh2TckjY2Wa6PY6a5du7U7/v8OF+UlaY1EZ6yQ9DNC+gABG8lw1W6oWHigVcdkm79NUvfOc51uRK1JsJaWDfx98HlsZDWXRnRnndHDB5V5ajY4H1VPDxpha5YLcmIJ7/3ta4LB5xXxzp7zLWs0t4Dv1zfEJUI3iXzYjIGsz7IZAk+WDArdEml+2IfmiS4IdicXFeunhORCN7jYuQjUMoxkfCiSwoAwBkmfNPb/IS3S0JnGj4dmPbilthQBwAA+I57x5gRPr7A0mxLWpKMKBENKVEtLb5o6cSRnhENDOf/+Y3eEfXbOVqtAQAAzxC8MSPcsyymexSb9GfGW+byhKSf9Wb1WldGPzphE8QBAEDRWGoCTGHR3LA2LYnpiXV1OvKZy/TllskDPAAAwHgI3giUg93Bfgp6Xjykr66q1ZHPXKa7muhVCgAAnCN4I1BSdmXsdjUvHtLX18T13No6NoIAAACOkBgQKEd6sn4fgiu3NEb1ymcuo2sKAACYEsEbgfKTLtvvQyjK8YHKmjAAAADzCN4IlErsGvLk4bQ67ZzfhwEAAAKO4I3A2XWscqreKVt67PUhvw8DAABUAII3AueFE5UTvKl2AwAApwjeCJzHO4fVnQp+mKXaDQAA3CB4I5C+1R78QHv/Symq3QAAwLGK3TL+7VS2LJutHO3x5ne+nbqwy4VXx3p2zCqMSnsP3Hj0aFpfbK1RfTyYc8O2kxk93jns92EAAIAKUrHB+9GjaT16NO357717/6Dnv1OSVu8+6/nvrLT3wI3bG6I6a4+q3u8DGUfKlu5tS/l9GAAwIy2uCSmdFXccUZEqNnhj+mlNhPXbjZY2LYlpXkAr3ZL0hy/0+3bBb02Etaohqvm1YV0/7/2Pb9yqumDXz1ffGdFAJqcfnrDVXkE9xm9viGplvaWrEiHNS7w/Bsa+voHhUR3pyeqN3hH9uCtTMV++a5JR3dgQUSIamvDcvTOQ09sDOZ0azOqlrkxFnTsnmqyQvrikRtfPi5x/3Ts6hvWNMhQQxlMYX4lqaXHy/XPQEA+p673nSgrjy+Q5aLJC+tNlNVqczL8vR3uy+ofDae3tcd5etckK6RNNlubXhrU4GVaiukrSha9NqqzPz0eTUdXXVOnyWflrwfzaS78XhnPSr4byr+HUQFZ9tvRvLt43L300GdUcS6qzQnp3KKsDPVn1ZP3fjblwXLFwlfrsXGCOq+AjcyL6QE2V6qyQ6qqrFAtLl8cuPdcDmVG9OzSqX53L6pdDozoyEKzX4RTBG75oskJalgxrSTKixXMjWt4QCXTYLnjwpUHjvcbXJKP6nWZLqxstx+/R8vr8R3vLill6J5XTwa4R/XNHOnB90gthYe0CS7c0Ot/9c+zP/qw3q+c6hgM5ybizsVofa8yfu7g19c8vv+gWzzupnPadsPWjE3bgzp1btzdE9Zc3xS8Zw8vrI1pRH9WmFwc8/5tuxtfY4xr7s++kcnruqK2njqXLMr7WJKP6/rq6C8bHorlhbWi29OBLg5Pe1WxNhPXfl8T04YaoFs0NT/hzF7/nF39+vn84bWzyM5XFNSEtS0Z0TTKiageXu+rQ+4G88J+r50d1vC+r/e9mdGSo/BOLZLhKmxZWXzAxuFZh3dAgPX/C1st93i8JdWJxTX78Xxxib2iQfnwq42pi57UmK6Qbr4xo4ZywEtEqR/9OIlqlRLRKC+vyr+fWnHS8L6uOs1nf3uNiVCW+e9r36cLmlpg+2Vzt92GgzBrioYoI1xOZ6kvQa3c2Vuv3l8bOh2gvvJPK6VvtQ5d8yT6yrFZ3t8Ym/XcPdo94tmSqEBg+2RxzFEid2tVhu64UlsOXW2L6YmuNp+P9YPeIvnnonKsAfntDVE+sq5vy5+q+11PKoU2qUM3dtGTy8fXIgXN6yKMuQYXK+u8t9XZ8FXMOJtNkhfT8bbMnHCcpW/rcnv5LxvPtDVHdu2yW59eGL72Q8uSzk7+zMPVE+r72c+f/+SNzIvpIQ2TcSmcpBjKjOtwzUtaJ65dbYuNW4wv+4UjayATgYvddE5v0/Sz2uKZ6vZJ0ajA37mTuo8moPnxluCzn+eWuEd/udrgRiIr3J5urPb2AAF5K2fnlJaYqjmuSUf3Pld5+qRbMi4f01VW1+mJrjf73gXO+PCC6tbVW9yybPIQVa0OzpQ3NlnZ12Lp//6Dx2+gTVXW9sLw+oifW1enPe7P62n7zd16KcVdTtR5eFXcUfjctiXkSvB9YWqMvtM7yNHAXFM7BnScy+osDgyVXwFfPi046VuKWdGujdT4Ml/vasGNjne7cY+5aJ+Wrxb/TVH2+ium1RLRKK+ujunpOWM8ctz2/JrQmwlOG0FvmWTpy3OwdhY/MmXoSY/K4xrsr4KVEtEq3LojqIw0RPXt82JeJjlOBKD/GLWe3GQDT2k5mdOPTZ4x9EW1trdWOjXVln4jOi4f09TVxPbe2Tk2WmcvAmmRURz5zWdlC91gbmi298pnLdFeTmTtpTVZIT96U0BPr6sp+V2fR3LCeWFenra21Zf07pWiyQnpubZ2+vsZZ6JYuXQ7h1ppkVK/eNkdbVpQndI91S2NUuzfO0eaW0sbytXOn/px/uCH/M6auDX95U7ysv3+s1kRYX7wmVrbQPdblsZA+f01Ma5LOl7Q58UEH4/aKGvMZ5wMO/mZdmT8nBR+ZE9HmpTVlC91jJaJV2tTi/Xn2UiDKzJOtTQP80J3K6WsGK8JNVkiPfyxh/M7PLY1RPX/bbB3tKe/a6M0tMX1lldmgGLekr6+J6zcPR/SFMnbqWZOM6q9uqjV+HbtnWUzXz4voj19MBWptu5sqt1c2t8R034pao38zbklfWVWr6+ujZb270hAP6dXb5hgbX/PiIa1JRo0s17rjarNLTKtD0scX5Kvf/9Q5bOzBPKdrmE3zernHxcp9N2MihfP8a/GQnjgRvLa/gah4A0FxsHtED740qJanzxgL3WuSUT27vvyVrInMi4dcPdjo1rdX1hoP3WNtWhLTvvWzy1LZLzwY51fxYHl9RLs3zlFrwv/iRWsi7LrKPVZHb3HBtTCpMxm6x9rQbOnZ9eW7czQvHjI+vmb79F6asrAupM+38FxZuX2+xXzoHuvauWHdd01MyXCwJj4Eb8x4B7tH9MiBc7r5mT6t3n3W6AOUfge3cnvypsSUD9WZsLw+4nk4Gq8bhR/ilvT3axO+HsMDS2u0e+OckiZwD+933xt/m8+TuoJFc8NlDd+mvZUK7vpYr1weC+mz86f5DMNH82tDZa+oO3F5LKTNS2sC9dn0fanJnIDNRDA9pGzpZ72Xthc62jOifju/q+Z/9mR9b6cUhOBWLttW1mpDc3Be3KK5YX3jprg+8UJ/yb8rKKG7YNHcsG5viBp/4LI1Edbf3BQv6W5Nypa2HnD/sOjmlpjuCMCkrqAQvq/f0ef3oZTkYPdIoJYuldN1V0R0IpWrqFZ0M4WdlYZzo54s06kOSZ9eaGnrm8Fomel78A7o0idUuK0HzLb+c6vJCunZ9aUFt47enPrtnN5J5fTOQL5CVXgQy+8uQaWGorETp9e68v+5OBlW3KrSVfGQ6ot8EO+Wxqi2rawtaXfW1kS45NBdOHeFiaCUP3d1VkjNc4t7bUuSEaPB24vuIW0nM7q3LeV6ffRdTdUlV7oPdo9c8NmR8ueglPG1aG44f5enDD3J3TjYnf/MFMZXnSW1JKe+NqRs6av7z034/zfNzkrH+7M6OZBT73tjpDApWFwTUk2kSrPCVWqMh1z1gx7r1kZLb5/LBXojoeluIDOqg+9m1DU0qqGR0Us6kjRZIV1WnT/Xy6+MFPWQZuEOxz+esr067KL5HrwBr6VsBTp0S9LDK4t7GK+jN6edHekpN4tpskLa2GRpTaOlmxeYfbp7TTJaVChK2dK+k7ZeOGFPub5+TTKqT7+3qZDbkHTHkpje7M0WPUb+fm2iqLB5sHtEP+gY1s7OyVuaFc6d2zarpwwtD/Cqyn3/S6minqNoTYT18KriOm/sOmbrn49OvZFUayKszzbHtGmJ+z7gG5otPdBb41lPcqfaTma094TtaHytnhfV2kZLqxe8v7FT28mMHj005HsPfCnfA/rwFHckx4azl/skncp3z2iZE9Y1lzm/tgatGjqT/Lw/p//sGZnyjkOnnVPne3n55b6R85vvXDs3IsvF12hQ7nD4HryHc77v34Np5snDwb6A3tVU7XoJhtsuK512To8eTevRo2m1JsL6yspaYwH8sbXuQ9FTh9P62qEhx1WnvT3v7bq2f7CoyutXVtWqrYjtwB9Z5n7C5HbTlbHnzs1GKScHyh+8vejBXmyVu6CYic+29rQee935+GofyKr90KAee31IX1pa4zqAb1kxq+ybthQUM74e7xz2pYf/VOys9Eq3rT3vFheMXu7Lh7jWnrA+9cFqx6Hs8pi5Ti7In+f/21H8pkKddk6dp2wluzL63aZqfcjFA5y3Nlq+bzXv+2rzfu7uwEMpW3rMcKXJjSYr5Lpat609XVKXlfaBrDb8qF937ulXqsx32R5ZVuuqH3NHb043P9Onu0tox/bQ60O68ekz2nXM3Yv7k2WzXP18ayI85e6eY6Xs/G6nq3efLTqAbe/KaPXus9rWPvlk8qky79ZZ6JFdSujuTuV0555+bfhRf9Hn+oGlNa4mPh29Od22s19bDhU3vjrtnLYcGixqfN3rcny55cX4CpLT6Zy+eyRddOgeq30gq789PKSfuwgYNzb4XoecEU6nc/rbw0OebHDTkx3Vd46ntb/b+fivDkmbFvrb0cb34A14aVdHOtBr9f58WY3jylnhi3XLIW96UG/vymj9zr6i27ZNxW0wbTuZ0ad2n/XkQa5OO6dNbQNTBtSxNlxt6fYG53cB/sbFxiKFrb69WvK05dCg7tzTP+6523XM1tcOlW+yWdi4pZTOO08dTuu3dpQWEJuskL7Q6jzMFsaXFxOSwvhyE76X10fKtoGT1+PLbwOZUX3v6LCn1+6e7Kie7RzW6bSz35mIVgV605Xp4M0zWW19M+15tXl7V0ZPHRuW7fCrZH5tyNcWrARvTCvfCfAykyYrpA3NzoNpOb5Y2wey+tTus2UJ324qyG0nMyVVPiey5dCgHnzJ+UTFaVVyTTLqeE1zypbW7+zzvAK9vSuj5TvO6M49/drWnta29rRu29mvTW0DZZls3t7gXZW7lDsaBV9a6nzSuuuYXZbx5TZ8/+kK76ve5RpffrGz0rPHy7OZTU92VM8ctx0HsgUJIlG5nBrMlXV5U/tAVvvedv6ZWOWi6OK1QIyy7hnQMxTlt+vY5A8c+s1NcHjwpcGyfbF22jnd92LK02UnTVZIqxc4e3EdvTnd2+a+Z7NTjx5NOw5Hy+sjjqre/3WpuwlTOcfh9q6MthzK3wkpxxhpskL69spaPVFif3kvqtxjOe0H39Gb0/0/Kd9OpW7C97x4qORt5S9W7vFl2qFfZTxZdjCRTjunfznp7Hx9aPb03E/Bb3ZWeq6z/N1E9vZk9OYZZ5+N+bUhLa7xJwIHIni/TfBGiVK29NeHgtMGazxOH6hsO5kp+y3kvT0Z/aEH/awLPtdS7XhScd+LxT9Y59SmtgHHVf1PTRGMmqyQNlzt7MU9cuBcRVcib2+I6vnbZpe06VFhXbUXVe6CzS3OHm5M2dIfvOB9pftim9oGzrfsm/JnPew1Xunj62J2VmrzYE33VF7uG3FU9a4OKRC7wE43/3Jy8k47XnruF7YGMs7unixL+rOuPxDBO2XT2QSlefJwOtBVoNsboo4eOkzZ0oMl9Jh2Y3tXxnF4mMonmp2tZd3WXt6HAMdyuhPiVEtINjY5r+SbbiHnlbFVbjcPx15sW3tay3ec8fwcr2l0dg5MXgf+2OFdo0Vzw56Eue5U5Y6vibzRO2Ksu8Qb42yoNp4PljD+calTg2bb9/VkR/Vvp5xdfxbO8WeSFYgRdqQnuIEJwRf0TiaSdEND8IKDJH3Tg7sETVbI0ZIE0+fJ6cRiXjw06UNVTkNfMVueB4VXVW6vHgS+mJNWmClbZfv742kfyGpXh7M7Uzd7sJ70aweCfUevGH0GH4R/xWFlfXZ1IGLRtHHYh3z3ct+Io6p3Ilrly3KTQIywt1MEbxTv2+3nAt3JRHp/R8mpmJ5AbO/KlPyg5ep5zkKFHx1n/o/Dh20nayW2vH7q19fRm6volm7FVrlTdvmq3AVOO884DcFecvow9/UlBu/uVHkfTPNL15C5u92dds7RcpOExXbaXrGz8m1p1PE+Z7nyWh+q3oFoXHkywEsEEGyVcvvVSUeMjl5/ti3e2ZHWlhK6L1w719ll5JkO81v1Pt45rIft+JTrgz/aaI07jloTYUdri//thP/bEJvWncrpMwYe9FvicB1m3Appa2tp28gXI2VryjHSUsJDqpK0b5qOrzPDZpeZvpvOTbndeDHbkWN8x/v9y3avvDui666Y+trhxx2OQATv7V0ZPeH3QaAiVcLtV6frO3f6ULGTpB+esEsK3ouTzpaZ+FX52HfSnvLhyPgEVS6n6z2fn6bBaDJxK6S5VkhSeb9c5zs8B253gzWplO4wkvSv03R8Bf1OJUrz0x7/tmbvtHM6nc7p8tjk148raszf4QjM1K5cm3pg+mo7mamI269Ow9thny5S7QPZkloLThRax/qZwwebyuEdB1upTxSMnFZbp1OnCafilvT9dXVl33SkxafOA14r5QHLSl7GFCSnz5EzTBoa8bdxRtpBTWCqYF4OgQneR3z8YkblSdkqay9oP7zlY1vNUoKxk+D9Wpd/n++fdBU/q6iznHWimanilvTY2riaHLxPMx3dMvyXNtRBBXnl7M/uRFAnWoG5ErzKjB4ubD3gXY/gclvgsNIV5HaIkyn1NnpQFFuR9LOaHwTz4iE9u76O8F0m3A0GihPUiVZgrpRtBG84dLB7pOwbzHjpqvj0CKbTHRXJ4i2aG9bjH0v4fRjTUn+FFBiAsU4N+j9uf+mwa47ploKB+aZpH8iydTymlLLzG1dUklKWOlSC6bLU4myRr2ORw64uleSpw2nd/Eyfq2rr8vqInryJ8D2RQ+xXgRkkFoB602yHz1v/yvAmjoEJ3tL0bZkE72w9MFixSzKmUu6H1CbjZJ32OxNMjJ0stZiX8O9S43SpT7EPSDppN1gpulM53bknv917+0BWf/BCv6uJ1YZmS9tWmm/pF3RtJzMVszQOmMopB9/Bfjy0eLFY2FnHElO7pxb4/86Msd+j7asxPe06ZlfUEhO3FvgYTp2s03bSHWQipWxDXqpSlvo43Wba6SYvQfbU4bR+a8fZCzpotA9k9bk97sL3HUti2txS/C6YF0sZrkZ5rTuVm3YPggOVIKi7kAbqqB7vHJ42t63hrY7enO7/ibntoL3ktBXYWodbk3vtrqZqRz830Q6zRx20QVxeH/Ht4btbGp3tPDmes8POJhtBvcA7Vahyj1eV3duT0R++0O/q931lVa3jcTWVIxW6RONg98j5yQzVbszEh49LaaHpBSe7kDrZzdRrgVuc6GSzC8wsKVu678VURX95dadyqp+i6utkd8tyWOnw7060w+wph89mbGyyjN+xaE2EnVXzJ5hUOF2X+1+WxCqip/xEppocbu/KaMFLg/rKKufLSB5eFdfJgVzJPc4nmvBd7MGXBqf1HTFUtsuqq9Q5TQqLb6VyWung52Y5XOpRLrMdBO930+ZzReCmYP/wOhdOXOj+l1IVv0HJz3qnDg/z4iHjSxaarJBudlhpnyicveKwR/cnm72pgLrx2WZnSx7+fYLX1mnnHD1guLw+4nt1p9wePZrWIy52ivVqgx2nHa/uaa0p6e8AxXDass50CL1yVvmuRycd9sf+dR83v2pNhJWITv2eO1mv7rXABe+9PRn6luK8pw6nK7qSWDBRsLvYvcuK37q9GF9aWuNo/fXBSZ6/2NuTcbREbHl9xOjEoskKadMSZ8F7ssnDaw670vyJ4XPnh4deH9KuY87LdnFL+qubaku6ze6049W8eMjTteWAE10OW9Z9wPDW5FYZ6wA92VENZKZ+3R+qC/m2xOY6h6G/2G5WpQhc8Jak7x8e8vsQEAC7jtm6e39lruu+2A8dduxZXh/xbG3sVNwE0x90TD752XfS2eszObH40tIaRx1HulOTL4d4psPZa9twtTXtq96StKltwFX4XjQ3XPIGO047XlH1hmlOq79XzzF7bZhfW95453SJ4bKk+WtiMlylay5z9nePU/HO29lp85DlDFfJD1OOp30gq7aTzqref7pilpEqwcMrax23wts5xeLEF1xMLB5YWv5wtCYZdTypmCrU7e3JON5j4O/XJmbEQ1T3/2TQ1Z3JRXPD+sZN8aL/ntPJz7x4yMj4Agp6sqOOHtC7PGau+mvi7xztcxZYl/iw3OTmK539zdPpnC/PjgXyG6LTzunJw6z1nqk6enP61O7p1wlg+xRV44LCFtzl9MDSGm1odpa6dx2zpzwXj3cOOw6nW1bMKuuSkyYrpO+vq3M8qfiOg2vNDxwGv0Vzw3p4BvSx7rTzn1E34fuWxmjRG+zs7clMutxprC0rZrHkBEY53aXxRoeBsFSr5/rmqvUAABFWSURBVJV/Sd/LfSOOJhyJaJU+O99cw4zFNSGtrHf2+l930JGrHAIZvCXpsdeHqHrPQClb0zJ0S+7C6aK54bLtAri5JaYtK5wv+fjrQ84eqPtWu/MlYn+3tvSH7sbTZOUnLU5D965jtqMNmdxcjzY0W2U7d7c35MPrvvWz9dzaOl+ru512rqgNdh5ZVtzE5JsOx6GUb2dYrvB9V1O1vr2yVvvWz9bW1lpfN75CMHQ4rP5ek4woWeaHLJuskONlFqVyus/BdVdE9JE55Z90JMNV+t2FzpZq2lnpgE+tSgMbvKl6zzwpW/rcnv5pGboLvuaiK8SGZkuv3jbH09uGW1trXbWEcxpMpXzXC6cV0ELHCy/D0ZpkVM/fNttR+8ACp5MKt9ejQvj26tw1WSE9t7ZOT6yr04ZmS8vrI7qlMaotK2Z5PkbcKGaDnbtbi9tgZ3uX86q35H34bk2EtW/9bH19TVyblsS0vD6ie5bFtGOjvxMg+O+nfc7GZXVI+nxL+Z7hSYar9OmF5qrLr7zr/PN4a6NV9uvUhvmWo04mknToVxnjO1YWBDZ4S1S9Z5JC6K70toFTebxz2PFabylf+X7+ttklL81oTYT13No63bPMeRBJ2XK9zv7h/c536Itb+XD07ZWldb2Q8ktnvr+uztUOmdva044nFZK05ZC7dc0bmi09f9vskh+WLUwoJtoIqNT106UqdoOdYsb0H7/obgfIr6yq9WQCdFdTtXZvnDNhr/1yL59CsPVkR/XzfmfXhstjId3ZWJ7wvWlhtdGt2jvtnN484+waWh2SPtdSrcU13h9fMlylOxurda3DooudldpcTBq8Fujg3Wnn9O125xVCVKaZEroLHtw/6GpCOS8e0hPr6rRvvfsA3prIL1lp+/QcRzs4jrX1wPg7GU5me1dGT7m8U7VpSUyvfOYybW11H8C/3BLTkc9cpi0rZjleXiLlnyN47HX33ZPucxn85sVD+vqauPatn+2640nh3O3YOPWE4pbGqK8dVbZ3ZfTgS+4macUsN2ofyGpbu7vxtaHZKnp83d4QPV/lnmp8mW4FimA58K7z769r54b12fmWZ8tOkuEq3b0wVvZOJuN57he2490fE9EqbWqJebo8q8kK6fMtzkO3JL3SbftW7ZYCuHPlxR56fUgbm2NqnhvoOQKKNF0fpJxM+0BW97+U0tfXuKtSLq+P6Il1dfrLVE77Ttg60DWifjt3wcY2a5JRzbbyT5J/orna1bKLsXYds4veBfDu/YP6cIPl6jMbt6R7lsV0z7KYfnwioxdO2jo1kNVbqdz5qnSTFdKyZFh1Vkgfa7S0utFyFbYLStkJdW9PRo8cOOdqjbyUP3dtn56jd947dz86YeusrQsmm62JsD4YD2llvaXVTVHX5+6D8ZCrCr7XHj2a1lXxsO5udXZXpbDcaP3OPtd3Hj7cEHG10+vF4+vV7owO94xcsilUayKs35gb0YqGiD7c4O4cNLi424Lpp30gq1WDOcfh97orIlo4J6wfnnC+nG88666M6IYGS9U+Db+e7Kj++a1h3XG1syp+dUj6+IKoPlBTpX/tKm25x0fmRHRro7vX/vP+nPb4WO2WKiB4S/kvyR0by9vlAebNxNBd8HjnsK5tjzgOKWPNi+f7b29akv/vT3h7aJ60cvyDF/q1e+OcooLxLY1R19V5N7YeGCzp7spDrw9pcTKiDVe7f3Hvn7vp2XVjy6FBzUuEHL83cSvfgvF3d7t7tuOuHw3on9fPLqogM3Z8PeH6357YIMsiZ7z/9wtbv9ccc7x5TSJapTuurtZv9ufU0ZfVf/SNOAqiTVZI184JaWkyYnRpyUTaB7JqeNvWLVc5vyZed0VE110R0Ru9We1/N6MjQ84+/8lwlVYkw1p+ZdTxeu6Cgcyong3AhnwVEbz39mS0rT1dVEhBMB3sHtFdPxqYkaG7wG1IMcGryVDhoTs3bf1MePClwaIr+WNtahvQLqtONy8Izrrei6u3fnH73hQ22Ll+R5/jv9Fp53Tfi6lAja93Uv7dbUAwHBnKad/bGX3c5XVhYV1IC+tCunVBVKcGczp9Lqd0dlTp7Ki6z42qflaVYuH8/81PhAIRti+2590RLUhE9KE6d8d27dywrp0b1ul0TqcG8q/7l0OjGhoZ1bnsqGaFq86//itmhbXQ5e8vsLPSs8eHfV1iUlARwVvKh5SPNrq7fY1geupwetrsSFmqTW0DelKJQIRvr+9A7O3JBCp8exW6C+5tS+mbN8cDEb4fcdEtx4R721KuKtKL5ob1wNIaPeRi3X3Qxtejh9hxGflx+YGaKl13RXHxan5tyJe12l54tnNYX7wm5roSLeUfOi3nhGLf286r6uVWUWf3vhdTdDmpYCk7H34I3Rfa1Dbg+oExrx3sHinLsp9COHLav7wcCuPOy9At5auuG37U72r79HJ46nDaVWA1oZgNdj7R7L7Tw96ejG58+oyrv+O1wviaKQ+HY2r/eMrW6XQwQp5JPdlRPXt82PHDlqb89Fcjgfp8VlTw3tuT0f0vuesqgGDoTuX0uT39noef6WLLoUH90V5/Jpbb2tNaXca19nt7MvqtHWddtVH0Skdv+cfdprYBXyrOKVv6o72pwE5kC8tBnI7pYh8ELoR8PyZAJsYXKtMzx513+5hOjgzl9LeHhxzv5llOdlb6wVu2/vFUsCq2FRW8pfxDaW7blcFfB7tH9Fs7zgZqxhlEj3cOa/3OPlebhJSiO5XTnXv6teVQ+YNboTr8yIFzxiYXTx1O61O7zYy7h14f0m07+41VXjt6c1q/s0+PT/Gg0Fs+3mmQ3r/jUe5z3mnntKltwOjkddcxu+Tx1e9gspuy/V+TCvc6bX8D6EDGv3HTkx3VN46mtb/bv+/80+mcvnskrZcdbm5kUsUFbynfrszv27uYWsrOrz0tZzV1umkfyGr17rP6o72psi3PSNn5KnfL02eMP5D30OtDuvHpM2X9/B7sHtFtO/t19373fchLsbcno+U7zuiRA+fKdu66Uzk9+NKglu8446gFWftAdspjKfedCKd3Kr04jsc7h3Xj02fKWpw52D2iO/f0a1Nb6Q+Hv9I1dSj494A8NOuG3xO+ifxyaOow6mWVuhBAf/y2ubxSqPIe7pl6bJV7UrC9K6OnjplfevLmmay+d3Q4sLkjXP2J+/6X3wdRjO0nbC2tixR9exLldbB7RL//r/16OmC3eCrFT/uy+ubhtIYGR1VXHXK1I+NEulM5PXl4WPfsG9CzPp6Xvuyotp+w9fwxW5dXh3RVPOy4/dZkdh2z9bX9g/qzQ+f0lo8P0bz47sj5czc/EVGypvRNMg52j+g77UPa9GJK+x18oY71dm9WGydYP52ypf/2woC6y1xV/WlfVkODo1rdOP5TkClb+tMXBz05b33ZUf3wVEbPH7Nl29L8REhxq/RzsOuYrT97cVB/8R/n9KZHwfKtoZyaqkP69SvHfxCvozenTS8OePK3TIqpStdP8JoKft6f02tnzFYjwznpN5IRhSe5nJ5IeX9cHYM5/eJsVr8WD2lWxJtNc8bz8/6cvteR1s+GchrNSq2XT34O3ugd8WwsT6TbHtXPz2QVj1bpijLsWjnWQGZUz5/M6LnujBzMsXxTlfju6QAf3tSevDkYHSHwvm3taSPLF2aS1kRYv91o6TcbolpeH3XcxeFg94he6xrR8yfsQC/1uaupWivrI6423ulO5fRq94he7cpoZ6cd2OpGayKszzbHXG36krKlfSdtvdqVUVtXpuSNcTa3xHTfitoLxk13KqcvvJAyOi78Oo5ix9e+E7b2d49o3zuZso6vbStrdcdFvd3bTmZ0b1txGz0Fwe0NUa2sn7jjzz8cSfvSZWLdlZEJ+03bWem7R9Jle8+T4SpdNyeiJcmwp51Lfv5eH/CLP0P3LIxN2N5vIDOqb72ZNtper8kKafW8qK65zNuC6UBmVK90BesByslUfPCWpIO3XUabwQA42D2ir+4/VzGDv5IVdnGUpAWJsK6Kh9Vv587fXhy742MlKuzAKUk3NOT/4Y3eEZ0dzn8hBqVndTEKO1RK+R1G66zQBa/tUE+2LF/8hTGzJBkZd9dGUwqv/4YGSz/psn05jovH19jPzsU7iprSmgjr5oZ8UP3PnktDVCVad2VEN9ZbF9zRGsiMlrxbYzmO63Q6p+c6bWOTgbGfx2La7w1kRnXw3Yze6MtNeL1Ihqv08YboJa0NTw3mX6tfk7rCBKR5Tth13++CgcyojvdldahnJDBtAp2aFsG7yQrp4RtqqXz7pDuV07fah3iyHwBwidZEWLPCVeoZzgUqJLUm8sl7aGTU1+NaXBNSTaTq/IT8yln55XezrSqdfW8ZWGFTnV8Ojbp+H5PhKi2YFdKscJXePjdxUPdLayKshpoqzbFCunzWBBV6e1Rnh3N6K5XTyXO5QGyEU6xpEbwLHlhaoy0rZvl9GDNGypaePMyyEgAAACcqZudKJx56fUiHe0b0d2uDsZPZdLbrmK37f2K2awQAAEAlm1bBW8qv/Ty7p19bb4qz7rsMdh2z9deHzlX0+mEAAAA/TKulJhd7ZFmtNi2JUf0uUWFJyWOvD1HhBgAAKNK0Dt5SftH+39wUd9zGC+/rTuX0gw6bwA0AAOCBaR+8C+5qqtbDq+JUvx3YdczWCyfsKbejBgAAgHMzJnhL+baDG5ssfbG1RvUe7AQ4nXT05rSzI63vB3ibVQAAgEo2o4L3WJtbYjM+gHf05vRal61nOoK9qyEAAMB0MGODd8HtDVHdtbRGNy+YeGvb6aTtZEZ7T9iebEMNAAAA52Z88C4oLENZ02hNqxB+sHtER3tGtL97hDXbAAAAPiJ4j6MQwq9viOr6+kjFLEfpTuX0s96s/r0ro8M9I9rexfIRAACAoCB4O9BkhbR6XlTXzo3oww0R31sTdvTm1G/n9FrXiN5OZXVyIKtDPVkeigQAAAgwgneRmqyQliXDml0d0rVzI6qzpJZkPpDXWaGids3sTuX0diofno/2jKjfzv/vb/SO6OxwTmdt8RAkAABAhSJ4AwAAAAZUxuJlAAAAoMIRvAEAAAADCN4AAACAAQRvAAAAwACCNwAAAGAAwRsAAAAwgOANAAAAGEDwBgAAAAwgeAMAAAAGELwBAAAAAwjeAAAAgAEEbwAAAMAAgjcAAABgAMEbAAAAMIDgDQAAABhA8AYAAAAMIHgDAAAABhC8AQAAAAMI3gAAAIABBG8AAADAAII3AAAAYADBGwAAADCA4A0AAAAYQPAGAAAADCB4AwAAAAYQvAEAAAADCN4AAACAAQRvAAAAwACCNwAAAGAAwRsAAAAwgOANAAAAGEDwBgAAAAwgeAMAAAAGELwBAAAAAwjeAAAAgAEEbwAAAMAAgjcAAABgAMEbAAAAMIDgDQAAABhA8AYAAAAMIHgDAAAABhC8AQAAAAMI3gAAAIABBG8AAADAAII3AAAAYADBGwAAADCA4A0AAAAYQPAGAAAADCB4AwAAAAYQvAEAAAADCN4AAACAAQRvAAAAwACCNwAAAGAAwRsAAAAwgOANAAAAGEDwBgAAAAwgeAMAAAAGELwBAAAAAwjeAAAAgAEEbwAAAMAAgjcAAABgAMEbAAAAMIDgDQAAABhA8AYAAAAMIHgDAAAABhC8AQAAAAMI3gAAAIABBG8AAADAAII3AAAAYADBGwAAADCA4A0AAAAYQPAGAAAADCB4AwAAAAYQvAEAAAADCN4AAACAAQRvAAAAwACCNwAAAGAAwRsAAAAwgOANAAAAGEDwBgAAAAwgeAMAAAAGELwBAAAAAwjeAAAAgAEEbwAAAMAAgjcAAABgAMEbAAAAMIDgDQAAABhA8AYAAAAMIHgDAAAABhC8AQAAAAMI3gAAAIABBG8AAADAAII3AAAAYMD/ByAkbO22RGhhAAAAAElFTkSuQmCC;" vertex="1" parent="1">
          <mxGeometry x="398.23" y="-171" width="269.54" height="113" as="geometry" />
        </mxCell>
        <mxCell id="hZm13JORJEHZNlpUktbY-18" value="" style="endArrow=classic;html=1;rounded=0;fontSize=12;startSize=8;endSize=8;curved=1;exitX=0.281;exitY=0.003;exitDx=0;exitDy=0;exitPerimeter=0;strokeWidth=2;" edge="1" parent="1">
          <mxGeometry width="50" height="50" relative="1" as="geometry">
            <mxPoint x="502.9950000000001" y="247.498" as="sourcePoint" />
            <mxPoint x="505" y="-60" as="targetPoint" />
          </mxGeometry>
        </mxCell>
        <mxCell id="hZm13JORJEHZNlpUktbY-20" value="Egress Rules" style="edgeLabel;html=1;align=center;verticalAlign=middle;resizable=0;points=[];fontSize=14;rotation=-90;" vertex="1" connectable="0" parent="hZm13JORJEHZNlpUktbY-18">
          <mxGeometry x="0.2" relative="1" as="geometry">
            <mxPoint x="-1" y="43" as="offset" />
          </mxGeometry>
        </mxCell>
        <mxCell id="hZm13JORJEHZNlpUktbY-19" value="" style="endArrow=classic;html=1;rounded=0;fontSize=12;startSize=8;endSize=8;curved=1;entryX=0.57;entryY=0.003;entryDx=0;entryDy=0;entryPerimeter=0;strokeWidth=2;" edge="1" parent="1">
          <mxGeometry width="50" height="50" relative="1" as="geometry">
            <mxPoint x="563" y="-57" as="sourcePoint" />
            <mxPoint x="563" y="250" as="targetPoint" />
          </mxGeometry>
        </mxCell>
        <mxCell id="hZm13JORJEHZNlpUktbY-21" value="Download Docker Image" style="edgeLabel;html=1;align=center;verticalAlign=middle;resizable=0;points=[];fontSize=14;rotation=90;" vertex="1" connectable="0" parent="hZm13JORJEHZNlpUktbY-19">
          <mxGeometry x="-0.25" relative="1" as="geometry">
            <mxPoint x="3" y="35" as="offset" />
          </mxGeometry>
        </mxCell>
        <mxCell id="hZm13JORJEHZNlpUktbY-22" value="" style="shape=image;imageAspect=0;aspect=fixed;verticalLabelPosition=bottom;verticalAlign=top;image=data:image/jpeg,/9j/4AAQSkZJRgABAQACWAJYAAD/4gogSUNDX1BST0ZJTEUAAQEAAAoQAAAAAAIQAABtbnRyUkdCIFhZWiAAAAAAAAAAAAAAAABhY3NwQVBQTAAAAAAAAAAAAAAAAAAAAAAAAAAAAAAAAAAA9tYAAQAAAADTLQAAAAAAAAAAAAAAAAAAAAAAAAAAAAAAAAAAAAAAAAAAAAAAAAAAAAAAAAAAAAAAAAAAAApkZXNjAAAA/AAAAHxjcHJ0AAABeAAAACh3dHB0AAABoAAAABRia3B0AAABtAAAABRyWFlaAAAByAAAABRnWFlaAAAB3AAAABRiWFlaAAAB8AAAABRyVFJDAAACBAAACAxnVFJDAAACBAAACAxiVFJDAAACBAAACAxkZXNjAAAAAAAAACJBcnRpZmV4IFNvZnR3YXJlIHNSR0IgSUNDIFByb2ZpbGUAAAAAAAAAAAAAACJBcnRpZmV4IFNvZnR3YXJlIHNSR0IgSUNDIFByb2ZpbGUAAAAAAAAAAAAAAAAAAAAAAAAAAAAAAAAAAAAAAAAAAAAAdGV4dAAAAABDb3B5cmlnaHQgQXJ0aWZleCBTb2Z0d2FyZSAyMDExAFhZWiAAAAAAAADzUQABAAAAARbMWFlaIAAAAAAAAAAAAAAAAAAAAABYWVogAAAAAAAAb6IAADj1AAADkFhZWiAAAAAAAABimQAAt4UAABjaWFlaIAAAAAAAACSgAAAPhAAAts9jdXJ2AAAAAAAABAAAAAAFAAoADwAUABkAHgAjACgALQAyADcAOwBAAEUASgBPAFQAWQBeAGMAaABtAHIAdwB8AIEAhgCLAJAAlQCaAJ8ApACpAK4AsgC3ALwAwQDGAMsA0ADVANsA4ADlAOsA8AD2APsBAQEHAQ0BEwEZAR8BJQErATIBOAE+AUUBTAFSAVkBYAFnAW4BdQF8AYMBiwGSAZoBoQGpAbEBuQHBAckB0QHZAeEB6QHyAfoCAwIMAhQCHQImAi8COAJBAksCVAJdAmcCcQJ6AoQCjgKYAqICrAK2AsECywLVAuAC6wL1AwADCwMWAyEDLQM4A0MDTwNaA2YDcgN+A4oDlgOiA64DugPHA9MD4APsA/kEBgQTBCAELQQ7BEgEVQRjBHEEfgSMBJoEqAS2BMQE0wThBPAE/gUNBRwFKwU6BUkFWAVnBXcFhgWWBaYFtQXFBdUF5QX2BgYGFgYnBjcGSAZZBmoGewaMBp0GrwbABtEG4wb1BwcHGQcrBz0HTwdhB3QHhgeZB6wHvwfSB+UH+AgLCB8IMghGCFoIbgiCCJYIqgi+CNII5wj7CRAJJQk6CU8JZAl5CY8JpAm6Cc8J5Qn7ChEKJwo9ClQKagqBCpgKrgrFCtwK8wsLCyILOQtRC2kLgAuYC7ALyAvhC/kMEgwqDEMMXAx1DI4MpwzADNkM8w0NDSYNQA1aDXQNjg2pDcMN3g34DhMOLg5JDmQOfw6bDrYO0g7uDwkPJQ9BD14Peg+WD7MPzw/sEAkQJhBDEGEQfhCbELkQ1xD1ERMRMRFPEW0RjBGqEckR6BIHEiYSRRJkEoQSoxLDEuMTAxMjE0MTYxODE6QTxRPlFAYUJxRJFGoUixStFM4U8BUSFTQVVhV4FZsVvRXgFgMWJhZJFmwWjxayFtYW+hcdF0EXZReJF64X0hf3GBsYQBhlGIoYrxjVGPoZIBlFGWsZkRm3Gd0aBBoqGlEadxqeGsUa7BsUGzsbYxuKG7Ib2hwCHCocUhx7HKMczBz1HR4dRx1wHZkdwx3sHhYeQB5qHpQevh7pHxMfPh9pH5Qfvx/qIBUgQSBsIJggxCDwIRwhSCF1IaEhziH7IiciVSKCIq8i3SMKIzgjZiOUI8Ij8CQfJE0kfCSrJNolCSU4JWgllyXHJfcmJyZXJocmtyboJxgnSSd6J6sn3CgNKD8ocSiiKNQpBik4KWspnSnQKgIqNSpoKpsqzysCKzYraSudK9EsBSw5LG4soizXLQwtQS12Last4S4WLkwugi63Lu4vJC9aL5Evxy/+MDUwbDCkMNsxEjFKMYIxujHyMioyYzKbMtQzDTNGM38zuDPxNCs0ZTSeNNg1EzVNNYc1wjX9Njc2cjauNuk3JDdgN5w31zgUOFA4jDjIOQU5Qjl/Obw5+To2OnQ6sjrvOy07azuqO+g8JzxlPKQ84z0iPWE9oT3gPiA+YD6gPuA/IT9hP6I/4kAjQGRApkDnQSlBakGsQe5CMEJyQrVC90M6Q31DwEQDREdEikTORRJFVUWaRd5GIkZnRqtG8Ec1R3tHwEgFSEtIkUjXSR1JY0mpSfBKN0p9SsRLDEtTS5pL4kwqTHJMuk0CTUpNk03cTiVObk63TwBPSU+TT91QJ1BxULtRBlFQUZtR5lIxUnxSx1MTU19TqlP2VEJUj1TbVShVdVXCVg9WXFapVvdXRFeSV+BYL1h9WMtZGllpWbhaB1pWWqZa9VtFW5Vb5Vw1XIZc1l0nXXhdyV4aXmxevV8PX2Ffs2AFYFdgqmD8YU9homH1YklinGLwY0Njl2PrZEBklGTpZT1lkmXnZj1mkmboZz1nk2fpaD9olmjsaUNpmmnxakhqn2r3a09rp2v/bFdsr20IbWBtuW4SbmtuxG8eb3hv0XArcIZw4HE6cZVx8HJLcqZzAXNdc7h0FHRwdMx1KHWFdeF2Pnabdvh3VnezeBF4bnjMeSp5iXnnekZ6pXsEe2N7wnwhfIF84X1BfaF+AX5ifsJ/I3+Ef+WAR4CogQqBa4HNgjCCkoL0g1eDuoQdhICE44VHhauGDoZyhteHO4efiASIaYjOiTOJmYn+imSKyoswi5aL/IxjjMqNMY2Yjf+OZo7OjzaPnpAGkG6Q1pE/kaiSEZJ6kuOTTZO2lCCUipT0lV+VyZY0lp+XCpd1l+CYTJi4mSSZkJn8mmia1ZtCm6+cHJyJnPedZJ3SnkCerp8dn4uf+qBpoNihR6G2oiailqMGo3aj5qRWpMelOKWpphqmi6b9p26n4KhSqMSpN6mpqhyqj6sCq3Wr6axcrNCtRK24ri2uoa8Wr4uwALB1sOqxYLHWskuywrM4s660JbSctRO1irYBtnm28Ldot+C4WbjRuUq5wro7urW7LrunvCG8m70VvY++Cr6Evv+/er/1wHDA7MFnwePCX8Lbw1jD1MRRxM7FS8XIxkbGw8dBx7/IPci8yTrJuco4yrfLNsu2zDXMtc01zbXONs62zzfPuNA50LrRPNG+0j/SwdNE08bUSdTL1U7V0dZV1tjXXNfg2GTY6Nls2fHadtr724DcBdyK3RDdlt4c3qLfKd+v4DbgveFE4cziU+Lb42Pj6+Rz5PzlhOYN5pbnH+ep6DLovOlG6dDqW+rl63Dr++yG7RHtnO4o7rTvQO/M8Fjw5fFy8f/yjPMZ86f0NPTC9VD13vZt9vv3ivgZ+Kj5OPnH+lf65/t3/Af8mP0p/br+S/7c/23////bAEMAAwICAgICAwICAgMDAwMEBgQEBAQECAYGBQYJCAoKCQgJCQoMDwwKCw4LCQkNEQ0ODxAQERAKDBITEhATDxAQEP/CAAsIB4AHgAEBEQD/xAAeAAEAAgIDAQEBAAAAAAAAAAAACAkGBwQFCgMCAf/aAAgBAQAAAAC1MAAAAAAAAAAAAAAAAAAAAAAAAAAAAAAAAAAAAAAAAAAAAAAAAAAAAAAAAAAAAAAAAAAAAAAAAAAAAAAAAAAAAAAAAAAAAAAAAAAAAAAAAAAAAAAAAAAAAAAAAAAAAAAAAAAAAAAAAAAAAAAAAAAAAAAAAAAAAAAAAAAAAAAAAAAAAAAAAAAAAAAAAAAAAAAAAAAAAAAAAAAAAAAAAAAAAAAAAAAAAAAAAAAAAAAAAAAAAAAAAAAAAAAAAAAAAAAAAAAAAAAAAAAAAAAAAAAAAAAAAAAAAAAAAAAAAAAAAAAAAAAAAAAAAAAAAAAAAAAAAAAAAAAAAAAAAAAAAAAAAAAAAAAAAAAAAAAAAAAAAAAAAAAAAAAAAAAAAAAAAAAAAAAAAAAAAAAAAAAAAAAAAAAAAAAAAAAAAAAAAAAAAAAAAAAAAAAAAAAAAAAAAAAAAAAAAAAAAAAAAAAAAAAAAAAAAAAAAAAAAAAAAAAAAAAAAAAAAAAAAAAAAAAAAAAAAAAAAAAAAAAAAAAAAAAAAAAAAAAAAAAAAAAAAAAAAAAAAAAAAAAAAAAAAAAAAAAAAAAAAAAAAAAAAAAAAAAAAAAAAAAAAAAAAAAAAAAAAAAAAAAAAAAAAAAAAAAAAAAAAAAAAAAAAAAAAAAAAAAAAAAAAAAAAAAAAAAAAAAAAAAAAAAAAAAAAAAAAAAAAAAAAAAAAAAAAAAAAAAAAAAAAAAAAAAAAAAAAAAAAAAAAAAAAAAAAAAAAAAAAAAAAAAAAAAAAAAAAAAAAAAAAAAAAAAAAAAAAAAAAAAAAAAAAAAAAAAAAAAAAAAAAAAAAAAAAAAAAAAAAAAAAAAAAAAAAAAAAAAAAAAAAAAAAAAAAAAAAAAAAAAAAAAAAAAAAAAAAAAAAAAAAAAAAAAAAAAAAAAAAAAAAAAAAAAAAAAAAAAAAAAAAAAAAAAAAAAAAAAAAAAAAAAAAAAAAAAAAAAAAAAAAAAAAAAAAAAAAAAAAAAAAAAAAAAAAAAAAAAAAAAAAAAAAAAAAAAAAAAAAAAAAAAAAAAAAAAAAAAAAAAAAAAAAAAAAAAAAAAAAAAAAAAAAAAAAAAAAAAAAAAAAAAAAAAAAAAAAAAAAAAAAAAAAAAAAAAAAAAAAAAAAAAAAAAAAAAAAAAAAAAAAAAAAAAAAAAAAAAAAAAAAAAAAAAAAAAAAAAAAAAAAAAAAAAAAAAAAAAAAAAAAAAAAAAAAAAAAAAAAAAAAAAAAAAAAAAAAAAAAAAAAAAAAAAAAAAAAAAAAAAAAAAAAAAAAAAAAAAAAAAAAAAAAAAAAAAAAAAAAAAAAAAAAAAAAAAAAAAAAAAAAAAAAAAAAAAAAAAAAAAAAAAAAAAAAAAAAAAAAAAAAAAAAAAAAAAAAAAAAAAAAAAAAAAAAAAAAAAAAAAAAAAAAAAAAAAAAAAAAAAAAAAAAAAAAAAAAAAAAAAAAAAAAAAAAAAAAAAAAAAAAAAAAAAAAAAAAAAAAAAAAAAAAAAAAAAAAAAAAAAAAAAAAAAAAAAAAAAAAAAAAAAAAAAAAAAAAAAAAAAAAAAAAAAAAAAAAAAAAAAAAAAAAAAAAAAAAAAAAAAAAAAAAAAAAAAAAAAAAAAAAAAAAAAAAAAAAAAAAAAAAAAAAAAAAAAAAAAAAAAAAAAAAAAAAAAAAAAAAAAAAAAAAAAAAAAAAAABxOhxjrXZZP33LAAAAAAAAAAAAAAAAAAAAAAAAAAAAAAAAAAAAAH51lGOPGiNQ666MHebF29veQ8nNm/oAAAAAAAAAAAAAAAAAAAAAAAAAAAAAAAAAAAD4RrhBDzS35AAH63TMOb8lPuAAAAAAAAAAAAAAAAAAAAAAAAAAAAAAAAAAA19X1X1qIAAAG3bBbBdggAAAAAAAAAAAAAAAAAAAAAAAAAAAAAAAAADUtYECemAAAAHcz2s/wBtAAAAAAAAAAAAAAAAAAAAAAAAAAAAAAAAAAwiqyvTrAAAAAHZ2F2p5uAAAAAAAAAAAAAAAAAAAAAAAAAAAAAAAAA+FetTeGAAAAAAzO2Swr7gAAAAAAAAAAAAAAAAAAAAAAAAAAAAAAABqqlyJ4AAAAAAlhdHtUAAAAAAAAAAAAAAAAAAAAAAAAAAAAAAAAg9TRh4AAAAAAMwuXnCAAAAAAAAAAAAAAAAAAAAAAAAAAAAAAADh1O1l/EAAAAAAB9rNLYuYAAAAAAAAAAAAAAAAAAAAAAAAAAAAAAAY9SXCwAAAAAAAE07tMhAAAAAAAAAAAAAAAAAAAAAAAAAAAAAAAw2h+NIAAAAAAACS18GZAAAAAAAAAAAAAAAAAAAAAAAAAAAAAABg1CcfAAAAAAAABIO+7NwAAAAAAAAAAAAAAAAAAAAAAAAAAAAADD6C49gAAAAAAAAkPfll4AAAAAAAAAAAAAAAAAAAAAAAAAAAAAHR0KReAAAAAAAAASpvo7cAAAAAAAAAAAAAAAAAAAAAAAAAAAAAONSDB4AAAAAAAAATxux+wAAAAAAAAAAAAAAAAAAAAAAAAAAAAAqlqxAAAAAAAAABbfZyAAAAAAAAAAAAAAAAAAAAAAAAAAAAAQ2oo44AAAAAAAAAOZfpKgAAAAAAAAAAAAAAAAAAAAAAAAAAAADW/nZwUAAAAAAAAABtH0TZiAAAAAAAAAAAAAAAAAAAAAAAAAAAAHyojhwAAAAAAAAAALALqAAAAAAAAAAAAAAAAAAAAAAAAAAAAAgbSSAAAAAAAAAAH1vrlwAAAAAAAAAAAAAAAAAAAAAAAAAAAAYx5wtdgAAAAAAAAAA3l6JexAAAAAAAAAAAAAAAAAAAAAAAAAAAAVQ1agAAAAAAAAAALkbFwAAAAAAAAAAAAAAAAAAAAAAAAAAAMF82mOAAAAAAAAAAANlekLvAAAAAAAAAAAAAAAAAAAAAAAAAAAAVSVZAAAAAAAAAAAC5OxUAAAAAAAAAAAAAAAAAAAAAAAAAAAOm81WCgAAAAAAAAAADdHo45AAAAAAAAAAAAAAAAAAAAAAAAAAAAgfSOAAAAAAAAAAAC/SWgAAAAAAAAAAAAAAAAAAAAAAAAAAAoah4AAAAAAAAAAACeN24AAAAAAAAAAAAAAAAAAAAAAAAAABiHmX64AAAAAAAAAAAGS+mbvQAAAAAAAAAAAAAAAAAAAAAAAAAAEGaPQAAAAAAAAAAAF7MzwAAAAAAAAAAAAAAAAAAAAAAAAAAFNNdoAAAAAAAAAAACxm48AAAAAAAAAAAAAAAAAAAAAAAAAAB50NDAAAAAAAAAAAAN5+jUAAAAAAAAAAAAAAAAAAAAAAAAAADpPMH1wAAAAAAAAAAADk+m7MQAAAAAAAAAAAAAAAAAAAAAAAAAAaD86YAAAAAAAAAAAA9AUpgAAAAAAAAAAAAAAAAAAAAAAAAAAQqosAAAAAAAAAAAAFydioAAAAAAAAAAAAAAAAAAAAAAAAAAK46cwAAAAAAAAAAABZ3baAAAAAAAAAAAAAAAAAAAAAAAAAACrSqIAAAAAAAAAAAAT1uzAAAAAAAAAAAAAAAAAAAAAAAAAABUpWEAAAAAAAAAAAAJhXzAAAAAAAAAAAAAAAAAAAAAAAAAAAqMrKAAAAAAAAAAAAEp/QCAAAAAAAAAAAAAAAAAAAAAAAAAACo2skAAAAAAAAAAAASa9BwAAAAAAAAAAAAAAAAAAAAAAAAAAKpqsAAAAAAAAAAAABKT0CAAAAAAAAAAAAAAAAAAAAAAAAAAArMqKAAAAAAAAAAAAEvL7AAAAAAAAAAAAAAAAAAAAAAAAAAAQGpQAAAAAAAAAAAAE7rugAAAAAAAAAAAAAAAAAAAAAAAAAAROoIAAAAAAAAAAAAFl9vIAAAAAAAAAAAAAAAAAAAAAAAAAANUea4AAAAAAAAAAAAXD2QgAAAAAAAAAAAAAAAAAAAAAAAAAA4PmE6AAAAAAAAAAAAAvwlwAAAAAAAAAAAAAAAAAAAAAAAAAAB54I7AAAAAAAAAAAAPr6Y9gAAAAAAAAAAAAAAAAAAAAAAAAAAAUzV4AAAAAAAAAAAANt+kv9AAAAAAAAAAAAAAAAAAAAAAAAAAAV+UtAAAAAAAAAAAAJ/XVAAAAAAAAAAAAAAAAAAAAAAAAAAANO+bkAAAAAAAAAAABd9OoAAAAAAAAAAAAAAAAAAAAAAAAAAB8vNfqwAAAAAAAAAAAHaemPMQAAAAAAAAAAAAAAAAAAAAAAAAAACmGvUAAAAAAAAAAAEzb2wAAAAAAAAAAAAAAAAAAAAAAAAAABC6igAAAAAAAAAAAF484QAAAAAAAAAAAAAAAAAAAAAAAAAAB1PmhwsAAAAAAAAAAAbE9KXZAAAAAAAAAAAAAAAAAAAAAAAAAAABUFWoAAAAAAAAAAALXrSgAAAAAAAAAAAAAAAAAAAAAAAAAAAaj84XAAAAAAAAAAAAZR6TsyAAAAAAAAAAAAAAAAAAAAAAAAAAAApTgGAAAAAAAAAAAtUtUAAAAAAAAAAAAAAAAAAAAAAAAAAAAan84/TgAAAAAAAAAA2H6PMpAAAAAAAAAAAAAAAAAAAAAAAAAAAAKnauQAAAAAAAAAAXUz/AAAAAAAAAAAAAAAAAAAAAAAAAAAAHQ+dbTwAAAAAAAAAAljfh9wAAAAAAAAAAAAAAAAAAAAAAAAAAAAitQVxQAAAAAAAAAGS+iPcAAAAAAAAAAAAAAAAAAAAAAAAAAAAAFS1YAAAAAAAAAAH9uon+AAAAAAAAAAAAAAAAAAAAAAAAAAAAA6+guLYAAAAAAAAALALpv0AAAAAAAAAAAAAAAAAAAAAAAAAAAAAa689OsgAAAAAAAABI+/7uwAAAAAAAAAAAAAAAAAAAAAAAAAAAAAjzQFjQAAAAAAAADa3oN2KAAAAAAAAAAAAAAAAAAAAAAAAAAAAABEKifrAAAAAAAAAZ1f7vEAAAAAAAAAAAAAAAAAAAAAAAAAAAAAAhHSFwAAAAAAAABl190jAAAAAAAAAAAAAAAAAAAAAAAAAAAAAAAhBST1gAAAAAAADO75pDgAAAAAAAAAAAAAAAAAAAAAAAAAAAAAAQ/o7xsAAAAAAAG2L5d1gAAAAAAAAAAAAAAAAAAAAAAAAAAAAAAEdqK9aAAAAAAACTV5mwgAAAAAAAAAAAAAAAAAAAAAAAAAAAAAAA1vR9GAAAAAAAD92JW+duAAAAAAAAAAAAAAAAAAAAAAAAAAAAAAAB11UVZ/FAAAAAAGZ3Hzl/oAAAAAAAAAAAAAAAAAAAAAAAAAAAAABqHlbUACKlMunAAAAAAP3Nm4TZAAar423QAAAAAAAAAAAAAAAAAAAAAAAAAAAHErBqy+dgNrueADo6xqy+gAAAAAG9LcJh/0AYHVFX99LTbPuWAAAAAAAAAAAAAAAAAAAAAAAAAAAGDUlRFGb26z2+wA1pWDX50YAAAAN3Wgzs5oA+MCaicJEurtc5AAAAAAAAAAAAAAAAAAAAAAAAAAANB0XakAmncvnwAYNACA2i/wAAADmy5sVmJyQAwGmiFgG270d+AAAAAAAAAAAAAAAAAAAAAAAAAAAQ2pHxgA2HdPL4AH505EKJkYcKAAB3Eopmza2OABEGljXgBk93EyQAAAAAAAAAAAAAAAAAAAAAAAAAB/K6Ke+GAHJtAtR5wADjaZjzofS2o9cYt8v4frk5ntLc2+pHyN7wABwarqv+MAHMuEsX/oAAAAAAAAAAAAAAAAAAAAAAAAAHwqgrA/AACUN1W3QAAPx1mOdTxuV3OS839gAA1FSrF4AB+7P7X/ALgAAAAAAAAAAAAAAAAAAAAAAAABwaaq+gAAyO2SxblgAAAAAA4ldNTeOAABYLcrzgAAAAAAAAAAAAAAAAAAAAAAAADpqQ4WAAAJH2/yaAAAAAAEZagI4AAAJp3edyAAAAAAAAAAAAAAAAAAAAAAAABjlFEUQAAB9pt2rbxAAAAABo6qmEnxAAAErr18jAAAAAAAAAAAAAAAAAAAAAAAADGKIotgAAAcua1l8lv0AAAAD8xprQhTxAAAAJSXu5OAAAAAAAAAAAAAAAAAAAAAAAAY/RBFYAAAAfqQ1hM4c2AAAAYTB6vaPP5AAAAEqb38gAAAAAAAAAAAAAAAAAAAAAAAA6iimIgAAAADtJVzQl3tr6AAA+epYiQvip1YAAAACXd63bgAAAAAAAAAAAAAAAAAAAAAABxaSYLgAAAAA/W0ZKyF3xuLZfafoH56vWmm9Ex6jVq78gAAAAAnRdtygAAAAAAAAAAAAAAAAAAAAAAD81C1pgAAAAAAcrL8wyHsXXY9h+IcUAAAAAACyy3r9AAAAAAAAAAAAAAAAAAAAAAAK6Kb/wCAAAAAAAAAAAAAAAA/tyFi4AAAAAAAAAAAAAAAAAAAAAAEVaEOAAAAAAAAAAAAAAAAA5998qgAAAAAAAAAAAAAAAAAAAAAA1l55NfgAAAAAAAAAAAAAAADYHob2aAAAAAAAAAAAAAAAAAAAAAAcKguLAAAAAAAAAAAAAAAAAJTX680AAAAAAAAAAAAAAAAAAAAABVTVaAAAAAAAAAAAAAAAAAtStWAAAAAAAAAAAAAAAAAAAAAAjX5+OEAAAAAAAAAAAAAAAAA5voHkoAAAAAAAAAAAAAAAAAAAAAHSeeDSIAAAAAAAAAAAAAAAAA3d6H+7AAAAAAAAAAAAAAAAAAAAAFUFWwAAAAAAAAAAAAAAAAALSbXwAAAAAAAAAAAAAAAAAAAADRnnd6wAAAAAAAAAAAAAAAAAHZ+iLeYAAAAAAAAAAAAAAAAAAAAH4oTiMAAAAAAAAAAAAAAAAAAl1fX+wAAAAAAAAAAAAAAAAAAAAQsoqAAAAAAAAAAAAAAAAAAF6s0wAAAAAAAAAAAAAAAAAAAA4fnS0gAAAAAAAAAAAAAAAAAAN3+i3mAAAAAAAAAAAAAAAAAAAACvyloAAAAAAAAAAAAAAAAAAF01gQAAAAAAAAAAAAAAAAAAABwPODqQAAAAAAAAAAAAAAAAAAG2/R9zwAAAAAAAAAAAAAAAAAAAEBKUgAAAAAAAAAAAAAAAAAAF10+gAAAAAAAAAAAAAAAAAAAPh50dGAAAAAAAAAAAAAAAAAAAN5+i77gAAAAAAAAAAAAAAAAAAAiDQqAAAAAAAAAAAAAAAAAAAL6pfAAAAAAAAAAAAAAAAAAAAoch0AAAAAAAAAAAAAAAAAAAJi3xgAAAAAAAAAAAAAAAAAABqfzccYAAAAAAAAAAAAAAAAAAAcn0j7YAAAAAAAAAAAAAAAAAAAFUNWoAAAAAAAAAAAAAAAAAAALSrXgAAAAAAAAAAAAAAAAAADjebbVIAAAAAAAAAAAAAAAAAAANrekrkAAAAAAAAAAAAAAAAAAAIq0AgAAAAAAAAAAAAAAAAAAAL/pVAAAAAAAAAAAAAAAAAAAKa66wAAAAAAAAAAAAAAAAAAAFilygAAAAAAAAAAAAAAAAAAHD80mvgAAAAAAAAAAAAAAAAAAAGwfS5ywAAAAAAAAAAAAAAAAAARY8/wAAAAAAAAAAAAAAAAAAAA9AMpwAAAAAAAAAAAAAAAAAAVFVmAAAAAAAAAAAAAAAAAAAACzO3UAAAAAAAAAAAAAAAAAAHnF0iAAAAAAAAAAAAAAAAAAAAN3ejoAAAAAAAAAAAAAAAAAANT+bP5gAAAAAAAAAAAAAAAAAAAD6ek3a4AAAAAAAAAAAAAAAAAArvpnAAAAAAAAAAAAAAAAAAAABczYeAAAAAAAAAAAAAAAAAAKM4RgAAAAAAAAAAAAAAAAAAAAm5eYAAAAAAAAAAAAAAAAAAcDzJ4kAAAAAAAAAAAAAAAAAAAADLfTZzwAAAAAAAAAAAAAAAAAEX/PuAAAAAAAAAAAAAAAAAAAAA9BEoAAAAAAAAAAAAAAAAAAFUdWYAAAAAAAAAAAAAAAAAAAAC0y1wAAAAAAAAAAAAAAAAAB56I3AAAAAAAAAAAAAAAAAAAAAJI+hcAAAAAAAAAAAAAAAAADBvM1xQAAAAAAAAAAAAAAAAAAAAHK9MucgAAAAAAAAAAAAAAAAAhPReAAAAAAAAAAAAAAAAAAAAAL0JsAAAAAAAAAAAAAAAAAA6+k+C4AAAAAAAAAAAAAAAAAAAACdF2HYAAAAAAAAAAAAAAAAAAcOmivoAAAAAAAAAAAAAAAAAAAAFglzHMAAAAAAAAAAAAAAAAAAOPUBW8AAAAAAAAAAAAAAAAAAAALIbf+QAAAAAAAAAAAAAAAAAAHyqarBAAAAAAAAAAAAAAAAAAAAWfWy/UAAAAAAAAAAAAAAAAAAD81b1S/MAAAAAAAAAAAAAAAAAAAfS1q0j9AAAAAAAAAAAAAAAAAAACtCoz4gAAAAAAAAAAAAAAAAAAPtbnZeAAAAAAAAAAAAAAAAAAABXjTfxQAAAAAAAAAAAAAAAAAAcq5Cw4AAAAAAAAAAAAAAAAAAAAgZSzwAAAAAAAAAAAAAAAAAABz7pp5gAAAAAAAAAAAAAAAAAAABCSkfqgAAAAAAAAAAAAAAAAAHa3cTbAAAAAAAAAAAAAAAAAAAAAiBRtj4AAAAAAAAAAAAAAAAAMgvJl+AAAAAAAAAAAAAAAAAAAAARlomwoAAAAAAAAAAAAAAAAAZpezJsAAAAAAAAAAAAAAAAAAAAANI0RaiAAAAAAAAAAAAAAAAAbavd3iAAAAAAAAAAAAAAAAAAAAABgNF0ZgAAAAAAAAAAAAAAAASSvT2GAAAAAAAAAAAAAAAAAAAAAAdLThAAAAAAAAAAAAAAAAAATxub7wAAAAAAAAAAAAAAAAAAAAAAPnW3Uf14AAAAAAAAAAAAAAAObbDZp9gAAAAAAAAAAAAAAAAAAAAAAEX6SNXAAAAAAAAAAAAAAADYV2ssQAAAAAAAAAAAAAAAAAAAAAAAwel+F4AAAAAAAAAAAAAACXV1ewwAAAAAAAAAAAAAAAAAAAAAAAPjXnUVjwAAAAAAAAAAAAAA7a1yyzlAAAAAAAAAAAAAAAAAAAAAAAADTFMsWAAAAAAAAAAAAAAEhrpt+AAAAAAAAAAAAAAAAAAAAAAAAAcauqpzGAAAAAAAAAAAAAB3VpdmfYAAAAAAAAAAAAAAAAAAAAAAAAADWtREHPmAAAAAAAAAAAABMK4HcoAAAAAAAAAAAAAAAAAAAAAAAAACJNRWggAAAAAAAAAAABuC22a/0AAAAAAAAAAAAAAAAAAAAAAAAAAHDr7qv1uAAAAAAAAAAADNbP7Hu2AAAAAAAAAAAAAAAAAAAAAAAAAAAdBXNWLhIAAAAAAAAAADKLI7McsAAAAAAAAAAAAAAAAAAAAAAAAAAABjdddaWvAAAAAAAAAABmtjlkuZAAAAAAAAAAAAAAAAAAAAAAAAAAAADo4HVs6KAAAAAAAAABuWyKwDIQAAAAAAAAAAAAAAAAAAAAAAAAAAAAHwibXlC/rQAAAAAAAAdhMSxSW/JAAAAAAAAAAAAAAAAAAAAAAAAAAAAAA17A6B8ffwAAAAAAAD6SDnZPTYIAAAAAAAAAAAAAAAAAAAAAAAAAAAAAAPzo6EcKtAfIAAAAAAHIkRNObW6f0AAAAAAAAAAAAAAAAAAAAAAAAAAAAAAADVkSIhxYwX+AAAAAD9bIlRLqWuxwAAAAAAAAAAAAAAAAAAAAAAAAAAAAAAAAOPpSNEdI+aO6AAAABkm85FSPktt36gAAAAAAAAAAAAAAAAAAAAAAAAAAAAAAAAAHE1XpTUOpNa63wDE8e+AD797mGd7J2btncm6Nq8kAAAAAAAAAAAAAAAAAAAAAAAAAAAAAAAAAAAAfDgdH03UH07Hucg5nIAAAAAAAAAAAAAAAAAAAAAAAAAAAAAAAAAAAAAAAAAAAAAAAAAAAAAAAAAAAAAAAAAAAAAAAAAAAAAAAAAAAAAAAAAAAAAAAAAAAAAAAAAAAAAAAAAAAAAAAAAAAAAAAAAAAAAAAAAAAAAAAAAAAAAAAAAAAAAAAAAAAAAAAAAAAAAAAAAAAAAAAAAAAAAAAAAAAAAAAAAAAAAAAAAAAAAAAAAAAAAAAAAAAAAAAAAAAAAAAAAAAAAAAAAAAAAAAAAAAAAAAAAAAAAAAAAAAAAAAAAAAAAAAAAAAAAAAAAAAAAAAAAAAAAAAAAAAAAAAAAAAAAAAAAAAAAAAAAAAAAAAAAAAAAAAAAAAAAAAAAAAAAAAAAAAAAAAAAAAAAAAAAAAAAAAAAAAAAAAAAAAAAAAAAAAAAAAAAAAAAAAAAAAAAAAAAAAAAAAAAAAAAAAAAAAAAAAAAAAAAAAAAAAAAAAAAAAAAAAAAAAAAAAAAAAAAAAAAAAAAAAAAAAAAAAAAAAAAAAAAAAAAAAAAAAAAAAAAAAAAAAAAAAAAAAAAAAAAAAAAAAAAAAAAAAAAAAAAAAAAAAAAAAAAAAAAAAAAAAAAAAAAAAAAAAAAAAAAAAAAAAAAAAAAAAAAAAAAAAAAAAAAAAAAAAAAAAAAAAAAAAAAAAAAAAAAAAAAAAAAAAAAAAAAAAAAAAAAAAAAAAAAAAAAAAAAAAAAAAAAAAAAAAAAAAAAAAAAAAAAAAAAAAAAAAAAAAAAAAAAAAAAAAAAAAAAAAAAAAAAAAAAAAAAAAAAAAAAAAAAAAAAAAAAAAAAAAAAAAAAAAAAAAAAAAAAAAAAAAAAAAAAAAAAAAAAAAAAAAAAAAAAAAAAAAAAAAAAAAAAAAAAAAAAAAAAAAAAAAAAAAAAAAAAAAAAAAAAAAAAAAAAAAAAAAAAAAAAAAAAAAAAAAAAAAAAAAAAAAAAAAAAAAAAAAAAAAAAAAAAAAAAAAAAAAAAAAAAAAAAAAAAAAAAAAAAAAAAAAAAAAAAAAAAAAAAAAAAAAAAAAAAAAAAAAAAAAAAAAAAAAAAAAAAAAAAAAAAAAAAAAAAAAAAAAAAAAAAAAAAAAAAAAAAAAAAAAAAAAAAAAAAAAAAAAAAAAAAAAAAAAAAAAAAAAAAAAAAAAAAAAAAAAAAAAAAAAAAAAAAAAAAAAAAAAAAAAAAAAAAAAAAAAAAAAAAAAAAAAAAAAAAAAAAAAAAAAAAAAAAAAAAAAAAAAAAAAAAAAAAAAAAAAAAAAAAAAAAAAAAAAAAAAAAAAAAAAAAAAAAAAAAAAAAAAAAAAAAAAAAAAAAAAAAAAAAAAAAAAAAAAAAAAAAAAAAAAAAAAAAAAAAAAAAAAAAAAAAAAAAAAAAAAAAAAAAAAAAAAAAAAAAAAAAAAAAAAAAAAAAAAAAAAAAAAAAAAAAAAAAAAAAAAAAAAAAAAAAAAAAAAAAAAAAAAAAAAAAAAAAAAAAAAAAAAAAAAAAAAAAAAAAAAAAAAAAAAAAAAAAAAAAAAAAAAAAAAAAAAAAAAAAAAAAAAAAAAAAAAAAAAAAAAAAAAAAAAAAAAAAAAAAAAAAAAAAAAAAAAAAAAAAAAAAAAAAAAAAAAAAAAAAAAAAAAAAAAAAAAAAAAAAAAAAAAAAAAAAAAAAAAAAAAAAAAAAAAAAAAAAAAAAAAAAAAAAAAAAAB/8QAORAAAQQCAQMCBQIEBAYDAQAABAIDBQYBBwgREmATcAAUFRZQMEAXISIxICM0VxgkJTIzVjVR0Df/2gAIAQEAAQwB/wDx9RZQzX8nSGkfBdprQH+tsEcx8ObQ1w0lS3L1BJx/GPU/+49c+P4x6n/3Hrnw3tDXDqUrbvUErAlprR/+isEc/wDCChnf5NENL94+uMf3z8WDZuvqr3fX7hFiLsXMLV8T3Nw7MlMOTXNqbd7k1+mCD4l+VW4pTOfSnBwEye4NoS/X5+9TC/gqbmjlZUbLGkZ/xCzc0CrCgpY0fMZuDaER0+QvUwj4iOVW4ovOPVnBz0wvNqba7U2CmCEYrvMLV8t2tzDMlDuV/ZuvrV2/QLhFlr64z/bPu0660w2p55xLaLjyL1VTcrYIsKJAq1c1J8nLjNOrAwTdp3Ns25dyZy3nKZznOf55z1/Y4znH88Z6fFW3Ns2m9qYO3nJZqvNSfGy2zcawMa3TuReqrllDA9hRHlNOtPtpeZcS4j3Utl9qFHEybaZ4UBF55oitd4mvq/l9Vx2tf748pyzWUshH7inbWv8AQ3kuVmyljoo3NEV3sE2DX8sKqd9qF4EwbVp4U9Huhedo0fXQmSbTOMjubC5hWyc9QGjBJhBJSXlJoxchLyJBhP7yLl5SFMRIREiQGTr3mFbIP0wbyEmbEo20aPsUTBNWnGSHPcy13Os0iMXL2iYYAG2fy+nZhTsVrpjMUHIyUhLluHyhrxZP4COkpCILbPizXhCdYcvp2HU1FbFYzKh1S51m7xiJerzDB43uQ442y2p15aUI25yyha36sJr5LUtI2m4WS6Sa5ezy5B5P4SrXCyUuTRL1iXIAJ1HyyhbJ6UJsFLUTItuNvNpdZWlaPcW/7KqWtYrMpZ5JLPxtrkRcdnOuAMuqiYP8RqXkRcdYutgPOqloOgbKqWyorEpWJJL3uJuzktCa8w9X6z6UpYLRa5+5y705ZZN40v8AFVe1z9Ml2ZytSbwRelOS0JsPDNfs3pRdg9wCSRwh3Cy3kMs7y5UPH/MVTWhKmhlrW4tTji8qV+MQtba0uNrylWjeVDwHy9U2WSp0YYkc0dssR5DzPt7OTkTW4siamz2gw968iJbZRDkDX3HgK5+Q0VyIltakNwNgcePrkHORNkix5qEPaMD9u7XbYGkwr9gscggQPc+7J7bEurvWsSE/JaY3ZPanl09i1lwlUtsDdoViwVyQQWH7c3C4QNFgCbHYzMDibg3DO7ZnsmGKUPF/lNP7hndTT2DA1KIi6hboG8wQ1jrpySRPbe1WiEpkGVYrAakYPcO4Z3bM9kstShov8tprcM1qewJKYWt+Jq1ohLlCDWGvGpKC9tZiYjoCLJmpctAwe8t1Sm2JzKB1OjQP5jQ+6pDVM/hktbj8BFykfNRw8tFlNkie2bzrQ7S333Ett8jt6vbElFVeuEKRXfzXGzezlEkm6fZisqgELQ6hLiFYUn2y5T7178v6yqRn9P5zivvL6iy1rS1mf8z7Y8jtzt60r30eGfTmwPOuvureecUtz84MUQES0YI+tl/j/t5jaVTSk95GJ32v2BeIfXdWMtE050bulumL1ZTbRNvd5P57W9+ltbWwOzxK85+KnaYi6V0KzQj/AKontapSUJytWcYxyU24rYtuVExROcwfgHFPbv2nYPsacL7Yn2t5VbZ+zKxinwxXbL+AoWptWFoVlKuOO1f4lUpA0k8nM17V2SwR1WgjrDLvYaEv9ykr9bJC0ya1Zc8C03scrWN5CsCVKyGCcLJhsSAL6Xh/armPsxS3xdZxZH9HgnEHZmJuuPa/kyOpvtTd7WDSKrJWmQzj0rDOH2WbNsEo9l0rwTXV0P19cY21gZzlULLBT0SJNRrvqC+1HMvYeVOR+uAH89PBuHmwvrNXKoh7/Ur2nmJQODizJiQd9Ma72ky62yUtJ+f83wbT95e17sGJseHcpGadbfaQ80vC0e03Lu8fb2vUVkV7tK8I4y3n701eEyS93ne03Ka4fdO1Cw2He8XwjiBcvoWxHK2+72je0ttnWKxWJSwkq6NyBr8mcTIlK7nvCK3NlVqfj7AErOHoSVGnYYGaCXhbHtJy+s+YXV+IZl3te8K4n2n7h1ONHuu9xHtJzRsmT7xF1ptzq34VwutHyFxlqq65/l+0m9J/7l2vY5JKu5vwrSNh+2NqV2UU52N+0c2emLhzpJau3EgWs88k5fXu8KHfcFIbJZz0cp8umeqsRMpV3e0e95X6PqOzl4z0V4ZxnmfrOm4JWV9Ve0XLmQ+T0+SNhXTPhnCmTy/RpqLUrrn2i5sHenSYKPwrp4bwhk8ol7PD5z/L2i5wFdo9UC6+G8NDPQ2kWNnP8vaLnA8pUrUx+mOnhnFAr5fdMW119o+b/wD87V/DeMT+GN211asZz7R838Z+uVbPTw3jZ/8A2qte0fOJpeXag/jH9HhnGVhT+7K4jCuntHzdF616tG/y8N4qDKf3XDOp/t7RczAfmdYBlYxnw3huH8ztZ8jOPaPlDHfUdMTeMY/n4Zwjjsu2OySvT+XtFtaM+s62ssbhPXPhnCaM9Gnz0srHTPtEaMkwN8Nf/bPgKipyQjFIynPhfFmF+j6cinFI6L9o+QUHmv7esYnZ2I8KQhTiktox1VQYhMBSYKGRjGMe0fNKC+SvcVOoR0R4VqavKtOx69CdvVGMYTjpjHTHtHzNr/1DXgE82nqvwrhtWlSexDLAtvq17SberX3brSwwKUdznhXECq/RNZLnXm+172kWhLiFIXjrjaFbXUtgz0ApHanwiMjiZeSFigkd79QgB6rV4quDY/y/aXmZVvpl6j7Myjo14RxSpv3PtFiRfa7hfablfUPuTVj8mw33E+EcTKLmr65+vltdpntNKRwsxGlRJzeHB7lWy6fapSsmpzh3wbX9SKvFyiasLhXUAIaMBHjQmsND+0/Myh/ITkffgmejXg3DPXvpsn7GkGP6vajalIY2JRJSruJx6poZMcW+AY0pp/wSs1+Rtc+DXYpnLhVQrQNOrMbWY5GMMe1PLnWy63cUXYBjpH+CcN9a/wCr2ZJse1e0KIHsalSNXKxjC5eKOg5MqIk2FMleBUGmyV/tkfVotOfUrVejapAhV2JZw2L7V8v9UqZfb2fDD9W/AuJuqvtSsqu8wP2yftZNw0fYYkuDlR0vibV13JaxuJlaOxlTPgHHbUy9mXJD8iPnMG222y2lppGEo9reQepW9n09eQGk/XH2HhX3BiWlNu/nq9ASlpmg69DDZfN1ZryN1lTg6yD2rd9r+WOlvk317PrYv+R+d/v/ACx8cWtMYp8Ji82EXpMe2BoQkkG9HnjofG31pwzVNmzkVC3IL85xh0fm5SaLvaA85hOnT+WPbK+UeE2FWiqzPMYWzsKgzmt7OTWZxrov81pLUMltezpE7Vsw8PEx8DGDQ8UMgcT2z3NqOJ2zWlgPYQxKWKvy9VmSoCcDWMb+Y1trud2bZx65Ct9PiiUaB15XBq1XxsIZ9td/aND2nD5kopttixyMadEHPxkmK4MV+WplOnL5YRa1XhcvFam1XB6praIeNwl4z235DaCH2QAqx1thpmxmhFxxbwBwzg5H5SrVabuU4NXq8Eso3TGnofUtfwK12Ey3tzv7j0FsgddkrSGhLHIxx0Qc/GyQrgxX5Km0yw3ycZr1bAUSVp/Tdf1PCJHEbQTLe3e8+P8AEbSDVLRWGwbFP1+Xq8uRBzoDohv5DXWtLPs2dRC1wTKsav1TWtVwSYqEZw4T7e7d0tWdsxfYcjAkrfdfWbXE45BWYFTLn47TujLNtg9LzaVAwdJo1b1/BtQFZASOP7f3qg1rYsG7A2YBLzW4ND2nVJeSVIVIQn4tOMqz2px1zpPizJWXI9m2E06BFRsZHwwDEZFBtCie4J4AcmG7HyArZI26OJxAOX7JrFpT4z7DwzyxyWltO/iKrULFdpZqErEW8aVprjDX6F6M/avSl5324u216DrxOPuqxMCvU7Z9EvqO6q2UQxf6e2+PdQ2g0s9LaYuc2Jqm5axkchWWNVhn8KnGVZ7U4651Hxgtd8UzL2VLsJCUnX9U15FpiatEtCt/p3HZ9EoSO61WUQNdJ2tQdhoz9q2Icp32qIIYEYWSU8hlrcvLRA6nq5rBaVrkJE6WMdkJMx4okMwyPJQYAU6M/q7lzY6/lqKv7S5kCpXar3uMTL1aYYOH/SmIaKngHYuaj2DRNqcPs5y7L6wJx8TMFMV2Qdip2MIBL/Ba601etmkJxAxS2wtV8aKTrz0pKRbTNzP6dvu9XokWqYtMsyCxtHlzY7Bl2KoDS4YAwwyQJWYeU6S/HyJ0SY1IRhjwpOmuWiCFM1zZ60oWOQwWwgkV5DzXtPbrlXKLDOz1mkkCC7n5C2PaBDkWApcbXv8ABVLnZaRKtzNYlngSdQ8qq9b8swd2w1DSyVJcThaFYUn9K667p+wgMx9rhGTMbG4eWCJy5Ia/OxKiy8NLQBq46ajSAif31D07f9jPJ+3oJ35XW/EimVj0pG4u/XzxRRgh0ChjtsM/pKUltOVrVhKdvcqq9UMvQdJw1My1ruVlu8quZs8s+cT/AINMchbHq8huLPUuSr1RuVcvUM1PVmSQWL7S7X3FVtUROSpZ75iQ2Ns207OmlS9jMypH+PT3Ji0a8UzDT6nZmBpt4rN9iG5urybZY/6dopNUugWQLRAiSDV34XxZPqGUGwLDXcNIbOpKlqmKsUodSVIVlKsZxn9wIGWe+kUIZ0h6j8Wtn21TRB4DcEFQ+K2tah2FSgy7AewwyM0lgdlDTf6dyvFZoUQ5N2iTbEH3DyYtGw1PQ0Ap2Ggf8eudm2nWM0mXrhmUo1RuKrbXicFRL3y8h7R7x5DQ2sR1wsNlqQsdisc1a5d+csEg6Yb+jS75adfy6Jqrybgr+m+RNZ2e03FH5RFWD9TOMKx0zjriz6g1tcMKzO1EB1y0cLKqblTtUspsYqzcS9sQPe7HCBzTM3S7bW3PSnq3IgK/ZR0RKy76R4qNJLdqvFzbll7XH4VuHHqPC6rgZQ/cbAVKLquu6TSmcM1mthA/rbk5E1nWDTkUBlErYLpfLTsCXXNWiTcKf/RrtjmqpLsTlfkHQzdHchobZw6IWZy1H2P2h37yZGrOCKhQCUPyxRRJxLphj7jz/wCmw+8K8ggd5bTukuVzjPy9X2c9lbYpYpwzZgRDb7H6z7DJLSmSGkOtzuldWWPuzJ0mM75zhxrOS6riTZWLVMcI5ZHcuCuozvxKcSNwR+c/LBRx+JHRe3YvKsFUGVz8G0+2Rqu2RrEsLnLTqf8AubVj46Z/+s/4O1X/ANZ+GhSX14bZHcWoGg3iTz0jqdNE/EXx23JLdMsUctlMPw22ad0VKHxEciD4SwrXRdhuRRGYDjNp+AyleKz885GQsPCs/Lw8UIC3+sUWKCM4YaQ2wxu3lc498xV9YvZQ2++8U8sgh5brv6YpRIJLRgb7jL+guTI1mwPUL+ShiW9nlrQ0hTji8JTyA5OKL+ZpWuTcpYVnKs5UrPXP62ot+W3VZKBEuKkoTXu0afsyMxIVmSStz9nlKc/3TjPwTFxhqe0yOGfw5RqU9nKnahCrz/C/Wv8At9W/h7U+sCOnqa+r/wAY1hrbHTpr+ufDVKpw+erNTh28sAhDY6DCMtYwnGP7Y6fs9hbRp+s4zMhZpJKHNu78tu1CViKcVGwn6yc5TnCk56Z4/wDJxQny1K2MblTCFodQlxteFJ9mzDBY8V000htgfkBySKuan6hSX3B4P9jBWCarEk1MwEm+CZqTltETWGYPZGG444YlgthBIryHmfxRJLAjCySnkMs7b5bRELh6D1vhuROnbBNWeSdmZ+TfOM/Y8f8AkkVTFMVC7PuEQYZgsgK0aEQ2+P7MysrGwce/KyxrQgm+eQsnsopyBr7joVb/AGmr973jV7yWY4z56K1nyAoOy22xhTcRsr+I2ZyAoOtG3BijcSUrtDe942g8pmRM+Riv2mhuQsnrUpuBsDjptbipWNnI9iViTWixPZefnomsRBM7OHNiBbw3vM7VkVAB5WHXv2zbi2lpcaXlCtacq7vTUtRljx9fjNf7joOyWU/b003gv8JsDcdB1syr7hmm8l7L5V3e5JdjK5j6BGOOLdWpx1eVq/baP3vM6qkUgGZWZXoCeibPEDTsGc2WF7K2KwxFVhirBPGIFC3bvKa2zJ/Ltd4UD+5HIIEeQSK+4y7r7ljsCqemFYVJsAFB5B60v6UMiTKI4/GcKx1xnrj99nOE465z0xfuQetKAlbJcyiRP2Dyx2Ba/UCryk18Agggt5ZJT7jzv7nSW8prU0n8u73mwNdsMRaoYWwQJiCgvZOcm4utxJU5NFoFC3jvGW2xL/LDZcEr/wC8xnKc9cZ6Zou+tmUDsZip9ZQVK5l1GUwga6RBMO/XLnVrcNgutT4Ug3+6sdzq1RGyXZZ8KPbuvMuoxeFjUuIJmH71vrZl/wC9mVn1ihZzlWeuc9c/vNHbxltTy/yxOXC6/BzcXZIkWchS0FBeyMnJgQ4BEpJltjCb53rJbSl1xkY64PW/wEfJyMSQkuMPIEeqXKXbFY9NkmVamRqtzRpx6UM2yAOi3aztvXFw7cQFvjiHEqSvHchWM4/ZKUlGO5asYxZtt64p/dift8cO5aeaNOAStmpwB0o7beUu2LP6jI0q1DDSEnIyxCi5M8gt78Bobeslq2XRGSbrhFbjJMCYAHlIwtskT2PffaFZWQ+6htrkZvt7YUguq1ghTdd/CYznGeuPiB2jsOs5x9DuMoMmA5g7RisYblGo2WRDc24lzoifpZLOYnldpuT6evNFx2Yvb+r5np9PvkKrIkrFnp7gZEUjGM4z/bOM/wCPOcY/vnGPguViwE9x0iKPiU2/q+G6/UL5CpzLcr9Nxvd6EwZIZmebcS31RAUsl7M/zB2jK4y3FtRsSie2jsOzZz9cuMoSnOc5z1z+F4577e17IIqtnIU5XWH2imUEMOoca9jf7fHJ/fWZp9/XVPN/5D8W2QQyrC2X3EKDvV2jv5R9wmhvhjc+1x//AB7Am/hvkLudvOFJvx3X/iW3f/74R8f8S27/AP3wj4c5C7nczlSr8d1f3Ptcj/ybAm/gy9XaR/lIXCaJ+HCCHlZW8+4tX4vjBvrMK+xrq4G/8h/f2N5Ob5xWBXtfVIv/AKtnOc565z5DjOcZ64z8cY984s4rOvraX/1b2L39uQXVdZy0C4hyfNNKki3jzn1vkeRBGlRpbJ4L62CNA7kF2pWcNHOIbn/YnYd8hdcVcuzTTuOy83Wb2BZS7RPP95HklGus3r+yiWiBf7CNeXyF2PVxLNCu47PYcokcEZ0wt5DLG/8Ab5G07WrATikwfk2gNvv6stacHOqVBCkjnDNGCPIeY9huWW6c5yvV9bK6eU8Td05xlGr7IV19ht77WG1ZTHTGVpVLllEnEummPLef8oEKJBJaNDeWy/ojaw206Y0Y8tKZf2DmJaPgosqZlSEsCbe2VIbRuJU+SpaBPKtQ7KkNXXEWfGUtYkPLR87FizMUQl8T2C5e7a9R1Or4Mn+nyziFtr03VavnCf6fYHceyA9X0kuwOZSoyRkDJY8iTkH1PE+WR0gZEnjyce+pknTmyA9oUkSwN5Skzz/OcJx1znpjkltLOxL04JHEd8N5dxs2jnXd6aEkCOyGxnCsdcZ648+5QbR+w6SqDjCOyX8w4v7R+/KSmDkyO+X89KKYCGdMKcS2zuLYL+yb5IWHLisieYad2C/ra+R9hw4rAgpTBozRgriXGfPOXOzftuqN0aMJymQ8y4jbM+5Km5R5MnukPOzTBo4R48x3DbG07uTsO8ylmeXnLXmWrLuTry8xdmZXnDQRg0iIyeG7hxjzrl1sVNbpbdOAf7T/ADTiNsbFlpblOPf6n+cuOIZbU64vCUbpvbmxNiSk/wB+ci+aaWvbmu9iRc/35wK24h5tLra8KR5xyfv32VrQkMR7sP8ANuMF++9daDBlvd5/nHKW95uGzSY0Z7vB824tXvNP2aNGkvdgPm+0rk1QaHMWheU+oQ+6U+4SQvK3fNh33RX2yR15Q7q25NX6hw9oRlPqebc0bz3vxOvxHc9POOF157H5bX5buenmrzzY7K33lYSjaNucvN9mbNlfVvzjV1uco19hrLhfRtl1shlD7Su5HmnJW6fZuqZLLDvYZ51xrun3lqqNy+73meaczbd9TuUbUR3erXnXDK3fTLlJVEh3o15mWSyEK8YQrtav1meuNymLK8rr53QbK9TrnD2VlXT4EJaMFZLYV3NeZclbbmp6mlVsudhPnnGq25tmpopbzneT5lzVtfzE3CUxhz+nzzhVa/l5ubpj7n9PmW6LRm47OsE2lzvZ880vaM07Z1fm1OdjPmO1bLio68np7v7VrUpxeVrz1V54ham14WjPRWrLKm369gZ/C+5fmHM6z/T6TG1lpz/M8+4ZWf6jSJKsPOdXPMOXFn+ubUXEtOdzPn3Eez/Q9qIiXXO1ny80tgAN84leENWydfs1mlbCRnPf59U51+s2aKsI+c94RbB4bBwy8La8u5JWj7X1FNOtudj/ALAcbbR90aihXXHO9/y7mzZ+56AqDLnsDwms/a9P1B5zy/kNZ/urbU4WhzvZ9gOPNn+1dtQZa3Oxny27z7NVqExYn1Ywkoh4wl0shfe77ADEPBktFjr7HaRPs2qoQ9iYVjKfLOW8pJAakeEAGfWj2C4kSkkfqRkQ8Z9CPLDQRJIR0A8ZsgfkDx4N18S9aaqw4RXPYDj9x4N2CSzabUw4PXAgRI0RoAAZscfy0oUc4ZwQthDzHITjiTTHXrfSBHHoLz7j5xxIubrVvu4jjEEKKOCM2IIwhljy91tt9tTTzaVt8huNq658xeKEMtyM88488bV2P5e8X0ZbcY022w2lpltKG/MVJStOUqxjOORHGtwJRV718H3Dedcd+Nbhqhb3sEPtGSlKE4SnGMY8zzjCsdM4645EcasP+veddR+PUUlSVZSrGcZ82SlSlYSnGc5478asMehedix+PUxjCcdMY6Y825E8bm5lsm90EPskHG1tLU26jKF+aNtrdWltpGVr47cbm4Zsa934PvkPOeQvG9i34IulIHQ1NPsPDPLHIaW275kww8S8gcdpbjvHrjexUMD3S7jodmvO+QXHUS+ju2qnjNDWA0IuOLeAPHcHI8wCCLkS2QAB3CCOPvHUShDtWq4DNE2Dz3fvHuP2OI7Y6402LZZOMkIY56MlA3RS/LoyMkJk5mMiw3Si9Bce4/XAjVjsbTZVl8/3roKK2mEqWi/TDsU5By1blSISbAcDN8sg4OWskqPCQgDhhuitBRWrAky0p6Zli9gdz6Qr+2YvK1JQHN26oT9GnCK9ZAVDGeVVKoz94m2K/WwFlmaY0fAami8LxhBs37B7R1NWNqwuY6bY9MrZOsbPq+cVD2EXPZ5RrjWtm2dOoha6L1xqzUtY1TC4joVj1TPYW50mu36DegLMAkkbcejrHqeSy44hR0J5Np/SFl2xJYyO2oOGpFFrmvYJmv1kHDDHsPLRMbOx70TLhNFiby4xydMU/ZqOy6dB+SaL40yV9UzZbgh4CAh4aMgI5iIhwWhA/YlScKxlKsYzjeXFkWc9e064GbGPOBMjDHo+QGcHJ8gEEKPKaCCHcff0fxWYj/QtWyx8OlIQhtGG204Sn2M2/oaq7WFUUtCY6bv2ubVraYVD2eOUznx6l0WzbAmW4SsRqyX9Ncfq1qwdEiShElYPY+206uXiHdgrNGNmC7j41WbXS3pmCw5LwHjmnOO9o2c83KHYcioClUOsa+h0QlXjUCs+yK0IcTlC04UncnFOKs2XrDr1LMbJzkDL1qTeh56OfCM8Yi4qRmjmoyJCeLL03xMFjcsWLZyEEksMMjMoHHaS037KbG1PTtnR/wAnY4/HzG2OPlz1etw/LWZOE8W1bpC57TKSqMEyJGav0zTtVg4bhRPXkPZd5lohpbD7SXG9vcS4mcw9O64w3HHWGtTtUk3YaxRb4BniUTESk6e1Fw4Dxheo+Io43ozuz1JfcCBDjRWgI8VoYf2au2valsOMVF2mHaKRtjiza6Tl6XqvqTkOpKkZylSc4z4fqvjVdtiKakpFpULC681PStZg4FrUWlJHs9tHjdRdjYckB2fo0xsjSd71iQr63G5fA8MoGqrrso3AtZh1uNar4uU2iejLWDtnphKcIThKcYxj2gJGGMYWKWw2+ztDiNXbD60tQX0wx9z15b9fyGY61Qr4avCKtTrPdZFMXV4UmQI1jw9j4/LMtskxJz0ZFx0ME1HRQLAgvtJMQkRYY92KnI0c4TZXDmON9ST1qf8AJu2mm2elSCo2zwxID/glfrNgtR6YyuQ5UgTrXhw676cnsuQ9JNdq1dqMemKrUOLHC+1E5XYOzArjbBEinjbF4bRpnrSWuJTIbtuoFwohmQrVBEgq8ArNOtFyNxH1mDLkHtdcNF5U1I7JlcYxWqjWqdHoi6zDCx4/tZLQ0TPBLjpqOHNG2Bw9qM56htIOXBl3zSuxNduKzPQLqxPzlJ1FsHYLqcVqukOsa+4cV2K9I+/SapYiFgIWuBIjYGKGAG9sHG23W1NOowtF84x6yuqnTGI/MKfeeJexqx3lV/0bAIdHnxZKwpIJ8Qj8sGCbJEoDjg3in6NxS2XavTJmB24AKicX9Z030yTAFThzLLQ7SWB2kNN+2troNOvAuRLTXgz03ThdDFd5VHsLoS7lobaFIytyUrLxA2UqQrKVYzjP5BKFLVhCE5VmnaE2jdspcjay+MNSuF8OLlJV7sDhy6rQKbSBsDVauhR+PbrOMKx0zjri4aU1pecKcnasL8xbuFDWfUIpFryn4tuhdp03K1ydVIeHcbW0vLbrakL/ABTLLxDmGWGlurqXHza1v7HAau+KPUuFIbfY/drYt7NQ05rejYSqv1YNt/GMYx0x7g2XV+v7ejKbBU44pVo4ZUOS7nazMyEO5Z+Ie0oTudh0gzjM9RrjWHcs2CsSQCvweMZVnonHXNe1vfLWrCa/U5MzFa4dbLlspcnio6Faq/DjXcT2u2GQkJp2u67o9SRhFdq0cFn3HdZafby0+0hxFi0lqy0dy5SmR/qz/DGgndy4Gak4xU5wsvAnVUFY4uQxN8d9xQXXJFKKIRIwE5DuelLwxwS/7fuf7/EXW7FNr9OGgZA5UJxx3HOdMtU58VuB4U20rtXYrRHA4geG+tY3tXMnycouu6h1rVcJ+jU6NbWlKUJwhGMJT7nvDDkoy0QO26iX1FrGd65k6LDuKlOJunJHuyxFHAfEnwmqz3VUTcJEb4kuE1qa6qirfGkYP4h7eE65HYjC0ncc9ygdcqpBT2CtWbICxnJNHmk/BFWswn+rrsmz8ONOsq7XWlIz+g2y6+rtaaWvI9csJnTAkFIv/AWq9kH9PlaPNK+AuO25TenZRjG8R/ETbpnRRI0aGmP4TWt3oqSuEYx8RXCWsM9qpi4yBPxFcT9NxucZfiDZD4iNRaxgs90ZRYdtTI7A6MNMMobT7uLaac/72kq+HIuMdxnDscMvD9OqRKcJIrMW5h3WmvX85U9SIRef4Oan/wBuK58fwc1P/txXPj+Dmp/9uK58N6h1YyvDjWu68hX8Mtd/+jwfwxTKiN1+XrEW38IjI1v+SI8ZPwhhlv8A8bKE/wD4+n//xABSEAACAQEDBQsIBwUFBgYDAAABAgMEABEhEjFBUWEFEyJCYHBxgZGhsRQjMlBSYpLBMEBDU2NygiSissLRM0RzddIVIDRUdOEGJZOz0NNlo/D/2gAIAQEADT8B/wDh9T3nAt+JUoPnZfSJr48O+3+Yxf1t/mMX9bN6JFfHj32/DqUPzt7rg88i54zUBpPgW9u6wzb1FvUZ/U2PdY+i1VO0jDsuFtApaZRd1m+xz5FQY/4brHOZahm8T/vjMYqhl8DYZsuoMn8V9tIqqZTf1i6w9JqWdo2PbeLHPvsW+xj9S491mzRioCyfA1zd3O2gvZmNwAsn2FAN+N/5hwe+3FnrG31/hFw77N9hC+8xdGSl1/X9TX7CZ9+i6Ml77uq3Gno23p/hN477P9hXjeTf+Y8Hvs4vVlN4I51brwrvw26FGJtmFZuhwV6RGMT1kWJvECNvcK9CLh9ZBvMDtvkLdKNhbMazc/hL0mM4jqJtdeVR+GvSpxHOjdfHTKcueT8qDH5WOHlEl0lS3yTqv6bSG9pZ5C7Ht+uxm9ZYJCjDssMPKI7o6lfk/Xd02uvkpmORPH+ZDj8uc1cxkbhOdSrnY9FsV8tlANQ41qMyd5tKb3lmcuzdZ9QxG9JYXKMvWLYL5bEAKhBrYZn7jZs5jbhIdTLnU9POSgvZmNwAst6PWNjTQnZ7Z7rNmMjYINSjMo2D1Kucxtg41MMzDYbNciVi4U0x2+we6zi9WU3gjnGYHeadcZZzqVfna/gUUD4yDXK3G6M3qm/h0U74xjXE3F6M1lA36nbCWA6mX584g4LY3w0p986W93ttMcXc4KNSjQNg9VwnB0ODDUw0jYbHgrjdDVH3Dob3eznBhUvJJI2SqKM5JOa2MdRuqMGk1iLUPez2Y3libyT6tU3hgbiDbCOn3VOLR6hLrHvZ7TKHjkjbKV1OYgjPzfUq5cssjXAWja7IvyZKv3pNnu+sZGuyL8qSk96PZ7tqpcuKWNrwebyAYsxxY6FUaSdVqZz5HQhsLvbfW3h6zqXHllCWwu9tNTeNpxgynFTpVhoI1c3VMOlnbQqjSTanYihoQ3BjX2jrY6T61qGArqEtwZF9oamGg2qVv95G0qw0Ec3FKuUzNnY6FUaSdVqZiKKiDcGNfabWx1+t6lgK6ivwdfaXUw12qlykYZwdKsNBGrm2o4zLNK5wVRajYijpSfS/Ef3j3eua5gKynvv3s/eoNY7xaqjEsMsZvVlOnm0jUszMbgoGk2oJPSBu8slHHPujQOv13XSXRSMf+DlOn8h06s9mF4IOBHNmODutUxnP+AD/ABdmv17Ct25VRIf7VB9iTrGjZhzZbqoVhuONPHmMp+W20jFmZjeSTp9ewOJI5ENzKwzEG25oEVdH7eqUDUfHmwpl83HfwppT6KDaTatkyruLGvFRdgHr+FsmeG/CeE+kh/8A7PatjDrrU6VO0HDmuAvJOi24zNFBkngzScaX5DZyB3Yk/Z2c8GCp0dAbN03c127aESMh4UFNmY9LZh18glN4I0G24+TBV44yrxJesYHaDzWUELTSE6ho6TarlJRCf7OPioOgcg3O8V0Q48DZ+sZx0WqY1likU3hlIvB5q0yavdLJOc/Zxn+L4eQu5A32kyj6dMTm/ST2Ec1W58DSZPttxV6zdavnaeVjrJ5C0cvnUvwkiODqekWrYVnibWrC/mpW6ur8k6fs0PeezkPuM2+02UcWp2Ob9LePNRQwPUStqVRebboVDS3ewvFXqW4ch1lENYBxoHwfsz9VpFDKwN4IPNPu/LvbXHEQJi3ackdvIncX/wAvnxxKqPNt8Nw/TzT7ixihjuN4yhi/ee7kTu7AY1BOG/Jwl7rxzTbn0ktQf0qTaqleaQ62Y3nx5E7n1KVC3HPkm+7rzWrqdKiNhpVhfzS7t1aQEad6Tht3hR18i9xJ3omvz5HpJ3Nd+nml3Kot8ddUkpv/AIVTkXurSCeMfiRH/Szc0oq2gjPuR8EeHIvyxYJTfxJOCfHmkpaaSa/8qk2qJnlN+tjfyLicOp2g3i1ZRQzX6yVF/NG1C8Kfmfgjx5G0avRnZkMQO67mjra2ni7Gyv5eRtJullrsV41+YPNHPumZCNYWNv8AUORs1PT1Cj8rMD/EOaN3qpc2oIP5uRtTuTMt1+kSRn5HmjSCra/paP8ApyNqKepjzfhM38vNH5LU/wAScjWNQnxQSD580fktT/EnI3fpf/afmjVa1Sdp3r+h5Gq079kDn5c0aVksXxJf/LyNp4aqQ/8Aouv83NHR7qRv2o6/PkbS7lTyA7S8a/zc0dOYagG7NkyDkbT0cMHxuT/JzRzbmz9y3/LkbUboLCNoSMHxY80c8bRnoIutS1UsN35WI5GV7y1bHWGbg9wHNJNU+VRi7iyAMPHkWxuA1m1JQQx3AXY5Iv5pN0qDIZtbxsR/CV5FzV0Zk2Ipyj4WHNJuTXgMbs0coyT+8E5F7j0TXMdEknBHdlc0s9E7xD8ROGn7yjkXu7VtMDp3pOAnflnr5pWFxtTVsm9/4bHKXuI5E1kyQRrrZjcLbnUkdONuStxPNNuvSZDm7DfI8PAjkTuHEaxtW+Zk7z3c0+4Uy1i6979F+4g/p5E/+IZPKMRiIFwjHXiesc09ZC8EqnSrC4+Ntzqp4LzxlB4LdYuPXyHrqhUkYcSPO7dSg2pYlhiQZlVRcBzUbop5JVkD7VfRJ6Vw6uQ8t9FQXji/aMOu4dXNTPFl0zHizrih7cOu1PI0UiMMVYG4jkLuhOsMYG3T0DPbc+BYRcPSPGbrN55qt3j54jMlUBwviGPbyF4VHuaGH/qSD+H4uauePKppCP7OZcUbttRytDNG2dWBuPIOslAdwL97jHpOegWoIVhjA03aek81kuTBuoqj0WzJL15jtu18g93EG8Kwxhpc462z9F3NbWwtDNGRgVIsp3ykmuwmhPon5HbyB3JKz1pOaQ8WLr07LIAqqMwHNduYGmoX0ye1Ff73jaJijowuKsM4Pr+ulEUSDWdJ2DPZBvlXPdjNMfSbo0DYObCYgbqwoPQfRN0HT6/3Uj/Z0cY01OfBmz9HNjUIY5Y3F6upzg23RYvQzezribaO8evaCS+micYVcw8UHeebOoXgPxoZOK67RaI5UMoHBni4rr67oyH3QqQMFX2B7xtSRiKGNRgqjm0pQXoKu7FH9k61NqOQxyxt4jWNvrluHUVDDgU8Wlj8hptAL3kPpzSaXY6zzbUKfs8pwE6/dP8AI6LUzmOWKRbmRhoPrepbPxY10ux0AWluetrCtzTyfJRoHNxSp0CsQcRve1HqtA5jlikW5kYZwR61qmuVVzAaWY6ANdqoBq6sycWPsLqUc3UKY4XJWgcVve1N22pnMcsUguZGGg+s5s/sxrpZjoAtOo8tryvCkPsrqQaubyBPNT3XJUe5L8jotSuUkikFx6do2+sRcaipcHeqdPaY/LTaQA1dY487O3ToGoc30CnySvReEnut7S7LDGKUYxzp7SNp9XwvdUV7rgdax+03cLR+m3Hlb2nOk84DYxyDCSF/aQ6DaRroa+NMF1LIOKe71YcwthJFQ+jNUjRlewvfamUJFDEuSqLsHOFOpSWKVcpXU6CLYvLuUTe8f+EeMPdz9Nozkuji4qdRHqmTioMEGtjmUbTYAMoK309K3ug+k3vHq5uWF6063yTMPyLebAXtDlZEq9KNc30l3AroU9M6pF43TnsxO8VkXCgmGxvkcfUxzCzXMGdfPzr7inMNpt9pJdfJKdbtnP0hF6w5WXK3Qi3tZRe1O18cy/oa481cSlnkdrlUaybC9Jt1WF6j/CGn8xtM2VJLK5ZmO0m0RvSWJyjKdhFhcvlSXCpjG3Q/jY+lkHhxnUy51PT9HMLnhmTKU2xZtzKl/wD23+R7bQm54Z0KsPUd90lfUDIgTXjxjsFluPlFQnm42/DTR0nH6RfRDHhyHUi52NjevlT3GpkGzQnjaU3vLK5dmO0m0LZUcsTlWU7CLG5Id1VFyn/FGj8wtKoZJEa9WGsHmoizX+k7eyo0mytwKVG4U/vSnT0Zv91NKHguNTLmYdNmuRZ77qac9J9A7DhZheCNP0d3m5bsmWL8rjEeFs/kc5CTqNQOZu60ZuaKeMo3f9fJ4VZON7gX9Rz9Vl4W9MMmlQ/lzv19lohkpHGoVVGoAfRqLyTost6NPffTQHpHpnYMLNmLngoNSrmUdH+6zcOlduFB70R0dGa0ue70kb2WGg800ynyWgjbzkp1n2V22UnyelQ+ap11KPn9AOCIna+anH4bHR7p7rP6QGDxn2XXOp+kObfY+Eu1WzjqtnFJX8OPoDjEdYNk/vNMN+iPWthnB+svgscSFmPULNiZa43PdsjHC8LL9pWjzQPuxZu2+yC5URbgB0fSJ6IOLyH2UXOxseCYka6aoH4jDR7o7/oGI8opXPmqhdTD52hUeVUEjeciOse0u3mklXgw5V6UvvSfJbVLZTySHuGobPoh6a545R7LrmIsBwqV24E+2I6fy5+n6U2Yf20ce9yfEtxsc0VQgnjHg3ebLmNHNc935HuPZfa+7z9My/L6m2ASCIuT2Wb7TdGTez8AvbusLiYKYbxF0X4se0W0yJGN8PSxx+mI4NKjcCDbKdH5c/RY+guaOIeyi5gPoqZspJIz3HWNlol4UOVclV70fzXmixjqa5cUpdarrfwtMxeSR2vZmOkn6SNgyujXMp1g2wjh3W0rqEw0/mtMoeOSNspWU6QR9O2BR1vB6rNx4Yt6b9y6x0JKJV7GFtCVNMVPaD8raPJ6sX/vgWXPvMYm/gJsNE1HIniLdH+8cwVSTY/dUMrDwseNUOkV3Uxv7rHXK0rDqAu77Di0sAjB7bzZePWytJj0ZrXXZNPCsY7vp4VLySSNkqqjSSbYxzbraW1iEaPzWkYszu17MdZP0kLB45Ea5lYaQbYR01c2CVWpW1P48z6i9mJuAFsYqzdOM4vrSI6ve7LHP9OzedoJW9HbGeKe6yjz1LJwZoT7y/PN9VuuukiVsOuzZ8qgiN/db/K4P9Nl9nc+JfAWH/4uD/Tb3aGMfK2pIwPqjDzNLHwppj7q/PNZW81QRN6W2Q8Y9304zWwio905DimpJTq97tswvVgbwRzOQKXklkbJVFGkmykpUVK4PW9GpPH6lAb0lha4/wDcbLegu6CC6nl/OOIe7otIMpHRr1YawfVcYynd2uVRrJt6DboOL6eL8g457um05veWZrz/ANhs+pMQlPUti9F0608LTqHjljbKV1OkHmapkMks0rXKoFomuyL7nqyD6T7NS/Vb/Obn1LEx3e4c6HosRwqCrYK5PuNmcd+z1SBwaCkYM4PvtmQd+y1/m9z6ZiI7vfOdz0/VZWuyL73pCT6SbNa2qUEkU0TXqwPMxSJlyyucAPmdlqaS+npr8ZfxJNZ2aPq6m8MpuINk4PnmuqEXY+nrtde9FP5udf08bpF/qW69KKDzk7fp4vSbrPwfMtfUOu19HVZjeWY3kn6vUyX1FNfjF+JHqOzTarTLilQ4EfI7OZajTLlkbwGsnValc+S0gb0z95Jrbw+tRnKSSNirKdYIsuH7QcmoUbJNPX22fPR1xEbX7D6Ldtj9fFkzUdCRI1+0+ivbZsP2c5VQw2yaOrttIcp5JGLMx1kn61VOPKqQt6B+8j1N42rEy4pF8DqI1cylHGZJZXOAAtSOfJaW+4yH7yTW2zR9dFk/udb56K7ZfivURY4GeHz8BP8AEOw2P3MoJHSM4+tj76UAnoGc2GAnm8xAD/EewWf+50XmYrtt2LdZNj9dq3HlVLfeYz95HqbZptWRiSKVDgQeZKljMs0shuVFGm1HIfJ4cxqCPtZPkNHqFc0kMhRu0WT7OvTKa784ubvscGlp7p4unQw7DZs0LS73L8DXGx0j6mNJsueFZd8l+BbzYYLLUXQRdOlj2Cz/AGdAmS135ze3fZs8k0hdu0+oayQeUQ5zTk/ax/MabVUYlhljN6up08yEal3dzcFAzkm1G/CcYGskHGPuah1+plzJv5dfha8WH30OQ3attL0tQGHYR87H/mqRsPgyrHMr1Sxsep7jbXFKreH0OuWVV8bDOqVSyMOpLzYf8rSNj8eTbQ9VUBR2AfOx+5hy27Ws2dN/KL8K3D1NWPwXOJo5Dxh7msddpFDo6G8MDmIPMfC2RulUxn+3cfZA+yNOs+rBmKsQbfg18qeBtddwqpm8bLmykjPitv8ApKf/AOu3/SU//wBdmz5KRjwW113BqmXwt+NXyv4mxzlmJPqyZsjc2pkP9g5+yJ9k6NR5jqlLq6pjP/CxniA+2e4co6ZLqGpkP/FRjiE+2O8cxm6KlKKH7saZWGod5tUOZJZHN5ZjnJ5R07iSKRDcVYZiLbnKErYfvBolUaj3HmKhW6GK/hTy8VFtUtwUHoxJxUXYOUtM3CQ+jKnGRthtMt00V/Cgl4yNzEQIZJJHNwVQLyTbc1mioI/b1ykaz4cp90mWKujz5GqUDWPC06CSORDeGUi8Ecw+B3WmRuyH5nq5U4ncmZ27YfmOvmGrr4Nz4j7elzsXP2WncySSObyzHEk8qYHEkciG4qwxBFqG6DdCIe3ocbGz9vMJRxGaaRsyqLKd6oYCcIoRm6znPKtjvVdADhLCc/WM4tWRCaGRczKeYOPJm3VdDnbOkXzPVytkyptync5mzvF8x18wTjeKGI8ec5uoZz0WqpGllkY4sxN5PK2lkWWKRTirA3g2QbxXRDiTjP1HOOnmAFtxS1NS3ZpH48nWcBsHK/dorTVWUeDG/Ek6jgdhseX+7ytBHknhRQcd/wCUdPLHcFVgkyjwpYOI/wDKejl9AhkkdsyqBeTYNvFCh4sC+j25+vliW3iuQcaBvS7M/VadBJG65mUi8Hl7u6L6jJOKUoz/ABHDov5Z7hD9nyji9Kc3wnDou5eU8bSyOcyqBeTaeUpTKeJCuCDs5ZwShKlRx4WwcdlqiNZY3GZlIvB5d7vm6TJOKUy+l8RuHby13Awjyji9M3o9hvHZy6QFmY5gLLJ5NRr7MCYL24nr5atJ5NWL7UD4N2YHqs4DKwzEcud2z5DDccQhHnG+HDr5b7iHyGa84lAPNt8OHVy53AHkMVxwMn2h+LD9PLfd8eQy3nASfZn4sP1cuKWnIp1PGmbBB2nsFpXLuxzljnPLeJw6MM4YZjaqpwKhRxZlwcdo7Dy3jH+0KwA6ThGD+8evlzIP9oUYJ0jCQD909XLaNS7E6ALVVSwg2RLgncOXNLUqJ9sTYP3G0ihlOsHlrut/5dT6+H6Z6kDd3Lvcm/c6ovOPA9A9aFe/lruPTb7Mujfpcf4Qvby73Ypt9hXRv0WP8Jbs5aQRtI51KBebV9XJIuxL+COy7l3QVccjbUv4Q7L7TosiHWpF45Z7pZNBDjjw/Su/Tlcvdzcqgmxx4Ho3/pyeWdHC1dOB7b8FOwBvi5e1kK10APtpwX7QV+Hlm1W0MBv+yj4C9y8vVq1hnN/2UnAbubllT0Ugix+0YZK95sxvJ5eqbwbVFFGJTfjvijJa/rHLHdWr3yQX473GL/Ejl/uTV75GL8d7kF/iDyx3EpUprr80jcNvFezl/u3SvTXX55F4a+DdvLCnjaV2OhVF5Nt0auWoN+jKYkDqGHL/AHOq4qgXaclgSOsYWqI1lRhpVheDyv3QVdz4sfvPS/cyuYHc5W3Plx+79H9zJ5Xor10wGs8Fb+/t5gXVK6EHWOC13d2cr6SXyKH8seHjfzA1cvkU35ZMPG7ldufRyzdJC4DttO7SO2tibyeYGB1kRtTA3g23Qo4puglcR28ra+shhqZEW8RxDhcI6L2VR18wdBWTQ00jrcJIjwuCdNzMw6uVs6lJIpFylZToItK2U6DF6InQfc1HmBibKRDg9aRoHuazaBQkcUa5Kqo0AcrplKSRuL1ZTnBFm4dTTJwmojr2x+HL9eFTUzcFq069kfjaFQkcaC5VUZgBywcFWVheGB0GxJkrKBBeaX3k1ps0cvQRJR0Di41XvPqTZpsgCqqi4KBoHLI4EG2MtdudGMY9ckY1a15d4S0O50gxk1SSDVqWwwAHLQ2xkr9zYh6WkyRjxWwwIPLc4AC2ElBubKPR0iSQeC2HLcXy1tBGMJxpdB7WzTZDcysLiDy1c3Kqi8k2N0tFQSDCAaHce1s0culUvVUii5azaNUnjaJijo4uKkZwRyzlYIiILyxOYAWZQ9LSML1o9p1yeHLyIZUsSgKlaNvv7dNqdzHLFItzIwzgjljUOI4oo1vZ2OYAWlGVFEwDJRDZ7+3Ry+hS/UlYBxW97U3banbIlhlXJZTtHK+obIihiXKZjsFpkv1pRg8Vfe1t2cwFNH5qa65agDNHJ8jotSvkSxSC4g8rap8iKKMXkm1TH52a69acHPHH8zp5gqdD5LXKuJ9yTWvhanOIPouNDKdIOvlXOcAMyjSzHQBaoX9qrmXEe4mpfHmEiB8krYx5yBvmNYsxJp6pFO9VC61Py5Ui41FSw81Tp7TH5WlA8rrpB5ydvkuocw0uY5njb2kOg2nf9mr0XD8snst48p4W/aq914I91Paa0eLvneZ9LudJ5iKlciWGVcpWFsXlpxwpqQfzJtzjlKCGji9GWsGz2U29lqZAkUMS3Ko5ijgRbF6jc4cGOfbH7LbM1oGKSxSrksjDQRyhmYJHHGuUzMdAFhdJBuUcUj1GXWfdzWUXAAXADmNjW6GviTFtSyDjDvFjfvM64xTrrRuT7nhtddHEvtO2gWdfOVjrhF7sQ0dOfmQk0MOEh9pTnU7bA5W+qvnqcapFH8Q7uToN7VTpw5hqiGnpzWX03zySt7TtpPMkwuIIwIsb3kojhBUH3fYbutTtkyQzLkkf9tvJmdsiOGFCzMei2Dx7lqb44z+IR6R2DDptGoVEQXBRqA5lUHmKyIZM0R2NpGw2v4NdAnoD8ReL05uS6tdNujOpES7F9s9FnW6fdCYXyydHsjYOZiQZLI4vDDURY3u+57G6CU+4eIdmbotF6Ucy3dY1jaOSc5yY4YVymY2wdNy4m4K/4rDP0C0ChI4okCqi6gBzN/Zy3XSxHWjZxZb3OQv7RAvvKPS6RYG4g6OSDY+U1CeclH4aZz0nCzC6asl4U8vS3yGHM+2PldKgyXP4iZm7ja+6PdCmBeBuk8U7DyNBulq5eBBF0t8hjZLmDyp5iJvcTT0mwwAHNDKMl45FDKw1EGzcI0r40znZpTwtfckuTfFLtV8x5EnOIlwQa2bMo6bC5hudTm6JdjtnbqtCMmOKFAqqOgc0swueGdAym2Lf7PqmJjOxHzr132Bw31OC+1WzHq5CubsiCMtd0nMOu3pDc6jbhfrk0dAsnEhS6/aTnY7TzUuLjHPGHHfY8Ibn1bFojsSTOOu/ptfcrut8b/lYYHkCc+8xkhek5hbBv9n0TY9Dyf6e2y8WFLi20nOT081sguaKeMOp7bHHeHvkpmPivV2WBwrabzsDfqGbru9ek3GqlG9wL+s4dmNhcTSU98dOp1E+k/daMXLHBGEHdzYsLmVheCLPjv8AQ3KpOsx+j4WGP7PwJgPyHP1G0ZueKaMo6naD63kNyRQxl2Y7ALNjlVeMxGyMY9t1lx36uxQHZHm8bILlRFuCjYOba65XkTziflccIdtjiKatXfI+gOMRZP7zR+ej/dxHZYYEH1icABZv7xW+YS79WJ7LA3+TUQ3tOgucTa64vHH5xvzOeEes83Zs395pxvM3xLdf12zrTbopf/8AsT/TZf7xSefj/dzWXAqwuI9VtmVFvJ6rNcd/rfMJdr4WJ6rYE0+56ZI+N/8ATZR/xMq77N8bXnnCP2m8hXG3KGNjmRv2iLsPC77DH9nl3uT4Xu7ibD76nZQeg5vUhseOlO2QOljgLHOHk36UfpTD96wzqX3mK/oXHvsOOkAy/iOPOQ2dXW8GzfawJvLfuXW4qsRMnfjbQsoaA/Ow49IyzX9Sm/utmyaineM94+t33XU1M8n8IsePWSLCB1E5XdbSlOjTHtwFhoaQRLf0LZftJIRI/Te19hgANHOg2dXUEGxzslKsbH9SXGxzeTVjYfHlW0LLCkg7cLaFlidD87fh1YB7CLDOYXR/nYaqN28BbN5ykkXxFtTC76HUq32Obe6V28BY5sqjdfEWPGlZE+dj95VgkdQtpWOJ3PytpWGBYx2m+w/5qsbH4Mm2hnplkYdb3my5gi3Ac7u0WIuN8SnCwxGVSoflZs99DHj3W/y6L+lv8ui/pb/Lov6WGYjc6L+lv+hj/pY58mkQfK2bCJbbFu/+H0//xAAsEAEAAQMDBAIBAwUBAQAAAAABEQAhMUFRYWBwcYFQkaEwQLEQIMHR8NDh/9oACAEBAAE/EP8Ax9RpSGSA+2pi0RNhnGaFidQIDM/1xYpYnFCBxFYi8TFxjOKNCRwSH0940EgG60IElDomblDUAcPsJS44SCD4KNT9SRXC8pTek3hP/wANVKBOQ2d1P74QJyGRshSbwn/6aqPqQK4HlC7044QCD4INagDh9haRAkg9FxcoAJBNx7tMzoXOyq2Cp3NDxENhR2gUbh0WNfanHPvbG6APan5a3Wf2L8tbjFOOfa2NkAelG0CDcOqTr6VG5oOYguKEzoXewiWTuqTiQc8c5/BV+6Mlwr/4hhpYtfDTCO0xO6/uRi18NMp7TE7JV+6Elyr/AOYYKRxIOOOM/k7oulCkR2kLywJulMGozgdx/EEUR0hwCy3Trpj96DpDgBkujXTFMGoTgd1/EE0NKBIjtAHklRZe5oUpTwg08QNJpinnqAbfgqUvL5covwMpeXy4QaDTEPHUA3/JQUpDyg0cQHclxLSgxKq2ANWl2KkoFm1EnaOTTdzbsxmL6AHwrdzLMRmb6AlLsVJULF6rO88ijEtKLEiJZE1O4ztKRQ3znlQGrQVo5QI2DCvQ7OX4hK0MosbplXs9jI7SkUd844Ejo9xIY4Rw7INrQexheAxk9BiHoAfFjAYweoxH1BKeMgFs7KN7Vezg7gEZ6oImyAAqtJZeH0+r05XaRldl50kyqt1XX402XnQTIiXEdaSy8Pp9Xpws1nIRnqgibICIidvlJlDD0OVbAXVgqHUAUgbQY2yjCy4+Ql1ANIW8md8oykORJlDD1OEbI3Eh7eTUrXB8g6wKCLQBXLQ5w1tgc/JBF4Arl5cY6WweJqVrA+QdZXbqZKV1blnWD7glqbZrL6Sb+Ag+Vi2ay+km/gZKEtQIh5TOsj+SHtwtL6H2QVYGfum3A+cDYNnRgg+X4P2e6JsK5qw2ofk048oHWVh7bRKAxGSvLoGVQqEC82ZZIshgcLGvzI1nopFiRBrHBmKBGSUNIH/o7aCBI4KlRsAEzSmYipSR9ka2WSPmizVkU2I6yRDCs1kQbjygkRMids0TJNatl+R86RRayILqyV3rLIJ7YqwJoK7Jo5DrdpSpkOJpUuVXPzrIAUtRAuIgjRCA0gmI2hL7BO2A2VQwCP8A3AS6U4hSNYNgOIwfeV+fWMYNYPZLjoB0owS7nbH0Io3O1zq3IQAyrRXmuUbHMKeBOvQMygDMG1zsVpc7XKqxaMu5MXNaJ7dBD8I9CDIjojTibDRaxBwfgEnaxMg3RIyDdIA3SpeaiA7bQEPM9Bgi67ZgW62eYUVagQ8BNx7VxBxXnbxti8d+hTbGroiSZyxo7VCAwqmGGB5Ue6bxaUy5g2AgDQDoUQQmUYUtFTzDpQ5CrcAJ2SYTRHtSRMQRhUkDa6W+3Q5qUYy3MJ0kIMA7UCUcvX25sNqVBDmySwfAejodGWVMKCQzBCbmiTUaDSIlkR7TzUDnEkT6h5Ah0RioYEksiEnm81U9pyOdyoWOMx0STfMxEobvaZDefMxMAHKgHmuev7q32uibPjllCpbAVwtY4JIBl+ntLB8PGFcfEtx0XtnX1qjxsRfLtKgi5TVzHRYZQJA2XOP+odpRQ32zAfi6LkSSohoc+O0kPi0nH+gp01KaWSp++i+CTXET7CoA9icyZfc9owkHBtB0aDeD6pMNP2HCdo3jHGGFJZ9dGrLYbwj7fvtGhmpCuPxtP4OjZjewRb+/x9oyGujvKp6NI8h2wJljVD7HtG4AO6lK/wAfvo0EoReUx6nfBSHyjhoivpl2jIlRAMW74SLJBCFkYRnHRoTZLrqNns7RrEZdF+V0aYhIBJkfUuO0bvgXTBmejYjKOg2sGLTCzpPaO/jf4Q18Wk99GmNXdpMX/wB+te0SoxYDMqOjSJsmzVL6XrtHArc8klr+aW04ZEAn4OjPKV+SLtJAOYEwCOuiy8SjZRgKeimgAMI8r2ksujCy4eui2BFY9ICrxDoIYEAEAdpGjkalIpOll76LIPCJIuM5v+u0s1BtEyWDosNJKYQpweIBwe0sgRi3EhqbdcxBgO5GnjoloIhGHL7SgTCsESBHKivntNZFAUJcvKt6JB+a6Tobo3HtOY1aQTLZPYcLokwnQJKXlz007TmMyJT5/SpxkoIwBw4cDodsgcZhfsB5Ao/MswFFwAHajMyjoDn3iXE6Hm8JFpEfKEvLftTPI+2a0aWS4VMVMYJkDhEehQHc1MKutglOgNP23Ioy5yqee1SQrMdHHaCO6dC2X/TIzPo/5dq0/fILbBcWA8LQFXoRMF/HQajbkBebQFaJ80UIEK3SVd3tYxtOi7IDACbk6DKm29UzC3FB8Ofa2SwbJUPu8juUgDL4JsLuFjQPQI6EiSfJOqyRsd6NZ8MCIANAO10rOkACJXYC02AYFpkHylEAbiIifPlTx/KXTQJS2AWrDYZAck1wg0DnthY6sS0gAMWDnDq/PAoBVsBUAlXX4LOBC2gavbGPTvccA1EaU83yc5R9fA7x84KQkDTEkcnOljRoAAACANO2TeWJhELrRPsk1phKySYsjUTJoiOPm5tI63Ej4Y0DQl0qGW7YCA87ur20eIWcFo3w00yXK0V7AJhMIXBZH5lE4QoQJP8AFsigOCeNEJBzyfRAWO2yVo4Ryyc6mXDTUL+MIQcfLx2HKEPisK6+AlQoT4BEJ9yI0Dle3CZnKAFrJiGv5WiExGgYQhcRPlSyhO+kBrqsUZUWUQ7I3u4NWVu9um2CTAlZTBiPRZCIWKawhB+TQ90wILw+uX1em6TB61RuzGrLd7eNcqQCmICXbLLUtUU5TIjg4TILJc+RZ4QomXGfQurG9FtIPhyuhcNjzft8hNcMtkHVcrEyQ1IRUdlIMQbmTCHx4w0L7GE+L7HRE5owjHvmvzjSO4BYHRiGtmh9OEanNeFcWA+/LR0+MGoQAEq7FO1inOUWtbO82zQB9tiYA/5bvcINU1REKLJR7JLmuVr5brNHATKFqawouJs/EtUc9uNsdUCmoinuI1jYtoMoAQEB24I4JbIIkCGdUDml5WSQuEHmI/UGWnBRFYUB9Bo0VF6QA5LD4ht8MNQgAJV2Ks+0Wdc11txsNR3kQQ/W3fLBofqD2skhcJPMRTjARQJiUoZ1BOe1Y/SMFkqLAGrTGllcYR/8DY1pLjnz9US1yqabMoR8NNwACsMnAA0Y5VGeEtU66LBsLxaS/wCmjX5svhw7Jc0oSibO8w/0b5ZTAGMU3hyOiSOj8GdMzAAYgyxyu8ZoQ4UAmvKyIcSeFYsfpjbpvY9LqCwWmWC9NwBCuMnIE0J5VyqabMpV8tBccefqiSmNLK4wB/4G5rQ/SMNkgLImp2oJ1CJzGtlvoH4Ka7sYCGwPYNnLf+1ul35ZdcbBqVTZaRtkHUys0cgC0gbiJk/TGJUXa31neJlqNHfSnwDPTNXFLd8ACawLnJZ/fmLSCgNX2bTpJKNI8TvN8b0HZUeewAAcH6byALQAuquCoVNlpG+AdTC7SinTgyaAbA/tK7sYSW6PZd3DeidQCcRr5Z6j+TtMCtQdpjYXL8EtqA8IwNbb2Mq652/vxUIK+Qui43I2dQt+BG7osNk/UDH2EtsIflDT6Fkpm2eLQOS0idIsxvfj2FIHaAQjsn7lAYSBeAVqHE6RXeZiUxMOSiY4VLzwx83slB4IQOwAsH6gt+RGzguNgqUFfIXRZbkbujP94HhGErfexgXHG1ArUHaZ3FwfDDbtI3qIAElo9bzkcsGWWAlrwGAwCx+k5PQNgdR9rGkUMLZdULt9pWcCf1UhgQiSJTsqCE51L5Uu2l5NAZLaWiUM5FXchNx9lIyxQDU2WDSIw/slC7Ka2ANLxiKQRzaljcHNBF65JqpC0k8FIjiJEu8pvv8AWWFsuqli+0LuDNOT1HZHQfSzrP6RLAQ15DCYVZovURAILz62nIZJMdoFAlbVc68o+4nBxDpybD4UhNJUXVf1FrCcJZAXEdSlL4DJ0gMOF9xzQL0DjJJARNT9cIowg+yrNEPjuQnccnqkrisAPEoOJoMPJnttLijBP2QkckF90qOM7Em176mmlqSkPQ04ixmWRSeQ9f2CYb1WQF7jWwFFJkgfaEiZM1q6Ef8AIP0oxHrJ5SHQjBZO+qVh6o9UdPJVx6RFHhUSoDcJPv8AXBegcZLAABq0pbAZGkhhyvsGaWsJxllRdV1f1HwpCaSAuI1c68o+wnDzBpwbIiSNuzzhvEgiVVsAa0ndlaZjTNCbv2paCFSyru/ryxzLwVu++vGWprQINLjVCSYnAlb/ALT8/BNOEVMYrJY2ozSQkBzN/wDSrbJlJ+djn3T6OwRvFXjhArTGMVXtzKLXGhWL/Aj9miDS40QkmJyoG9SxzLwRse+vGGhr+utBAoYR3KTuytcRrmgdz7UYbxJIkRLImvZwsSWBEqLAUxVblg4WbeM6rW/ZFaa1Ph0TVSOpTMnEoGByPq5/Sg3zDM4BZPHxab5hicosHmiZOZQMLkPRx+lNaa1fg0DQQGh+yYqtyxcLN/GdFrUWJLAiQFkezRkBAFpVX8BdwUnyR0KI8WjoZZcftEuIW7Jd0BrZuNc6cmA/iEbh8TxpyYD+YTsVJcBt2SzoDWzYP2ofJPUonzeupkhyZAQBaRE/I3MPZhVX4kDAGUbAuqBTtPDg5YhyZMJat/24VrOAriJcTerOig+0u00L5p2YlMXF7mw3R4+FdiLTFxaxsd0eau6Kj6S7zQnmkrWcJXVW6u/7c2nlydsy4MuENG9Cq/MkZEyDZVxEeyz/AEbGAwGUQAuqFEZBLoEhBZDBgMGr+6NkcCG4gIm5Qcdq9IGnYq0E6Bg2uO/RJ2oIYEiMifv0hgSqwBQnQcG1g37JG1Bz2j2ga9iJR2R0IbqCq7v7pjIJdEgZLAZMAh0aP6NjI5DKJFXETspHFgwNpuuALqhT7FiwWiMhjAMF5X94AciRGEaXgIL0LQKqHJgl8BMAT5iAvei8bLz9dscn7svGycfXbnBRyYZfATCMeYgbXpeQgvStAqogciVWVf3p7NiwWicBnAEN4SeLBgbXZMI3ETslE2RKKVP+MuCiyIGrKANV8Id5fgVbGJUjkGrSrDPtkwW5UUrhAbqiw4FoIIxAuYmF+qO3jCSPv9m9vGUgPdBBGoFjMSv1RSuUFugLDhWryrBHtkyW4UrY1ak8i/AlkQdWUIaJ4Qbw1E2RKKQP+MmHsgF5xJqULAAqtQhItUqeA5s5aB8IAREZEyNWtIsaGhAHqi9LAo/lyfqp6xEZt4M0ONqUPLlgo4fgc0ZPqlR2ShT2mvw+M/3/AJfGKFPZIFfaKOH5HNGD6pMWFJ4r4f8AiajrEzm2lzQvSwqH4dj6q9pFzR0ZA9UgRVZVyvwsISLVKHkOLGGohecSakCyIiJ2OUCqAXVp6k6x2XFqlxgjBf4oUZGKdo8ih4Ro+BxEWD00IDIGjTzfunfYGD23FH3/AFZMjfZGD32BD1QiElaNfM+6PgcRFg9tO0eVQ8q0qsrPxb1I1jssrVbnJGGwgERG4nY2InnRHcTY8utukIkKsqt16hBIEZEbjUxPOiOym54dLcZ7Fr6hyLBH0mbBiUa6XVfKHKr1G10uq+UGESh9Q5Bgj7TNwxC9iRJVFIwsNVcuhLTeLkGPYWhW5ZW69St4uQZ9halbhhLhSkomlIWGiOHUh7EH/HwvJOABVqVbYEL445ttA1epyaSKRfHPN4uyNCj7j4HkjIiI9h0HgcpaimmPS36pQeFwlqq6Z9LbsMU+b+VFltMt2GtL8BQvUHKqvVK/AULxAwiDRT5t5AWW0Q2YadhGcO1Acr/rmljGaS1sY1jVeOqxjGaS1sY1jROaZw7UhyP++ewavI8AWLkcAh7o0Tq1XleQLFyuEE9wah2CUyZYkrONbvFDWp2f2lyHlerY2f2hwHhKEyZYkpONLPFDTsA4MBVWAKicA2xmOeCTYTPV418gxMbZJJuLijBgSIyJ1+s6oYcI9RRk3TkpVZWV6vFGRhKWdUMuE+qgSbhy9fN9TCESHYBp/NU2Gog0bnrN2OsT81TYaCTVsOs2ZpvqYSCA7InXoMTLAshXSL1dZ7Mctw9BN5vd15c/4sJkeAaxl4gsiaWD5XrPGXiC6JrcvkKc/wCLIYHkTrtW6gwpC30O5x61k4cOVJmTzOxz66bckMCJVdAChsqKbJYNpS8vrVbCgmySTeUPJptyQyokR1EeuWkhrJOA8S63WghrpOE8w65TwqjMVnz9bo8IoxNZ8/XCl5pnjbW0puUs3X5UVHVVXrdZuvwoIOiINS80zxtpeQ2Ot2BGIRJK4OuQyIxCBBXJ1sG2uNAKVfRTOjRKiojYSY3XrlHxplBUTuDMbhQjBFZASP09a4LDEwEsOpIDo9dnv8hIkkurILq9aiSWCNkF3J4kuuySSGN0lnL5kOtOcKTkn0NN2dxySANgNnXbynccEATcXZXBmFyT6TrOD+VkJOEtwr117B/K2UnCW6176zv2OdJIg7K0bDr23Y50EgBurRsus1KtNIsQ7SD5Xr1SpTQLku8I+Q6yW4UVjhPIL6pRiDNVZXr1BgRsiMjU43gl9gl331iJsQ7DLORJ1+4DIGQ+sAsdY25WhIFL9E9fr8rSgCl+iOsGM6fjCPANMyFSmPhFAcB1+TIVKI+EQVwtYzp+EA8idXpLZsgq4/B2BpOQtki4/J1fwqJ7Uj8AZ2BYVE9qR+Qt6vLDDtNgZ9gdZYdpsjHq7HM1liWS5YAbtKOVbLSPKr2BccK2SgeEGlzNYZhluSQm51a6JzS5aGGwWR2DdE5pcFTDYJA6tKVdoZCiyVdeBBt52XhsO/YG68CDbzkvLcN6KVdoZACwdXHO2mUhCyJSF1QlDI1TfxbRHXzx7CnRFqG+cS0yM7aZSALAHWA3FmCoQbIjCNMOnZlXSLyTOXjjrxh07MK4TeSIy8cjcWYKgAsAEAdZGHdAkRyJqUr1ZfWyVnNC5dLWrFnrnNilejL42WsYqXbLa1GHcAgAwBodaJDAhEkSoCWHZkH1yhnJqU6d0CETImj1u6dwCVXAGrUhLLswT64Uxl0KCGBABAHW5aQh4Yk7GtFtF8p1gwCYRG4jp1qHWDBJgALqulFpCHriXs6xW1Xx1yBVS0G7pwetd7075ALqELiJEdZu+QC6gC6qxFAVUtJuacHrTe/XjBSjF3bLG3wN70jEgDCELiPWKMSAMIAuq0QUqxdy6zv8Be/X17egQW8ZC3osuI62xHyJ1eDrbFfAFXt6DBbxsLeiy71+TCwjDv8AQyyvakVSTja8iXEsjJ1aCqSdbXgC6tgJaJgYRh3+hlha3YKEo5EgMRXd95GzEVzcJ4c1wdVxnZWZ8jY11aIPeBuBM9zfeTt2EmRuFmbOuhLZMQ3qQQBgus13VzXqlWkloQ3/AIAuuKCkmJibuk4bGssvYYNuzFsWae54ZLU4iAzCcEYD1kOh1MV7QvBNxc5oWNUooviohAyLx4MAEHYhbfSaeRH+clTlNLs0u5f5El6RGHqRpoGHLRrTXN+wHJSBOwa7uXsUHElBIjkSmljKxV10E9jtTw9qqIUXHqFQB1FkALqulGPQkE5WW41ms0Inx4AgALAGnY1cdQlksXjnwOlPChETHiPJk1OnzGYRSTfALm7pNRHIzk5dOOjm4LdkCd+7J2wzoP4pOfLvL5QMYHUw6dEWNcCbtz52csCRmxgIK+Q3NjQC3ZJn8DyiyI5KnsKbXXY33chmk2sQq3JytBIlx6ZD7pQ/AC9GgsO54XQXiaugF9lTSAFgDQ7Kt10AkNaxk3hqWgs8zNgpXpktyY6Xh5MEBkc8NhqlDBJNK1FjxnM9mE4ZEuEKLImjRSukB2WSZv8ATRCMwq00TDaIj0mZr6FzYNN1sa05HB9mzH2rxu6UVIpDMAAHjs3HOCAGyIt0+nUSrcvizLxjA0/IU5ZwEKMiaPR+acRg2HJYkNryxQ44hj9Vyx4ht2fDSRBEO2HyHkptfxAOlieJHaS/Rp1rAIN3InyLQpTBBLnMyOV2DFDFMAgAwB2hV+FyfICJw0+hDNauQlHieFTSaUjGit+GTUOiV6aTqxyI5iCpuJBqzgwukDzQQkhWbAHvtL58bGpDhNEuOGkCGEe/k7ERc0tfRMANBZ5T0KMhAvBhKzygo6VIAqMxBGiRdSSjugQec/2gLz2pSu67zqQs8kNDyaIgzkcZFfAqYLy2CxMo7aPQLGkgchY0mbpagDnJ14MHIGZwo8LxBR7ai6le1qKfCA8C3koaXg8aAX7yFId5ioNGCZ7FcfO+SDBtmFRtLYNRCV+FAI+LqUHKFjneF3ll7YojkQSsiNkdqmR6hW6q7TBhQwJf8rPo3l2rivytgYj5PlzmWYU0Eq+Clo/U3I2Z80bVb2WAFalbrmh+TkDMAWDg7bTF2BnJA9Ipd/nlhYdokfNX2lR2t37EiKYCSBCJkT5FgBgEquADLUVhGJlakMF7KaISBO8It6zAYzVqKSEfI9p27SGBCJIlNLzMyTdleMjigU68NeAvRPk1Mn1RIMys2zRBpLAShGyNx+Ld2UOO4F2k7m5kjRZBsFpQKMnpqJLxYcNHbcXU6tknYg4oAAAQBgO4ISjb0TohDzNQNMzQHlTKsVVwjh5jTwinxJE89ISORikRRITJ8GcYiACVpiDRGcgAuVopPDf5tJ9xVm6kqJtj8LovCl1SaoMuZ7kF8CDDbI2aWDSTDV1mBfI1LdRZebMSHugR5LB3aYKx4q4N0C4bK+9GwUyEnaCaRUIj+5BUArQpWhaztcpn+f2RWAsuPGEUX00xC6qH4EpxNNh8RMXlh5Io8YgUANAMd0DtbBKciQ1/MhKMCfdPIbmyeILPNOM9/FoQvbSosJMg86kNqUHmqr0qiiqR49E/xRwcK6R5qZRcZEI7Wb0ediRajeH9FoJkqkG8FOJgETY4iTNZekNQsaVJu74MzzP8VHVV3zEL/NGBTgr7Qb0gv289oR/ik3uQkXJQRBPwqEHpojVQYTYDHd38NW/zTtJEYrIyYpUAwDDuTQLEQ3oiL+P9kWLFxQrYnuoaJOV0WnHIo3ihAICAaDaxUeweIv4f+Pp//9k=;" vertex="1" parent="1">
          <mxGeometry x="-38" y="292" width="97" height="97" as="geometry" />
        </mxCell>
        <mxCell id="hZm13JORJEHZNlpUktbY-23" value="" style="endArrow=classic;html=1;rounded=0;fontSize=12;startSize=8;endSize=8;curved=1;strokeWidth=2;" edge="1" parent="1" target="hZm13JORJEHZNlpUktbY-7">
          <mxGeometry width="50" height="50" relative="1" as="geometry">
            <mxPoint x="61" y="345" as="sourcePoint" />
            <mxPoint x="109" y="282" as="targetPoint" />
          </mxGeometry>
        </mxCell>
        <mxCell id="hZm13JORJEHZNlpUktbY-24" value="&lt;font style=&quot;font-size: 14px;&quot;&gt;User&lt;/font&gt;" style="text;strokeColor=none;fillColor=none;html=1;align=center;verticalAlign=middle;whiteSpace=wrap;rounded=0;fontSize=16;" vertex="1" parent="1">
          <mxGeometry x="-19.5" y="377" width="60" height="30" as="geometry" />
        </mxCell>
        <mxCell id="hZm13JORJEHZNlpUktbY-25" value="&lt;font style=&quot;font-size: 14px;&quot;&gt;Http&lt;/font&gt;" style="text;strokeColor=none;fillColor=none;html=1;align=center;verticalAlign=middle;whiteSpace=wrap;rounded=0;fontSize=16;" vertex="1" parent="1">
          <mxGeometry x="59" y="311" width="60" height="30" as="geometry" />
        </mxCell>
        <mxCell id="hZm13JORJEHZNlpUktbY-26" value="&lt;font style=&quot;font-size: 14px;&quot;&gt;Ingress: Http:8080&lt;/font&gt;" style="text;strokeColor=none;fillColor=none;html=1;align=center;verticalAlign=middle;whiteSpace=wrap;rounded=0;fontSize=16;" vertex="1" parent="1">
          <mxGeometry x="119" y="343" width="161" height="30" as="geometry" />
        </mxCell>
        <mxCell id="hZm13JORJEHZNlpUktbY-27" value="" style="shape=image;imageAspect=0;aspect=fixed;verticalLabelPosition=bottom;verticalAlign=top;image=data:image/png,iVBORw0KGgoAAAANSUhEUgAAAOEAAADhCAMAAAAJbSJIAAAAdVBMVEX///8AAAD4+Pji4uLz8/PJycnY2NhYWFjFxcU/Pz96enq1tbX7+/u4uLjPz89MTEysrKzu7u43Nzebm5tiYmJtbW0VFRUaGhp/f38tLS2fn5+NjY2FhYUxMTG9vb1EREQhISGUlJRoaGhbW1sNDQ2Kioqenp7apP9LAAAE9UlEQVR4nO2d2XbiOhBF3TYEEhwzhoRMHXKT+/+f2KGziMujjHXKJeizn1mSNtZYkuUoIoQQQgghF8QyG4dEtgTr7X+Fxx4o+Wgt08AjSvDO2qSRO4zgjbVHCzcIwVdri1ZeAYbWDg78BcN+hIiHGG43841/Z7OyVnCw8hWMf5K6iUfhEOcdfAwzvPX9s6DcKhjOICVDMaNhZ2hohabh8u7ajrvjiknT8KVxaBqCF33DxMJLkNCQhjSkoTo0pCENaagPDWlIQxrqQ0Ma0pCG+tCQhjSkoT40pCENaagPDWlIQxrqQ0Ma0pCG+tCQhjSkoT40pCENaagPDWlIQxrqQ0Ma0pCG+tCQhjSkoT40pCENaagPDWlIQxrqQ0Ma0pCG+ugbRnMLrx/mkb5htL6xY30sBO/66g4NraBhd/6Buy8/jilNrkJicizWh69hdN0yOIXAta9g0Ld5H/C/0TuzVnCQeRtGO2uHVnb+goE/RMAjDPfLCAdAX0dYW3s0snYXvhvjrbVKLdsxSvCL1829tU+J+w3iswiStPZq9Ljm2v3JrP9V69P3anqL2qxTsF8Dy9+V8jx5fv1lWW31z5jC9qHyZYi3BSLZRXkIXo0Qyfag/G/fQ/wOzD5KKSeolE+i3AT3wLTTp1LikJH9xDKUPnzxjv7EVCmmh+453QUotpWtQgEWRUVYE+hGUhwe31W6gmRnp1gKfKuFcB6sFIuCL4od3ayQ02DBsKLgf6p5FdduU9W8flgWMkWOEbW5FRrjlXJufxm9DVtx4sKwNMTQXwi+DVFtUjn53enPuAsD8SCVppjnb+3MnoeuMn+R9eZTN6vCPGOgJ/hFLD/9ojp/y2wEv7o3OYdSrDqxFBx2ti/H4Bf3z/syEdkMvRU1FnmrLfrlmg32GdfOyC5AaZCSjfBBJ4tWxB7R1ntLrRYh6L+l1QcxfwN9JreICFrc6/yFLuSEWKGeTo3GCcmt5p+cisD+8L3MEVGP4P2paOa6C8J29CrSlejHrMKzB8SoCO7txNQXueFzOqIuQeccYrS1GAkFoj/YApeKsQiy41Lth9grge2PRtE+T3Xw0HMFsRyG9QijPM0NKs3+iFUGrMWIdT14c6IXn/DiiMmSduiwEzH8IYpHiEnQlwX4IYpWOPD2TyN51w6Zu+X/2BsiOQRiNwPRneaphXOGNg+9AXqGfGX/Nop7HyPBkoqW6G8Y+vlS74qVWhu4mLsd2gn77OUB3/jw3lrAiW9fU3POLDDePQ2f3VkY4zvoh98OvfdPao5XBgUgNvzgzsUQyOpimU0RjOXGztMYkmYWwno1R0SsA5riIqHh+UPDs+dRHlDb2e1faSG3H78Z6JzhUNRNG4x3QLBsaucjAQTQUdQLXpBi89t9wN0jS9rue7F5FwZN23Uv3nGkEGhfQxu87QOnfQmtcrhpWFwBV6tyJevNBIPr0qU5KJ/N+qReq/xu3Hnw1F3w051akHQ+5H7lTitQup4ECzu61kbX6HDoV9I00/Ws28qdVKCsOho2LQXCp+suTXU9fi50jhtM3GkFyaSrYOVN9DNhdcpxzIXtDZd9mJ96nilGkVZuzxBMU1g+J/pBad4p992hDoamZt11+AqfUf2NaDvLU/9g4rqnuDJtOnD2FcEgTuMiSYpzwc1lxBGLJI/HRcv1/5fo902SjbPLtSOEEEIIIb35A9d8kcvz+d3PAAAAAElFTkSuQmCC;" vertex="1" parent="1">
          <mxGeometry x="988" y="269" width="120" height="120" as="geometry" />
        </mxCell>
        <mxCell id="hZm13JORJEHZNlpUktbY-28" value="" style="endArrow=classic;html=1;rounded=0;fontSize=12;startSize=8;endSize=8;curved=1;strokeWidth=2;exitX=0;exitY=0.5;exitDx=0;exitDy=0;entryX=0.995;entryY=0.446;entryDx=0;entryDy=0;entryPerimeter=0;" edge="1" parent="1" source="hZm13JORJEHZNlpUktbY-27" target="hZm13JORJEHZNlpUktbY-7">
          <mxGeometry width="50" height="50" relative="1" as="geometry">
            <mxPoint x="375.5" y="347" as="sourcePoint" />
            <mxPoint x="690.5" y="344" as="targetPoint" />
          </mxGeometry>
        </mxCell>
        <mxCell id="hZm13JORJEHZNlpUktbY-29" value="&lt;span style=&quot;font-size: 14px;&quot;&gt;ssh connection&lt;/span&gt;" style="text;strokeColor=none;fillColor=none;html=1;align=center;verticalAlign=middle;whiteSpace=wrap;rounded=0;fontSize=16;" vertex="1" parent="1">
          <mxGeometry x="735" y="299.5" width="111" height="30" as="geometry" />
        </mxCell>
        <mxCell id="hZm13JORJEHZNlpUktbY-30" value="" style="shape=image;imageAspect=0;aspect=fixed;verticalLabelPosition=bottom;verticalAlign=top;image=data:image/png,iVBORw0KGgoAAAANSUhEUgAAAMgAAADICAYAAACtWK6eAAAABHNCSVQICAgIfAhkiAAAAAlwSFlzAAALEwAACxMBAJqcGAAAB9xJREFUeJzt3V3MHFUdx/EvSF+RtipSwfcSIVIx1RRisEhFiokxXGiiF9gLiQGNiVdclGgCkl4YjYnRmNio0Svie6C+YEqgG8DEVAPapqgBaYMtbTS1tYgFSvt4cZ4nzM4zc3ZnX+bszHw/ySTM9Mw+/93w2zln58wMSJIkSZIkSZIkSZIkSZIkSZIkSZIkSZIkSZIkSZIkSZIkSZIkSZIkSZIkSZK665zUBUzZUuDbwHXAuYlrmQWrgVXAQeAq4GTSapTcp4E5l8JlP7B89I+2G9r+rbo2dQEz7ApgJ4Yk6rzUBdTsGeBU6iISWQ68NbdtCyEkNwEv1F6RkttGf7diU9pyktpIeXdrFx5JCrW9i6XhLBxJDEmOAemuB3LrW4D7MCR9DEh3PQzckdt2I4akjwHptq9gSKIMiAxJhAERlIfkXjoeEgPSHS/n1pfk1otC8mE6HhID0h1Hc+uXFbQxJB3jicJ+R3jlszgGLCtpl//c5oDf0sGQeATpll9n/vu1wG0l7TySdIRHkH756SbPAe+KtPdI0nIGZLGf0f+ZHCX+uRiSFjMgi72BEIrs53IG+CFwDcUzvA1JSxmQYhuB4xTP7H0ROAwcyi3/KWh7CDi/5to1QQak3Hrgb4x/ZeJ36i68Tv6K1V37gQ3AnYSjyahWTqac2dS1KwqruITwP88sX7Y7B+wFtgOnR9j/FHA38DXgI8Bm4HJgDeVfnhfQf5Jx3wh/VzNinC7W/Yzf/ahrub3C+xrX5oR/u3Z2scpdlLqACmb5KNdoBqTcHSyevzSLHge+mbqItnIMUm4XcHHqIpSWRxApwoBIEQZEijAgUoQBkSL8FavcCuAztP8cw1Hge3hv3kIGpNwOYGvqImqygfBloBy7WOXem7qAGnXpvVZiQMp9CzibuoganCG8VxWwi1VuB+GO510YgzRhSk0SBiTuyPyijrKLJUUYECnCgEgRBkSKcJAedy3d+BXr0dRFzCoDUm478MXURdTkTsLNG5RjF6vcx1IXUKMuvddKDEi5nakLqNF9qQuYVXaxym0jPCq57delHwZ2py5iVhmQuAdTF6C07GJJEQZEijAgUoQBkSIMiBRhQKSIJv7Mey7hEcbDyD8ebDVw4WTL6ZzVufXzGf4z/TfduIw5mYuBv5L+eRwuoy37adZjJRrXxdpKeAKSmukK4ObURVTRtIC0+nl4HdGop+I2cQySdS9wbECbSwmH9b8D/5x6Rd2wFlhHuJbkwIC2rwdumnpFU9L0gHwZ+FPqIhS1kQYHpGldLKlWBkSKMCBShAGRIgyIFGFApAgDIkUYECnCgEgRTT+TPkmrgFsGtJkDXgb+B5wAngH2AS9F9lnHZM4k7wBOZdavAa4uafsEsCvyWsuAz0X+/fvAc5Wq00y4i/7p0xsm+NpvY7Qp3McJtyldXvK6Hx3xdfNL/pqL7ZG2jw94r5sH/K03Ddi/io251/7SBF976uxijW8N4R6+uwlHoVmwgTBJsMyH6iqk6QzI5LwP+G7qIjKuj/ybARmSY5C4fcBvMuvnARcA7wCuY/EXzCeArwN7BrzuQ8AfKtZyanCTPluAHxdsX0X52EU5BiRuD+EevUXeDdwPXJLb/kkGB+SXwDfGK22R08CSzPoW4BxCvz/rA8CrIvspwy7W6PYCXyjY/p66C5l3BDiUWX8L4WKxvHz36vdTq6gFDMh4egXbUt01ZY7F9dxQ0C4fkPw+yjAg4yn61Sp2TmTaern1fEAuAq7MrD9P9bFQpzgGGU/RicWDQ+x3OcXf7mX2ACeHaNfLrV9PGG+cyaxnPUoYg6iEARnNhcDnKX6G4UND7P/Z+WVYVwF/HKLd04RxyMKJvtcQxkQL+9q9qsiAxH2ccH4DQnd0KeHE4OtK2h8D7qmhrjIL45BPZbbdQHlAdhNCpBKOQeLWAOvnl3cSfhUqCwfArYQ5Wintzq0vdOXWAW/PbP8v8FgtFTWYR5DJeB64DfjFkO33Ak9WeP3jFdr2cuubgBUsPno8guOPgQzI6E4DTwG/Ipz0e7bCvj9g8icKFxwA/gG8eX59GfB+irtXGsCAxP2c/tmnZ4EXCVPBTzCbdypfGIdszWy7kcW/YPVqqqfRDEjcCcLd5JumR39AbqF/7HSSwVPihYP0turl1vM/LDxCuPBLAxiQdjpAuNqxjOOPIRmQdiqal5VlQIZkQNL4KuE8RJXl7op/o1ey/QTw58oVd5SD9DSWUP0ajKUV2/dKtj/MK3OzNIBHkPY6SPE4pFdvGc1mQNqrbBzi+KPF7mJ6t/3RdHjbH6mtDIgUYUCkCAMiRRgQKcKASBEGRIowIFKEAZEimj5ZcSXw6iHaLSXtHQ/baNjPdOW0C5mmpgfkd6kLULvZxZIimhaQJ1IXoLHtS11AFU3rYv2UcLfDawkPhxlkPf0zfncB/5pCXV2ylv4bbz8G/GWI/Ram3++cQk0a0Tb6p1pvSltOK2ym/zO9PWk1U9a0LpZUKwMiRRgQKcKASBEGRIowIFKEAZEiDIgUYUCkCAMiRRgQKcKASBFNm807rh8BL6QuouFWpC6gTl0LyBtTF6BmaXsX60jqAjrgcOoCpqntR5B7gKuBD9L+L4O6nQUeAH6SuhBJkiRJkiRJkiRJkiRJkiRJkiRJkiRJkiRJkiRJkiRJkiRJkiRJkiRJkiRJkqbj/2a0fNmau9pqAAAAAElFTkSuQmCC;" vertex="1" parent="1">
          <mxGeometry x="885" y="150" width="60" height="60" as="geometry" />
        </mxCell>
        <mxCell id="hZm13JORJEHZNlpUktbY-31" value="" style="endArrow=none;html=1;rounded=0;fontSize=12;startSize=8;endSize=8;curved=1;strokeWidth=2;" edge="1" parent="1">
          <mxGeometry width="50" height="50" relative="1" as="geometry">
            <mxPoint x="910" y="324" as="sourcePoint" />
            <mxPoint x="910" y="210" as="targetPoint" />
          </mxGeometry>
        </mxCell>
        <mxCell id="hZm13JORJEHZNlpUktbY-32" value="" style="endArrow=none;html=1;rounded=0;fontSize=12;startSize=8;endSize=8;curved=1;strokeWidth=2;" edge="1" parent="1">
          <mxGeometry width="50" height="50" relative="1" as="geometry">
            <mxPoint x="919" y="324" as="sourcePoint" />
            <mxPoint x="919" y="210" as="targetPoint" />
          </mxGeometry>
        </mxCell>
      </root>
    </mxGraphModel>
  </diagram>
</mxfile>
